<svg xmlns:xlink="http://www.w3.org/1999/xlink" width="403.00036527500424" xmlns="http://www.w3.org/2000/svg" id="screenshot" version="1.1" viewBox="0 0 403.00036527500424 293.3247224672806" height="293.3247224672806" style="-webkit-print-color-adjust: exact;"><g id="shape-81c8ef30-1330-11ec-8bc5-e98ba5337ee1"><g id="shape-48e0acf0-132e-11ec-8bc5-e98ba5337ee1"><g id="shape-647d6570-1261-11ec-a24a-8550932f84af"><path d="M73.50000057353373,83.52352674051681L73.50000005984089,211.9559591729579M212.66901465804062,83.52352601839428L212.6690138900958,275.5235260184072M314.50000057353395,83.52352549001196L314.5000002518275,163.9559579224498" style="fill: none; stroke-width: 4; stroke: rgb(25, 25, 25); stroke-opacity: 1;"/></g><g id="shape-573791b0-1261-11ec-a24a-8550932f84af"><g id="shape-5737b8c0-1261-11ec-a24a-8550932f84af"><rect rx="5" ry="5" x="46.959807869403676" y="0.000005235988027152416" transform="matrix(1,1.7453292519943304e-8,-1.7453292519943298e-8,1,8.726647138246335e-7,-0.0000034375971438294073)" width="300" height="100" style="fill: rgb(25, 25, 25); fill-opacity: 1;"/></g><g id="shape-5737dfd0-1261-11ec-a24a-8550932f84af"><g><path d="M3500 1350 l0 -750 85 0 85 0 0 188 1 187 59 63 60 62 187 -250 188
-250 98 0 98 0 -20 27 c-11 16 -112 152 -225 303 -113 151 -206 280 -206 285
0 6 90 107 199 225 l199 215 -97 3 -96 3 -138 -143 c-76 -79 -175 -185 -220
-237 l-82 -95 -3 457 -2 457 -85 0 -85 0 0 -750z M7330 1825 c0 -151 -3 -275
-6 -275 -4 0 -24 16 -46 36 -71 64 -117 78 -248 79 -107 0 -119 -2 -169 -28
-107 -57 -192 -177 -226 -318 -36 -153 -13 -385 50 -510 35 -69 117 -155 180
-188 46 -24 60 -26 165 -26 133 0 178 15 253 84 l44 41 7 -31 c3 -17 6 -44 6
-60 l0 -29 80 0 80 0 0 750 0 750 -85 0 -85 0 0 -275z m-169 -305 c51 -14 98
-48 136 -98 l33 -44 0 -246 0 -247 -38 -49 c-51 -68 -114 -100 -209 -105 -64
-3 -81 0 -128 23 -62 31 -108 84 -138 159 -26 66 -35 267 -17 360 23 121 89
211 177 243 45 16 134 18 184 4z M170 1309 l0 -712 298 6 c312 5 363 12 453
58 54 27 125 93 154 143 33 58 47 117 47 207 0 63 -6 89 -28 138 -31 71 -102
142 -169 171 -25 11 -45 22 -45 24 0 3 17 14 38 25 53 27 117 97 144 156 26
58 30 173 9 240 -21 64 -70 133 -117 166 -102 70 -221 88 -571 89 l-213 0 0
-711z m615 538 c78 -35 112 -83 121 -174 12 -112 -34 -194 -131 -239 -47 -22
-62 -24 -237 -24 l-188 0 0 231 0 231 198 -4 c161 -3 204 -7 237 -21z m41
-614 c82 -44 118 -112 119 -223 0 -86 -25 -150 -78 -195 -64 -55 -113 -65
-329 -65 l-188 0 0 256 0 255 218 -3 c201 -3 220 -5 258 -25z M1645 1656
c-118 -38 -209 -110 -251 -199 -39 -85 -37 -87 60 -87 l84 0 7 31 c19 84 140
147 262 136 132 -13 193 -82 193 -220 l0 -74 -147 -7 c-165 -8 -249 -24 -323
-61 -113 -57 -170 -141 -178 -260 -6 -97 21 -166 89 -230 80 -75 123 -90 259
-90 107 0 119 2 170 29 30 16 73 44 95 63 39 34 40 34 43 11 2 -13 8 -40 13
-60 l10 -38 89 0 c50 0 90 3 90 8 0 4 -8 30 -16 57 -14 40 -18 119 -23 410 -5
244 -11 369 -19 388 -39 93 -118 161 -221 191 -66 19 -228 20 -286 2z m355
-652 c0 -133 -11 -161 -77 -207 -66 -46 -113 -60 -193 -61 -62 -1 -83 3 -120
24 -62 34 -93 94 -88 171 9 132 115 185 376 188 l102 1 0 -116z M2724 1652
c-190 -68 -296 -231 -310 -477 -14 -259 80 -457 261 -546 68 -33 72 -34 195
-34 123 0 127 1 195 34 115 57 205 165 222 265 l6 36 -81 0 -80 0 -6 -34 c-11
-55 -58 -111 -123 -142 -48 -24 -70 -29 -133 -29 -65 0 -83 5 -130 31 -111 62
-154 165 -154 369 -1 197 38 302 135 367 85 57 217 58 302 2 46 -30 95 -105
104 -156 l6 -38 80 0 80 0 -7 48 c-16 119 -119 248 -234 293 -80 31 -255 37
-328 11z M4773 1651 c-145 -53 -254 -182 -300 -353 -24 -89 -23 -283 1 -363
68 -225 227 -345 461 -345 115 0 200 24 276 79 57 41 114 105 105 119 -2 4
-24 22 -49 39 l-44 32 -34 -35 c-75 -78 -205 -117 -313 -94 -137 28 -225 140
-250 318 l-6 42 361 0 362 0 -6 108 c-12 224 -93 369 -247 441 -75 35 -237 41
-317 12z m248 -138 c75 -29 129 -118 145 -235 l7 -48 -272 0 c-225 0 -271 2
-271 14 0 34 42 146 69 183 74 102 199 136 322 86z M5901 1655 c-54 -17 -144
-77 -167 -113 -16 -25 -18 -25 -25 -7 -4 11 -8 44 -8 73 l-1 52 -80 0 -80 0 0
-530 0 -530 85 0 85 0 0 383 0 384 30 41 c38 53 101 99 154 113 57 16 167 6
208 -18 18 -10 44 -39 58 -64 l25 -44 3 -397 3 -398 85 0 85 0 -3 413 c-3 407
-4 413 -27 471 -32 80 -98 146 -170 169 -64 21 -197 22 -260 2z" transform="translate(100.95980786940368, 19.000005235988027) scale(0.25, 0.25) translate(0.000000,248.000000) scale(0.100000,-0.100000)" fill="#ffffff" stroke="none"/></g></g></g></g><g id="shape-87940c20-132f-11ec-8bc5-e98ba5337ee1"><g id="shape-46dea5f0-132f-11ec-8bc5-e98ba5337ee1"><rect rx="5" ry="5" x="136.95980786940368" y="243.00000523598803" transform="matrix(1.0000000180241402,6.952897775754427e-8,0.0000037172670433696002,0.9999999800002607,-0.0010000479803693452,-0.000009377418507483526)" width="150" height="50" style="fill: rgb(25, 25, 25); fill-opacity: 1;"/></g><g id="shape-81c959d0-132f-11ec-8bc5-e98ba5337ee1"><g id="shape-55a69c00-1262-11ec-a24a-8550932f84af" style="fill: rgb(255, 255, 255); fill-opacity: 1;"><g id="shape-55a897d0-1262-11ec-a24a-8550932f84af"><path d="M261.1862340449927,286.64941203542855C260.69605354285227,286.64941203542855,260.2074000827745,286.521140502158,259.7783012631435,286.2722326459309L255.29490576692888,283.6197605829457C254.6260613434472,283.24563527757346,254.95284834487416,283.1127826181148,255.17274240190932,283.03490347291483C256.0660620086144,282.72491393417795,256.24625297201806,282.65314295722897,257.20065426123256,282.1125700670178C257.2999119953108,282.0560695106964,257.4312376127068,282.07744809957467,257.53354943091085,282.13852978208456L260.97855632445976,284.183239104098C261.10377377360487,284.2519559969213,261.2793836108201,284.2519559969213,261.3939117655261,284.183239104098L274.82424670735395,276.4319735936125C274.94946415649906,276.3602026166635,275.0288703437616,276.21666066276566,275.0288703437616,276.0685375826796L275.0288703437616,260.56906064583404C275.0288703437616,260.41788348162265,274.9479371144364,260.27586856978735,274.81966558116596,260.19951646665015L261.3954388075888,252.45435912441573C261.27174840050634,252.38258814746686,261.1068278577302,252.38258814746686,260.9816104085851,252.45435912441573L247.5604377191337,260.2010435087129C247.4306391438006,260.27586856978735,247.3481788724123,260.42246460781075,247.3481788724123,260.56906064583404L247.3481788724123,276.0685375826796C247.3481788724123,276.21666066276566,247.4306391438006,276.3571485325381,247.5604377191337,276.42739246742417L251.23908204828263,278.5530350187631C253.23492602428792,279.5517205277971,254.4580867165455,278.3758981394848,254.4580867165455,277.19396758292146L254.4580867165455,261.8914790721699C254.4580867165455,261.6746390992604,254.6321695116983,261.5051374302958,254.84900948460768,261.5051374302958L256.55166138456684,261.5051374302958C256.7639202312878,261.5051374302958,256.94105711056613,261.67616614132316,256.94105711056613,261.8914790721699L256.94105711056613,277.19396758292146C256.94105711056613,279.85865598240866,255.49036715096008,281.38569804515214,252.96463957918263,281.38569804515214C252.1889022113089,281.38569804515214,251.57655834414868,281.38569804515214,249.8708523600642,280.54429786858043L246.34643927925276,278.51791305131997C245.476025303489,278.0155162126774,244.9385064974033,277.07485830202745,244.9385064974033,276.0685375826796L244.9385064974033,260.56906064583404C244.9385064974033,259.5627399264862,245.47755234555166,258.6220820158363,246.34643927925276,258.12121221925645L259.7767742210806,250.3607844563946C260.62733665002884,249.87976620663036,261.75582073439614,249.87976620663036,262.5987479530306,250.3607844563946L276.0275558527958,258.12121221925645C276.89796982855955,258.623609057899,277.4385427187708,259.5627399264862,277.4385427187708,260.56906064583404L277.4385427187708,276.0685375826796C277.4385427187708,277.07485830202745,276.89796982855955,278.012462128552,276.0275558527958,278.51791305131997L262.5987479530306,286.2722326459309C262.1711761754625,286.521140502158,261.6840497574474,286.64941203542855,261.1862340449927,286.64941203542855ZZM272.02975973253365,271.3683021135554C272.02975973253365,268.46692219434294,270.0690377239712,267.6942389105948,265.9414430283757,267.1490848941954C261.77109115502367,266.5978227095451,261.3465734615809,266.31226584381216,261.3465734615809,265.336485965719C261.3465734615809,264.53020775659047,261.70542834632556,263.4536431023564,264.79463443925556,263.4536431023564C267.5539994466328,263.4536431023564,268.5710094604199,264.04766246476356,268.98941898561156,265.907599697185C269.0260679951173,266.08320953440057,269.18640741170543,266.2114810676709,269.3665983751091,266.2114810676709L271.1089533686993,266.2114810676709C271.2173733551542,266.2114810676709,271.31968517335804,266.164142763726,271.3929831923699,266.0877906605888C271.46628121138133,266.0053303892007,271.5059843050128,265.89996448687134,271.4952950105737,265.788490416291C271.225008565468,262.5847561686554,269.0963119300038,261.09130903129244,264.79463443925556,261.09130903129244C260.9648129458949,261.09130903129244,258.680358020031,262.70691953367486,258.680358020031,265.41741919504443C258.680358020031,268.3569751658255,260.95259660939314,269.1693615432049,264.6281868544163,269.5327975541379C269.0260679951173,269.96342341583147,269.3665983751091,270.6063081242464,269.3665983751091,271.4706139317592C269.3665983751091,272.97169627943595,268.1617621876046,273.61152690372546,265.33215324534126,273.61152690372546C261.77872636533743,273.61152690372546,260.9968808292126,272.7197343390833,260.73422959442064,270.95141963042647C260.70368875316603,270.76206641464626,260.5418222945152,270.6231055869366,260.34788795254667,270.6231055869366L258.6116411272076,270.6231055869366C258.39632819636086,270.6231055869366,258.2237724432707,270.79413429796386,258.2237724432707,271.0094472288107C258.2237724432707,273.2725235657965,259.45456834584206,275.9692798486011,265.33215324534126,275.9692798486011C269.5895465162696,275.970806890664,272.02975973253365,274.29564174783457,272.02975973253365,271.3683021135554ZZ"/></g></g><g id="shape-afe55b30-132e-11ec-8bc5-e98ba5337ee1"><g><path d="M1680 978 l0 -141 -22 20 c-38 34 -64 43 -123 43 -66 0 -100 -16
-143 -64 -80 -91 -83 -292 -7 -392 41 -54 81 -74 148 -74 58 0 102 15 126 44
20 24 31 19 31 -14 0 -28 3 -30 35 -30 l35 0 0 375 0 375 -40 0 -40 0 0 -142z
m-73 -149 c15 -6 38 -20 51 -31 21 -20 22 -29 22 -164 l0 -142 -30 -26 c-38
-32 -91 -42 -140 -27 -70 21 -105 100 -98 216 6 88 31 141 78 167 39 20 76 23
117 7z M2716 1069 c-20 -30 -6 -63 28 -67 49 -6 74 38 40 72 -22 22 -50 20
-68 -5z M80 725 l0 -355 45 0 45 0 0 277 c0 204 3 274 11 266 6 -6 89 -130
183 -275 l172 -263 42 -3 42 -3 0 355 0 356 -40 0 -40 0 0 -275 c0 -151 -3
-275 -7 -275 -5 0 -89 124 -187 275 l-179 275 -43 0 -44 0 0 -355z M905 884
c-45 -24 -84 -64 -108 -109 -18 -33 -22 -57 -22 -140 0 -108 11 -141 64 -198
47 -52 95 -69 177 -65 95 4 145 37 189 123 26 51 30 69 30 140 0 71 -4 89 -30
140 -20 40 -45 69 -73 90 -38 26 -53 30 -120 33 -56 2 -85 -2 -107 -14z m172
-64 c52 -31 77 -91 77 -185 1 -138 -58 -211 -162 -203 -94 8 -142 78 -142 207
0 90 39 168 95 191 36 15 99 11 132 -10z M2018 880 c-81 -43 -128 -136 -128
-251 0 -115 44 -194 132 -240 57 -29 157 -26 217 6 56 31 78 60 60 81 -16 20
-25 18 -66 -13 -50 -39 -135 -44 -182 -11 -48 32 -72 68 -78 116 l-6 42 183 0
183 0 -7 58 c-14 116 -55 190 -122 218 -48 20 -142 17 -186 -6z m182 -75 c16
-15 32 -42 35 -59 4 -17 9 -39 11 -48 5 -17 -6 -18 -136 -18 l-140 0 6 28 c22
93 70 136 147 129 35 -3 56 -12 77 -32z M2710 581 c0 -319 0 -320 -22 -335
-12 -9 -35 -16 -50 -16 -24 0 -28 -4 -28 -30 0 -30 1 -30 55 -30 46 0 60 4 87
29 l33 29 3 336 3 336 -41 0 -40 0 0 -319z M3045 886 c-17 -7 -45 -30 -63 -50
-26 -29 -32 -45 -32 -81 0 -77 56 -119 209 -155 94 -22 126 -79 77 -137 -22
-26 -30 -28 -96 -28 -68 0 -73 2 -101 33 -16 18 -29 39 -29 47 0 11 -11 15
-40 15 -45 0 -50 -12 -26 -58 35 -68 104 -102 203 -102 107 0 179 52 190 136
10 76 -47 126 -188 165 -96 26 -119 42 -119 78 0 43 9 60 41 76 62 33 161 4
175 -50 5 -22 12 -25 46 -25 40 0 40 0 34 32 -8 39 -49 85 -93 104 -41 18
-148 17 -188 0z M2446 444 c-34 -34 -7 -77 44 -72 30 3 35 7 38 31 2 16 -2 35
-9 43 -15 19 -54 18 -73 -2z" transform="translate(147.95980786940368, 252.00000523598803) scale(0.25, 0.25) translate(0.000000,128.000000) scale(0.100000,-0.100000)" fill="#ffffff" stroke="none"/></g></g></g></g><g id="shape-7bdbdd40-132f-11ec-8bc5-e98ba5337ee1"><g id="shape-4971d3f0-132f-11ec-8bc5-e98ba5337ee1"><rect rx="5" ry="5" x="-0.040192130596324205" y="176.00000523598803" transform="matrix(1.0000000180242066,8.698226992842641e-8,0.0000036998137505350748,0.999999980000259,-0.0007450136742903624,-0.0000025002262020734634)" width="150" height="50" style="fill: rgb(25, 25, 25); fill-opacity: 1;"/></g><g id="shape-74e3ce80-132f-11ec-8bc5-e98ba5337ee1"><g id="shape-69a838d0-1262-11ec-a24a-8550932f84af" style="fill: rgb(255, 255, 255); fill-opacity: 1;"><g id="shape-69ad9000-1262-11ec-a24a-8550932f84af"><path d="M122.90601519681809,182.9641875968068L124.28035305328717,183.26959600935547L125.39509375909006,183.66662694566875L126.29604857610843,184.1247395644917L126.98321750434297,184.61339302456972L127.50241180567582,185.13258732590245L127.88417232136158,185.65178162723518L128.1284990514007,186.1557055079405L128.28120325767486,186.61381812676356L128.34228494018475,187.01084906307673L128.37282578143936,187.3162574756254L128.35755536081206,187.51477294378205L128.35755536081206,195.6691775588317L128.28120325767486,196.6312140583601L128.0826877895181,197.47108719286902L127.76200895634224,198.17352654173087L127.36497802002873,198.7538025255735L126.906865401206,199.22718556502386L126.40294152050069,199.60894608070973L125.86847679854031,199.89908407263098L125.33401207658017,200.11286996141504L124.83008819587485,200.26557416768944L124.3719755770519,200.37246711208135L123.97494464073839,200.43354879459125L123.65426580756252,200.46408963584597L114.53782469298426,200.46408963584597L113.48416566969149,200.54044173898316L112.58321085267289,200.75422762776722L111.81968982130115,201.09017688157084L111.1936025755765,201.50247823851154L110.68967869487119,201.99113169858933L110.27737733793037,202.5255964205496L109.97196892538182,203.07533156313727L109.74291261597023,203.64033712635236L109.59020840969583,204.1748018483125L109.4833154653038,204.6634553083903L109.42223378279391,205.0757566653311L109.3916929415393,205.3964354985072L109.3916929415393,210.06918421050202L105.98638914162143,210.06918421050202L105.66571030844534,210.02337294861965L105.238138530877,209.91648000422762L104.74948507079921,209.7332349566984L104.21502034883906,209.45836738540456L103.66528520625138,209.06133644909127L103.11555006366393,208.5116013065037L102.58108534170356,207.80916195764163L102.09243188162577,206.90820714062326L101.66486010405765,205.7934664348205L101.34418127088134,204.44966941960624L101.13039538209728,202.84627525372568L101.05404327896031,200.96801351655128L101.1456658027248,199.1050222000044L101.38999253276393,197.51689845475127L101.75648262782238,196.18837186016444L102.24513608790016,195.10417199561672L102.79487123048762,194.23375801985307L103.40568805558519,193.56185951224595L104.04704572193737,193.05793563154063L104.68840338828954,192.69144553648218L105.29922021338689,192.44711880644317L105.84895535597457,192.2944146001689L106.33760881605235,192.2180624970317L106.7040989111108,192.2027920764044L106.9484256411497,192.2027920764044L107.0400481649142,192.2180624970317L119.50071139690044,192.2180624970317L119.50071139690044,190.95061758495476L110.58278575047893,190.95061758495476L110.56751532985163,186.75125191241042L110.5369744885968,186.18624634919533L110.613326591734,185.66705204786248L110.78130121863569,185.19366900841212L111.04089836930211,184.766097230844L111.42265888498787,184.3690662945307L111.89604192443835,184.0178466200998L112.47631790828086,183.71243820755112L113.14821641588787,183.43757063625728L113.92700786788714,183.2085143268457L114.81269226427821,183.02526927931646L115.78999918443401,182.87256507304218L116.87419904898184,182.78094254927757L118.05002143729416,182.7198608667679L119.33273676999875,182.68932002551296L121.27208018968281,182.76567212865015ZM113.28565020153496,185.9877308810387L112.93443052710381,186.491654761744L112.81226716208425,187.11774200746876L112.93443052710381,187.74382925319352L113.28565020153496,188.26302355452626L113.78957408224028,188.59897280833L114.41566132796493,188.73640659397685L115.04174857368957,188.59897280833L115.54567245439489,188.26302355452626L115.89689212882604,187.74382925319352L116.0190554938456,187.11774200746876L115.89689212882604,186.491654761744L115.54567245439489,185.9877308810387L115.04174857368957,185.65178162723518L114.41566132796493,185.51434784158832L113.78957408224028,185.65178162723518ZM133.27463080284565,192.01954702887505L133.702202580414,192.11116955263978L134.19085604049178,192.2944146001689L134.72532076245193,192.56928217146285L135.2750559050396,192.98158352840343L135.8247910476273,193.51604825036358L136.35925576958743,194.23375801985307L136.84790922966545,195.13471283687156L137.27548100723357,196.24945354267433L137.59615984040965,197.59325055788847L137.80994572919371,199.1813743031416L137.88629783233068,201.0596360403159L137.79467530856618,202.9378977774904L137.5503485785273,204.52602152274343L137.18385848346884,205.83927769670274L136.69520502339105,206.92347756125056L136.14546988080338,207.79389153701433L135.53465305570603,208.48106046524876L134.89329538935385,208.9849843459543L134.25193772300167,209.35147444101253L133.6411208979041,209.59580117105153L133.09138575531665,209.7332349566984L132.60273229523887,209.8095870598356L132.2362422001804,209.84012790109043L131.9919154701413,209.824857480463L119.43962971439055,209.824857480463L119.43962971439055,211.07703197191253L128.35755536081206,211.07703197191253L128.37282578143936,215.2916680650844L128.40336662269442,215.84140320767196L128.32701451955722,216.3605975090047L128.1590398926553,216.8339805484553L127.8994427419891,217.27682274665082L127.51768222630312,217.6585832623367L127.04429918685287,218.02507335739492L126.46402320301036,218.3304817699436L125.79212469540312,218.59007892061013L125.01333324340408,218.8191352300216L124.12764884701278,219.01765069817824L123.15034192685721,219.1550844838251L122.06614206230938,219.26197742821725L120.89031967399683,219.32305911072692L119.60760434129247,219.33832953135445L117.66826092160841,219.27724784884467L116.0343259144729,219.0634619600605L114.65998805800405,218.75805354751193L113.54524735220116,218.37629303182607L112.64429253518256,217.918180413003L111.95712360694802,217.41425653229768L111.43792930561517,216.89506223096495L111.05616878992942,216.37586792963222L110.81184205989052,215.8719440489269L110.65913785361613,215.41383143010384L110.59805617110646,215.03207091441797L110.56751532985163,214.7266625018693L110.58278575047893,214.52814703371266L110.58278575047893,206.373742418663L110.65913785361613,205.3964354985072L110.85765332177289,204.57183278462568L111.17833215494898,203.86939343576384L111.57536309126226,203.28911745192133L112.03347571008521,202.80046399184354L112.53739959079053,202.4339738967851L113.0718643127509,202.12856548423642L113.60632903471082,201.91477959545213L114.11025291541614,201.76207538917797L114.56836553423932,201.67045286541335L114.96539647055238,201.60937118290357L115.2860753037287,201.57883034164874L115.48459077188522,201.56355992102132L124.40251641830673,201.56355992102132L125.45617544159973,201.48720781788413L126.3571302586181,201.27342192910007L127.12065128999006,200.95274309592398L127.74673853571471,200.52517131835575L128.25066241642003,200.03651785827785L128.66296377336062,199.5020531363177L128.9683721859094,198.95231799373013L129.197428495321,198.40258285114245L129.35013270159538,197.8681181291823L129.4570256459872,197.3794646691044L129.51810732849708,196.95189289153618L129.5486481697519,196.6312140583601L129.5486481697519,191.9584653463654L132.74016608088573,191.9584653463654L132.9539519696698,191.9737357669928ZM123.3946686568961,213.77989642296845L123.04344898246495,214.28382030367365L122.92128561744562,214.90990754939853L123.04344898246495,215.5359947951233L123.3946686568961,216.0399186758285L123.89859253760142,216.39113835025964L124.52467978332629,216.51330171527908L125.15076702905094,216.39113835025964L125.65469090975625,216.0399186758285L126.00591058418718,215.5359947951233L126.12807394920674,214.90990754939853L126.00591058418718,214.28382030367365L125.65469090975625,213.77989642296845L125.15076702905094,213.4286767485374L124.52467978332629,213.30651338351797L123.89859253760142,213.4286767485374Z"/></g></g><g id="shape-b54564d0-132e-11ec-8bc5-e98ba5337ee1"><g><path d="M1510 745 l0 -375 40 0 40 0 0 196 0 196 33 33 c58 58 149 58 191 2
19 -26 21 -44 24 -228 l4 -199 40 0 40 0 -4 207 c-4 232 -12 267 -72 304 -62
38 -173 21 -233 -34 l-23 -20 0 146 0 147 -40 0 -40 0 0 -375z M80 726 l0
-356 45 0 45 0 0 140 0 140 113 0 c72 0 132 6 164 15 101 30 156 133 132 246
-14 63 -76 131 -135 149 -22 6 -112 14 -201 17 l-163 6 0 -357z m321 274 c19
-5 48 -23 64 -40 37 -38 46 -119 20 -173 -26 -54 -63 -67 -199 -67 l-116 0 0
145 0 145 98 0 c53 0 113 -5 133 -10z M1220 965 l0 -65 -45 0 c-43 0 -45 -1
-45 -30 0 -29 2 -30 45 -30 l45 0 0 -177 c0 -98 5 -195 10 -215 15 -54 51 -78
116 -78 53 0 54 0 54 30 0 26 -4 30 -28 30 -16 0 -37 6 -48 14 -18 13 -19 28
-19 203 l0 188 48 3 c45 3 47 5 47 33 0 28 -1 29 -50 29 l-50 0 0 65 0 65 -40
0 -40 0 0 -65z M660 892 c0 -4 41 -120 91 -258 l90 -249 -15 -51 c-21 -65 -51
-94 -104 -97 -40 -2 -42 -3 -42 -34 0 -32 1 -33 46 -33 65 0 107 29 138 93 20
42 226 620 226 634 0 2 -19 3 -42 1 l-42 -3 -56 -180 c-31 -99 -60 -189 -64
-200 -6 -15 -25 29 -75 180 l-68 200 -41 3 c-23 2 -42 -1 -42 -6z M2185 884
c-45 -24 -84 -64 -108 -109 -18 -33 -22 -57 -22 -140 0 -108 11 -141 64 -198
47 -52 95 -69 177 -65 95 4 145 37 189 123 26 51 30 69 30 140 0 71 -4 89 -30
140 -20 40 -45 69 -73 90 -38 26 -53 30 -120 33 -56 2 -85 -2 -107 -14z m172
-64 c52 -31 77 -91 77 -185 1 -138 -58 -211 -162 -203 -94 8 -142 78 -142 207
0 90 39 168 95 191 36 15 99 11 132 -10z M2630 635 l0 -265 40 0 40 0 0 196 0
196 33 33 c58 58 149 58 191 2 19 -26 21 -44 24 -228 l4 -199 40 0 40 0 -4
208 c-4 231 -12 266 -72 303 -62 38 -173 21 -233 -34 l-23 -20 0 36 c0 36 -1
37 -40 37 l-40 0 0 -265z" transform="translate(11.959807869403676, 185.00000523598803) scale(0.25, 0.25) translate(0.000000,128.000000) scale(0.100000,-0.100000)" fill="#ffffff" stroke="none"/></g></g></g></g><g id="shape-7056a540-132f-11ec-8bc5-e98ba5337ee1"><g id="shape-5b135620-132e-11ec-8bc5-e98ba5337ee1"><rect rx="5" ry="5" x="228.95980786940368" y="158.00000523598803" transform="matrix(1.0000000159552411,8.698226974846313e-8,0.0000036998137505350744,0.999999980000259,-0.000682107150680622,-0.00002382294852054656)" width="174" height="50" style="fill: rgb(25, 25, 25); fill-opacity: 1;"/></g><g id="shape-64e124b0-132f-11ec-8bc5-e98ba5337ee1"><g id="shape-5400b430-1262-11ec-a24a-8550932f84af" style="fill: rgb(255, 255, 255); fill-opacity: 1;"><g id="shape-5401c5a0-1262-11ec-a24a-8550932f84af"><path d="M396.8575418579835,192.69355835086648C395.7537141079463,193.11105332587536,394.511900217678,192.63922957864938,393.9637971490847,191.59408806569124L388.6955020326202,184.30857038434246L387.93198100124823,183.2900333284928L381.81923162408657,191.60325031806772C381.3042575068114,192.60420579170804,380.126109782248,193.0670962406485,379.06750182702285,192.68439609849L386.9439847866536,182.1172650243058L379.61723696961076,172.5717250900968C380.70316985295926,172.18038928936787,381.91466494677593,172.60505020120056,382.5186168888231,173.58873510388398L387.9793193051935,180.96434826693454L393.4705625628187,173.61927594513875C393.98984200636505,172.63552629938883,395.16381034213896,172.1969296280818,396.2009137710038,172.59921184722614L393.3575614501756,176.37253278426513L389.50636136793696,181.38581187625167C389.2900421407344,181.57877394372488,389.1663444032008,181.85487531198473,389.1663444032008,182.14475178143525C389.1663444032008,182.43462825088548,389.2900421407344,182.71072961914544,389.50636136793696,182.9036916866187L396.8422714373562,192.69508539292931ZM360.21158643626745,181.98593940690992L360.85294410261986,178.81732712671723C362.6151506430258,172.55187354328118,369.79835650617065,169.9452127421782,374.7398646212082,173.82389958154644C377.633609330107,176.09766521297135,378.3559002257846,179.31666988123433,378.2138853139493,182.94492182231275L361.9127112941637,182.94492182231275C361.6485330173091,189.42416129453287,366.32433581342934,193.3364430592815,372.3027054890697,191.33754499915037C374.2713046159297,190.6289334644425,375.75248387299075,188.9790994042926,376.24552809507327,186.94577202670038C376.56162580206114,185.92876201291338,377.08234714545665,185.75467921776053,378.03827547673404,186.04787129380728C377.7155345438928,188.56127679796592,376.2585667680762,190.78809081453866,374.0847635762914,192.0903767360829C370.4492760548944,194.07895466212895,365.94726271832155,193.50403289330566,362.9281942658881,190.66564649154324C361.47296787258847,189.02772287722925,360.59346330731296,186.95874201574563,360.42384528298885,184.77431821347935C360.42384528298885,184.41546332873472,360.3016819179695,184.07951407493098,360.2192216465812,183.75730819969218C360.21178805189834,183.16739067474614,360.20822487706664,182.57743072757538,360.20853235214213,181.98746644897406ZM361.9325628409795,181.54920537696532L376.67462691470405,181.54920537696532C376.58300439093955,176.85202399196655,373.61901574715444,173.5200182110605,369.665503846712,173.4894773698057C365.2645686218855,173.42839568729588,362.11580788850847,176.68710344919023,361.92187354654016,181.5278267880869Z"/></g></g><g id="shape-8c72f450-132e-11ec-8bc5-e98ba5337ee1"><g><path d="M3836 1069 c-20 -30 -6 -63 28 -67 49 -6 74 38 40 72 -22 22 -50 20
-68 -5z M80 725 l0 -355 225 0 225 0 0 35 0 35 -180 0 -180 0 0 130 0 130 155
0 155 0 0 35 0 35 -155 0 -155 0 0 120 0 120 175 0 175 0 0 35 0 35 -220 0
-220 0 0 -355z M676 770 l87 -129 -80 -123 c-44 -68 -83 -129 -87 -135 -5 -10
4 -13 36 -13 l43 0 60 98 c34 53 65 97 70 97 5 0 36 -44 69 -97 l59 -98 44 0
c33 0 42 3 37 13 -4 6 -43 65 -87 130 -43 65 -76 125 -73 133 3 7 37 61 76
119 93 138 92 135 39 135 l-44 0 -59 -100 c-32 -55 -61 -98 -66 -95 -4 2 -33
47 -64 100 l-57 95 -45 0 -44 0 86 -130z M1110 535 l0 -365 40 0 40 0 0 132
c0 124 1 130 18 116 53 -47 162 -64 220 -34 75 39 116 126 116 246 1 126 -34
206 -108 251 -50 31 -141 26 -198 -10 l-46 -29 -6 29 c-5 25 -10 29 -41 29
l-35 0 0 -365z m288 278 c45 -34 66 -87 66 -172 0 -95 -15 -141 -60 -181 -28
-24 -44 -30 -80 -30 -51 0 -96 20 -118 52 -24 34 -23 274 2 305 43 55 135 67
190 26z M1670 635 l0 -265 40 0 40 0 0 193 c0 162 3 196 16 216 21 29 72 51
119 51 33 0 35 2 35 35 0 35 -1 35 -42 35 -44 0 -87 -21 -113 -56 -13 -18 -14
-16 -15 19 0 37 -1 37 -40 37 l-40 0 0 -265z M2098 880 c-81 -43 -128 -136
-128 -251 0 -115 44 -194 132 -240 57 -29 157 -26 217 6 56 31 78 60 60 81
-16 20 -25 18 -66 -13 -50 -39 -135 -44 -182 -11 -48 32 -72 68 -78 116 l-6
42 183 0 183 0 -7 58 c-14 116 -55 190 -122 218 -48 20 -142 17 -186 -6z m182
-75 c16 -15 32 -42 35 -59 4 -17 9 -39 11 -48 5 -17 -6 -18 -136 -18 l-140 0
6 28 c22 93 70 136 147 129 35 -3 56 -12 77 -32z M2605 886 c-17 -7 -45 -30
-63 -50 -26 -29 -32 -45 -32 -81 0 -77 56 -119 209 -155 94 -22 126 -79 77
-137 -22 -26 -30 -28 -96 -28 -68 0 -73 2 -101 33 -16 18 -29 39 -29 47 0 11
-11 15 -40 15 -45 0 -50 -12 -26 -58 35 -68 104 -102 203 -102 107 0 179 52
190 136 10 76 -47 126 -188 165 -96 26 -119 42 -119 78 0 43 9 60 41 76 62 33
161 4 175 -50 5 -22 12 -25 46 -25 40 0 40 0 34 32 -8 39 -49 85 -93 104 -41
18 -148 17 -188 0z M3125 886 c-17 -7 -45 -30 -63 -50 -26 -29 -32 -45 -32
-81 0 -77 56 -119 209 -155 94 -22 126 -79 77 -137 -22 -26 -30 -28 -96 -28
-68 0 -73 2 -101 33 -16 18 -29 39 -29 47 0 11 -11 15 -40 15 -45 0 -50 -12
-26 -58 35 -68 104 -102 203 -102 107 0 179 52 190 136 10 76 -47 126 -188
165 -96 26 -119 42 -119 78 0 43 9 60 41 76 62 33 161 4 175 -50 5 -22 12 -25
46 -25 40 0 40 0 34 32 -8 39 -49 85 -93 104 -41 18 -148 17 -188 0z M3830
581 c0 -319 0 -320 -22 -335 -12 -9 -35 -16 -50 -16 -24 0 -28 -4 -28 -30 0
-30 1 -30 55 -30 46 0 60 4 87 29 l33 29 3 336 3 336 -41 0 -40 0 0 -319z
M4165 886 c-17 -7 -45 -30 -63 -50 -26 -29 -32 -45 -32 -81 0 -77 56 -119 209
-155 94 -22 126 -79 77 -137 -22 -26 -30 -28 -96 -28 -68 0 -73 2 -101 33 -16
18 -29 39 -29 47 0 11 -11 15 -40 15 -45 0 -50 -12 -26 -58 35 -68 104 -102
203 -102 107 0 179 52 190 136 10 76 -47 126 -188 165 -96 26 -119 42 -119 78
0 43 9 60 41 76 62 33 161 4 175 -50 5 -22 12 -25 46 -25 40 0 40 0 34 32 -8
39 -49 85 -93 104 -41 18 -148 17 -188 0z M3566 444 c-34 -34 -7 -77 44 -72
30 3 35 7 38 31 2 16 -2 35 -9 43 -15 19 -54 18 -73 -2z" transform="translate(234.95980786940368, 167.00000523598803) scale(0.25, 0.25) translate(0.000000,128.000000) scale(0.100000,-0.100000)" fill="#ffffff" stroke="none"/></g></g></g></g></g></svg>