<svg xmlns:xlink="http://www.w3.org/1999/xlink" width="488.2587212435003" xmlns="http://www.w3.org/2000/svg" id="screenshot" version="1.1" viewBox="-0.00000467329391540261 0.2474716860419619 488.2587212435003 266.33479051992026" height="266.33479051992026" style="-webkit-print-color-adjust: exact;"><g id="shape-6f747470-1886-11ec-993a-293f9893854e"><g id="shape-2461db80-1886-11ec-993a-293f9893854e"><rect rx="0" ry="0" x="0" y="0" transform="matrix(1.0000000019388549,5.148934621792619e-18,5.1489346225400866e-18,1.0000000017890116,-4.730805756025802e-7,-2.3793853642928298e-7)" width="488" height="266" style="fill: rgb(177, 178, 181); fill-opacity: 0;"/></g><g id="shape-81c8ef30-1330-11ec-8bc5-e98ba5337ee1"><g id="shape-48e0acf0-132e-11ec-8bc5-e98ba5337ee1"><g id="shape-647d6570-1261-11ec-a24a-8550932f84af"><path d="M115.62917509899557,86.90008485606194L115.62917458530296,181.8958195529612M254.7981891835027,86.90008368957402L254.79818841555766,228.91390929705983M356.62917509899603,86.90008283604632L356.62917477728956,146.39236113107415" style="fill: none; stroke-width: 4; stroke: rgb(25, 25, 25); stroke-opacity: 1;"/></g><g id="shape-573791b0-1261-11ec-a24a-8550932f84af"><g id="shape-5737b8c0-1261-11ec-a24a-8550932f84af"><rect rx="5" ry="5" x="90" y="3" transform="matrix(1.0000000000000002,1.7453292519943298e-8,-1.7453292519943304e-8,1,9.250244374925387e-7,-0.000004188790207138027)" width="300" height="100" style="fill: rgb(25, 25, 25); fill-opacity: 1;"/></g><g id="shape-5737dfd0-1261-11ec-a24a-8550932f84af"><g><path d="M3500 1360 l0 -750 85 0 85 0 0 188 0 187 58 64 57 64 189 -252 188
-251 99 0 98 0 -221 297 c-121 164 -225 303 -230 310 -6 8 57 82 197 232 l206
221 -103 0 -103 -1 -187 -202 c-103 -111 -201 -218 -217 -237 l-30 -35 -1 458
0 457 -85 0 -85 0 0 -750z M7320 1835 c0 -151 -2 -275 -4 -275 -3 0 -20 14
-38 31 -61 58 -132 83 -238 87 -78 3 -105 0 -151 -18 -109 -40 -195 -141 -246
-287 -24 -71 -27 -91 -27 -223 0 -109 4 -161 18 -210 38 -139 128 -260 231
-310 44 -22 63 -25 160 -25 97 0 116 3 165 26 30 14 73 42 94 62 21 20 40 37
42 37 2 0 4 -26 6 -57 l3 -58 78 -3 77 -3 0 751 0 750 -85 0 -85 0 0 -275z
m-165 -306 c54 -14 108 -52 139 -98 l26 -37 0 -256 0 -255 -41 -47 c-53 -60
-107 -87 -186 -94 -93 -7 -148 12 -209 73 -63 63 -92 141 -101 270 -14 222 59
395 188 441 43 16 132 17 184 3z M170 1319 l0 -712 298 6 c312 5 363 12 453
58 54 27 125 93 154 143 33 58 47 117 47 207 0 63 -6 89 -28 138 -31 71 -102
142 -169 171 -25 11 -45 22 -45 24 0 3 17 14 38 25 53 27 117 97 144 156 26
58 30 173 9 240 -21 64 -70 133 -117 166 -102 70 -221 88 -571 89 l-213 0 0
-711z m615 538 c78 -35 112 -83 121 -174 12 -112 -34 -194 -131 -239 -47 -22
-62 -24 -237 -24 l-188 0 0 231 0 231 198 -4 c161 -3 204 -7 237 -21z m41
-614 c82 -44 118 -112 119 -223 0 -86 -25 -150 -78 -195 -64 -55 -113 -65
-329 -65 l-188 0 0 256 0 255 218 -3 c201 -3 220 -5 258 -25z M1645 1666
c-118 -38 -209 -110 -251 -199 -39 -85 -37 -87 60 -87 l84 0 7 31 c19 84 140
147 262 136 132 -13 193 -82 193 -220 l0 -74 -147 -7 c-165 -8 -249 -24 -323
-61 -113 -57 -170 -141 -178 -260 -6 -97 21 -166 89 -230 80 -75 123 -90 259
-90 107 0 119 2 170 29 30 16 73 44 95 63 39 34 40 34 43 11 2 -13 8 -40 13
-60 l10 -38 89 0 c50 0 90 3 90 8 0 4 -8 30 -16 57 -14 40 -18 119 -23 410 -5
244 -11 369 -19 388 -39 93 -118 161 -221 191 -66 19 -228 20 -286 2z m355
-652 c0 -133 -11 -161 -77 -207 -66 -46 -113 -60 -193 -61 -62 -1 -83 3 -120
24 -62 34 -93 94 -88 171 9 132 115 185 376 188 l102 1 0 -116z M2735 1666
c-161 -51 -272 -182 -311 -366 -21 -101 -14 -288 15 -381 25 -78 83 -171 136
-218 22 -19 69 -48 105 -65 57 -27 78 -31 170 -34 86 -3 116 0 162 17 121 42
210 123 255 230 36 90 36 91 -55 91 l-77 0 -18 -49 c-36 -102 -156 -171 -274
-157 -143 17 -225 104 -254 271 -14 85 -7 261 15 332 42 134 137 208 270 207
59 0 80 -4 124 -29 63 -34 106 -89 122 -156 l12 -49 79 0 c92 0 91 -2 59 103
-36 117 -132 211 -252 249 -70 21 -221 24 -283 4z M4783 1666 c-142 -46 -260
-175 -307 -336 -23 -75 -31 -229 -17 -318 27 -171 116 -299 257 -369 71 -34
83 -37 188 -41 124 -5 196 9 272 54 51 30 150 133 138 143 -5 4 -28 22 -51 40
l-42 32 -42 -42 c-64 -64 -137 -93 -234 -93 -103 0 -168 27 -230 96 -49 55
-79 125 -90 211 l-7 57 362 0 363 0 -7 98 c-16 236 -87 372 -234 444 -60 30
-75 33 -172 35 -68 2 -120 -2 -147 -11z m247 -149 c72 -36 116 -112 135 -234
l7 -43 -272 0 -273 0 7 43 c15 93 82 198 148 233 74 39 172 39 248 1z M5877
1656 c-58 -24 -144 -87 -154 -112 -13 -34 -23 -8 -23 56 l0 70 -80 0 -80 0 0
-530 0 -530 85 0 85 0 0 380 c0 425 -3 407 72 476 63 58 120 78 212 72 93 -6
136 -31 168 -96 23 -46 23 -52 26 -439 l3 -393 85 0 85 0 -3 408 c-4 373 -6
411 -24 459 -30 80 -74 134 -135 168 -49 26 -65 30 -159 33 -93 2 -112 0 -163
-22z" transform="translate(144, 22) scale(0.25, 0.25) translate(0.000000,248.000000) scale(0.100000,-0.100000)" fill="#c2c2c2" stroke="none"/></g></g></g></g><g id="shape-87940c20-132f-11ec-8bc5-e98ba5337ee1"><g id="shape-46dea5f0-132f-11ec-8bc5-e98ba5337ee1"><rect rx="5" ry="5" x="180" y="214" transform="matrix(1.0000000180242026,8.698226992842608e-8,0.000003699813750535069,0.9999999800002575,-0.0008888516580327632,-0.000017400540372136675)" width="150" height="50" style="fill: rgb(25, 25, 25); fill-opacity: 1;"/></g><g id="shape-81c959d0-132f-11ec-8bc5-e98ba5337ee1"><g id="shape-55a69c00-1262-11ec-a24a-8550932f84af" style="fill: rgb(255, 255, 255); fill-opacity: 1;"><g id="shape-55a897d0-1262-11ec-a24a-8550932f84af"><path d="M303.3154085704548,256.9019209702615C302.82522806831435,256.9019209702615,302.33657460823656,256.7736494369909,301.9074757886053,256.5247415807638L297.4240802923907,253.8722695177786C296.75523586890927,253.49814421240637,297.08202287033623,253.36529155294772,297.3019169273714,253.28741240774775C298.19523653407646,252.97742286901087,298.37542749748013,252.90565189206188,299.3298287866944,252.36507900185075C299.4290865207729,252.3085784455293,299.56041213816866,252.32995703440758,299.66272395637293,252.39103871691748L303.10773084992184,254.4357480389309C303.23294829906695,254.50446493175423,303.4085581362822,254.50446493175423,303.5230862909882,254.4357480389309L316.953421232816,246.68448252844541C317.07863868196114,246.61271155149643,317.15804486922366,246.46916959759858,317.15804486922366,246.3210465175125L317.15804486922366,230.82156958066696C317.15804486922366,230.67039241645557,317.0771116398985,230.52837750462027,316.94884010662804,230.45202540148307L303.52461333305087,222.70686805924868C303.4009229259684,222.6350970822998,303.2360023831923,222.6350970822998,303.11078493404716,222.70686805924868L289.68961224459576,230.45355244354585C289.55981366926267,230.52837750462027,289.47735339787437,230.67497354264367,289.47735339787437,230.82156958066696L289.47735339787437,246.3210465175125C289.47735339787437,246.46916959759858,289.55981366926267,246.609657467371,289.68961224459576,246.6799014022571L293.3682565737447,248.80554395359604C295.36410054975,249.80422946263002,296.58726124200734,248.6284070743177,296.58726124200734,247.44647651775438L296.58726124200734,232.1439880070028C296.58726124200734,231.9271480340933,296.76134403716037,231.75764636512872,296.97818401006975,231.75764636512872L298.6808359100289,231.75764636512872C298.89309475674986,231.75764636512872,299.0702316360282,231.92867507615608,299.0702316360282,232.1439880070028L299.0702316360282,247.44647651775438C299.0702316360282,250.11116491724158,297.61954167642193,251.63820697998506,295.0938141046447,251.63820697998506C294.318076736771,251.63820697998506,293.70573286961076,251.63820697998506,292.00002688552627,250.79680680341335L288.47561380471484,248.77042198615288C287.6051998289511,248.26802514751034,287.0676810228654,247.32736723686037,287.0676810228654,246.3210465175125L287.0676810228654,230.82156958066696C287.0676810228654,229.8152488613191,287.60672687101373,228.87459095066924,288.47561380471484,228.37372115408937L301.90594874654266,220.61329339122756C302.7565111754909,220.1322751414633,303.8849952598582,220.1322751414633,304.7279224784927,220.61329339122756L318.15673037825786,228.37372115408937C319.02714435402163,228.8761179927319,319.56771724423265,229.8152488613191,319.56771724423265,230.82156958066696L319.56771724423265,246.3210465175125C319.56771724423265,247.32736723686037,319.02714435402163,248.2649710633849,318.15673037825786,248.77042198615288L304.7279224784927,256.5247415807638C304.3003507009246,256.7736494369909,303.81322428290946,256.9019209702615,303.3154085704548,256.9019209702615ZZM314.1589342579957,241.6208110483883C314.1589342579957,238.71943112917586,312.198212249433,237.9467478454277,308.0706175538378,237.40159382902834C303.90026568048575,236.850331644378,303.47574798704295,236.56477477864507,303.47574798704295,235.58899490055194C303.47574798704295,234.7827166914234,303.83460287178764,233.70615203718933,306.92380896471764,233.70615203718933C309.6831739720949,233.70615203718933,310.70018398588195,234.30017139959648,311.11859351107364,236.1601086320179C311.15524252057935,236.33571846923348,311.3155819371675,236.4639900025038,311.4957729005712,236.4639900025038L313.2381278941614,236.4639900025038C313.3465478806163,236.4639900025038,313.4488596988201,236.4166516985589,313.522157717832,236.3402995954217C313.5954557368434,236.25783932403363,313.6351588304749,236.15247342170426,313.6244695360358,236.0409993511239C313.35418309093006,232.83726510348833,311.2254864554659,231.34381796612536,306.92380896471764,231.34381796612536C303.09398747135697,231.34381796612536,300.8095325454931,232.95942846850778,300.8095325454931,235.66992812987735C300.8095325454931,238.6094841006584,303.0817711348552,239.42187047803782,306.7573613798784,239.78530648897083C311.15524252057935,240.2159323506644,311.4957729005712,240.85881705907934,311.4957729005712,241.72312286659212C311.4957729005712,243.22420521426886,310.2909367130667,243.86403583855838,307.46132777080334,243.86403583855838C303.9079008907995,243.86403583855838,303.1260553546747,242.9722432739162,302.8634041198827,241.2039285652594C302.8328632786281,241.01457534947917,302.6709968199773,240.87561452176953,302.47706247800875,240.87561452176953L300.74081565266965,240.87561452176953C300.52550272182293,240.87561452176953,300.35294696873257,241.04664323279678,300.35294696873257,241.26195616364362C300.35294696873257,243.52503250062944,301.58374287130414,246.22178878343402,307.46132777080334,246.22178878343402C311.71872104173167,246.2233158254969,314.1589342579957,244.54815068266748,314.1589342579957,241.6208110483883ZZ" style="fill: rgb(194, 194, 194);"/></g></g><g id="shape-afe55b30-132e-11ec-8bc5-e98ba5337ee1"><g><path d="M1680 989 l0 -140 -36 27 c-37 29 -117 43 -168 30 -36 -9 -93 -62
-119 -110 -30 -56 -32 -242 -3 -296 23 -45 64 -88 98 -106 55 -29 172 -12 207
29 20 25 31 21 31 -13 0 -28 3 -30 35 -30 l35 0 0 375 0 375 -40 0 -40 0 0
-141z m-66 -153 c59 -25 66 -45 66 -192 0 -117 -2 -134 -20 -157 -39 -49 -129
-59 -187 -22 -64 42 -86 214 -40 305 35 71 107 97 181 66z M2715 1080 c-26
-29 -7 -70 33 -70 50 0 69 41 34 73 -25 22 -45 21 -67 -3z M80 735 l0 -355 45
0 45 0 2 277 3 277 180 -277 180 -276 43 -1 42 0 0 355 0 355 -40 0 -40 0 0
-275 c0 -151 -4 -275 -9 -275 -4 0 -89 124 -187 275 l-179 275 -42 0 -43 0 0
-355z M899 890 c-112 -59 -162 -215 -116 -355 19 -57 75 -121 124 -141 45 -19
147 -18 190 3 114 54 167 215 119 360 -18 54 -82 125 -129 142 -46 18 -147 13
-188 -9z m171 -59 c55 -29 80 -88 80 -185 -1 -138 -50 -206 -150 -206 -100 0
-149 68 -150 206 0 65 4 89 23 124 26 49 75 80 127 80 19 0 51 -8 70 -19z
M2025 893 c-49 -25 -86 -65 -111 -118 -19 -40 -24 -66 -24 -136 0 -76 4 -94
28 -140 41 -78 94 -112 182 -117 81 -5 129 9 176 50 39 35 41 43 14 58 -17 9
-27 6 -56 -17 -48 -36 -133 -43 -184 -15 -42 23 -80 84 -80 130 l0 32 175 0
175 0 0 53 c0 148 -77 237 -205 236 -35 0 -73 -6 -90 -16z m166 -69 c26 -23
49 -74 49 -109 l0 -25 -135 0 c-153 0 -151 -1 -115 77 26 58 71 85 133 80 27
-2 56 -12 68 -23z M2710 595 c0 -302 -1 -316 -20 -335 -11 -11 -33 -20 -50
-20 -27 0 -30 -3 -30 -30 0 -30 1 -30 53 -30 32 0 61 6 76 16 48 34 51 60 51
399 l0 315 -40 0 -40 0 0 -315z M3032 889 c-93 -46 -114 -152 -41 -213 17 -14
63 -35 102 -47 116 -33 145 -48 156 -82 28 -79 -71 -133 -177 -96 -32 11 -62
47 -62 74 0 11 -11 15 -41 15 -41 0 -41 0 -35 -30 7 -39 32 -71 75 -101 28
-19 50 -25 115 -27 69 -3 88 0 125 20 60 31 84 66 84 122 0 80 -42 116 -183
155 -101 28 -120 42 -120 90 0 51 26 73 93 78 61 5 113 -21 123 -62 5 -21 12
-25 45 -25 47 0 51 19 16 71 -52 77 -181 104 -275 58z M2438 444 c-15 -33 -1
-58 36 -62 33 -4 56 13 56 42 0 51 -71 66 -92 20z" transform="translate(190, 223) scale(0.25, 0.25) translate(0.000000,128.000000) scale(0.100000,-0.100000)" fill="#c2c2c2" stroke="none"/></g></g></g></g><g id="shape-7bdbdd40-132f-11ec-8bc5-e98ba5337ee1"><g id="shape-4971d3f0-132f-11ec-8bc5-e98ba5337ee1"><rect rx="5" ry="5" x="42" y="162" transform="matrix(1.0000000180242048,8.69822699284263e-8,0.0000036998137505350693,0.9999999800002576,-0.0006939740033118369,-0.000006436973734480489)" width="150" height="50" style="fill: rgb(25, 25, 25); fill-opacity: 1;"/></g><g id="shape-74e3ce80-132f-11ec-8bc5-e98ba5337ee1"><g id="shape-69a838d0-1262-11ec-a24a-8550932f84af" style="fill: rgb(255, 255, 255); fill-opacity: 1;"><g id="shape-69ad9000-1262-11ec-a24a-8550932f84af"><path d="M165.03518972228017,169.21669653163974L166.40952757874925,169.5221049441884L167.52426828455214,169.9191358805017L168.4252231015705,170.37724849932465L169.11239202980482,170.86590195940266L169.63158633113767,171.3850962607354L170.01334684682365,171.90429056206813L170.25767357686277,172.40821444277344L170.4103777831367,172.8663270615965L170.47145946564683,173.26335799790968L170.50200030690144,173.56876641045835L170.4867298862739,173.767281878615L170.4867298862739,181.92168649366465L170.4103777831367,182.88372299319303L170.21186231498018,183.72359612770197L169.89118348180432,184.4260354765638L169.4941525454908,185.00631146040644L169.03603992666808,185.4796944998568L168.53211604596277,185.86145501554267L167.9976513240024,186.15159300746393L167.46318660204201,186.365378896248L166.9592627213367,186.51808310252238L166.50115010251398,186.6249760469143L166.10411916620046,186.6860577294242L165.7834403330246,186.7165985706789L156.66699921844634,186.7165985706789L155.61334019515357,186.7929506738161L154.71238537813474,187.00673656260017L153.94886434676323,187.3426858164038L153.32277710103858,187.7549871733445L152.81885322033327,188.24364063342227L152.40655186339222,188.77810535538254L152.1011434508439,189.32784049797021L151.8720871414323,189.8928460611853L151.7193829351579,190.42731078314546L151.61248999076565,190.91596424322324L151.551408308256,191.32826560016406L151.52086746700138,191.64894443334015L151.52086746700138,196.32169314533496L148.1155636670835,196.32169314533496L147.7948848339072,196.2758818834526L147.36731305633907,196.16898893906057L146.8786595962613,195.98574389153134L146.3441948743009,195.7108763202375L145.79445973171346,195.31384538392422L145.244724589126,194.76411024133665L144.71025986716563,194.06167089247458L144.22160640708785,193.1607160754562L143.79403462951973,192.04597536965343L143.4733557963434,190.70217835443918L143.25956990755935,189.09878418855862L143.18321780442216,187.22052245138423L143.27484032818688,185.35753113483736L143.519167058226,183.76940738958422L143.88565715328446,182.44088079499738L144.37431061336224,181.35668093044967L144.9240457559497,180.48626695468602L145.53486258104726,179.8143684470789L146.17622024739944,179.31044456637358L146.81757791375162,178.94395447131512L147.42839473884874,178.69962774127612L147.97812988143664,178.54692353500184L148.46678334151443,178.47057143186464L148.83327343657288,178.45530101123734L149.07760016661155,178.45530101123734L149.16922269037627,178.47057143186464L161.6298859223623,178.47057143186464L161.6298859223623,177.2031265197877L152.711960275941,177.2031265197877L152.69668985531348,173.00376084724337L152.66614901405887,172.43875528402828L152.74250111719607,171.91956098269543L152.91047574409754,171.44617794324506L153.1700728947642,171.01860616567694L153.55183341044972,170.62157522936366L154.02521644990043,170.27035555493273L154.60549243374294,169.96494714238406L155.27739094134972,169.69007957109022L156.05618239334922,169.46102326167863L156.94186678974006,169.2777782141494L157.91917370989609,169.12507400787513L159.0033735744439,169.03345148411051L160.179195962756,168.97236980160085L161.46191129546082,168.9418289603459L163.4012547151449,169.0181810634831ZM155.41482472699704,172.24023981587163L155.06360505256566,172.74416369657695L154.94144168754633,173.3702509423017L155.06360505256566,173.99633818802647L155.41482472699704,174.5155324893592L155.91874860770236,174.85148174316294L156.544835853427,174.9889155288098L157.17092309915165,174.85148174316294L157.67484697985697,174.5155324893592L158.0260666542879,173.99633818802647L158.14823001930768,173.3702509423017L158.0260666542879,172.74416369657695L157.67484697985697,172.24023981587163L157.17092309915165,171.90429056206813L156.544835853427,171.76685677642126L155.91874860770236,171.90429056206813ZM175.40380532830773,178.272055963708L175.83137710587584,178.36367848747273L176.32003056595363,178.54692353500184L176.854495287914,178.8217911062958L177.40423043050146,179.23409246323638L177.95396557308936,179.76855718519653L178.48843029504928,180.48626695468602L178.97708375512752,181.3872217717045L179.40465553269564,182.50196247750728L179.7253343658715,183.8457594927214L179.93912025465556,185.43388323797456L180.01547235779276,187.31214497514884L179.92384983402803,189.19040671232335L179.67952310398937,190.77853045757638L179.31303300893092,192.09178663153568L178.82437954885313,193.1759864960835L178.27464440626522,194.04640047184728L177.6638275811681,194.7335694000817L177.02246991481593,195.23749328078725L176.38111224846375,195.60398337584547L175.77029542336618,195.84831010588448L175.22056028077873,195.98574389153134L174.73190682070094,196.06209599466854L174.3654167256425,196.09263683592337L174.12108999560337,196.07736641529596L161.56880423985262,196.07736641529596L161.56880423985262,197.32954090674548L170.4867298862739,197.32954090674548L170.50200030690144,201.54417699991734L170.5325411481565,202.0939121425049L170.4561890450193,202.61310644383764L170.28821441811738,203.08648948328823L170.02861726745118,203.52933168148377L169.6468567517652,203.91109219716964L169.17347371231494,204.27758229222786L168.59319772847243,204.58299070477653L167.9212992208652,204.84258785544307L167.14250776886615,205.07164416485455L166.25682337247486,205.2701596330112L165.27951645231929,205.40759341865805L164.19531658777146,205.5144863630502L163.0194941994589,205.57556804555986L161.73677886675455,205.5908384661874L159.79743544707048,205.5297567836776L158.16350043993475,205.31597089489344L156.78916258346612,205.01056248234488L155.67442187766324,204.628801966659L154.7734670606444,204.17068934783595L154.0862981324101,203.66676546713063L153.56710383107725,203.1475711657979L153.18534331539126,202.62837686446517L152.9410165853526,202.12445298375985L152.7883123790782,201.6663403649368L152.72723069656854,201.28457984925092L152.69668985531348,200.97917143670225L152.711960275941,200.7806559685456L152.711960275941,192.62625135349595L152.7883123790782,191.64894443334015L152.98682784723474,190.82434171945863L153.30750668041105,190.12190237059679L153.7045376167241,189.54162638675427L154.1626502355473,189.0529729266765L154.6665741162526,188.68648283161804L155.20103883821298,188.38107441906936L155.7355035601729,188.16728853028508L156.23942744087822,188.0145843240109L156.6975400597014,187.9229618002463L157.09457099601445,187.86188011773652L157.41524982919077,187.83133927648169L157.6137652973473,187.81606885585427L166.53169094376858,187.81606885585427L167.5853499670618,187.73971675271707L168.48630478408018,187.525930863933L169.24982581545214,187.20525203075692L169.8759130611768,186.7776802531887L170.3798369418821,186.2890267931108L170.7921382988227,185.75456207115064L171.09754671137148,185.20482692856308L171.32660302078307,184.6550917859754L171.47930722705746,184.12062706401525L171.58620017144926,183.63197360393735L171.64728185395893,183.20440182636912L171.677822695214,182.88372299319303L171.677822695214,178.21097428119833L174.8693406063478,178.21097428119833L175.08312649513186,178.22624470182575ZM165.52384318235795,200.0324053578014L165.17262350792703,200.5363292385066L165.0504601429077,201.16241648423147L165.17262350792703,201.78850372995623L165.52384318235795,202.29242761066143L166.02776706306327,202.64364728509258L166.65385430878837,202.76581065011203L167.27994155451302,202.64364728509258L167.78386543521833,202.29242761066143L168.13508510964925,201.78850372995623L168.2572484746686,201.16241648423147L168.13508510964925,200.5363292385066L167.78386543521833,200.0324053578014L167.27994155451302,199.68118568337036L166.65385430878837,199.5590223183509L166.02776706306327,199.68118568337036Z" style="fill: rgb(194, 194, 194);"/></g></g><g id="shape-b54564d0-132e-11ec-8bc5-e98ba5337ee1"><g><path d="M1510 755 l0 -375 40 0 40 0 0 196 0 196 33 33 c58 58 149 58 191 2
19 -26 21 -44 24 -228 l4 -199 40 0 40 0 -4 207 c-4 232 -12 267 -72 304 -62
38 -173 21 -233 -34 l-23 -20 0 146 0 147 -40 0 -40 0 0 -375z M90 736 l0
-356 40 0 40 0 0 139 0 139 133 4 c114 3 138 6 180 26 112 56 140 220 54 319
-55 62 -97 74 -283 81 l-164 5 0 -357z m346 260 c44 -26 64 -65 64 -126 0
-114 -39 -140 -210 -140 l-120 0 0 146 0 146 118 -4 c92 -3 124 -7 148 -22z
M1220 975 l0 -65 -45 0 c-43 0 -45 -1 -45 -30 0 -29 2 -30 45 -30 l45 0 0
-177 c0 -98 5 -195 10 -215 15 -54 51 -78 116 -78 53 0 54 0 54 30 0 26 -4 30
-28 30 -16 0 -37 6 -48 14 -18 13 -19 28 -19 203 l0 188 48 3 c45 3 47 5 47
33 0 28 -1 29 -50 29 l-50 0 0 65 0 65 -40 0 -40 0 0 -65z M660 902 c0 -4 41
-120 91 -258 l90 -249 -15 -51 c-21 -65 -51 -94 -104 -97 -40 -2 -42 -3 -42
-34 0 -32 1 -33 46 -33 65 0 107 29 138 93 20 42 226 620 226 634 0 2 -19 3
-42 1 l-42 -3 -56 -180 c-31 -99 -60 -189 -64 -200 -6 -15 -25 29 -75 180
l-68 200 -41 3 c-23 2 -42 -1 -42 -6z M2185 894 c-45 -24 -84 -64 -108 -109
-18 -33 -22 -57 -22 -140 0 -108 11 -141 64 -198 47 -52 95 -69 177 -65 95 4
145 37 189 123 26 51 30 69 30 140 0 71 -4 89 -30 140 -20 40 -45 69 -73 90
-38 26 -53 30 -120 33 -56 2 -85 -2 -107 -14z m172 -64 c52 -31 77 -91 77
-185 1 -138 -58 -211 -162 -203 -94 8 -142 78 -142 207 0 90 39 168 95 191 36
15 99 11 132 -10z M2630 645 l0 -265 40 0 40 0 0 196 0 196 33 33 c58 58 149
58 191 2 19 -26 21 -44 24 -228 l4 -199 40 0 40 0 -4 208 c-4 231 -12 266 -72
303 -62 38 -173 21 -233 -34 l-23 -20 0 36 c0 36 -1 37 -40 37 l-40 0 0 -265z" transform="translate(54, 171) scale(0.25, 0.25) translate(0.000000,128.000000) scale(0.100000,-0.100000)" fill="#c2c2c2" stroke="none"/></g></g></g></g><g id="shape-7056a540-132f-11ec-8bc5-e98ba5337ee1"><g id="shape-5b135620-132e-11ec-8bc5-e98ba5337ee1"><rect rx="5" ry="5" x="272" y="141" transform="matrix(1.000000015955242,8.698226974846327e-8,0.000003699813750535074,0.9999999800002589,-0.0006198970144737359,-0.000027906677814826253)" width="174" height="50" style="fill: rgb(25, 25, 25); fill-opacity: 1;"/></g><g id="shape-64e124b0-132f-11ec-8bc5-e98ba5337ee1"><g id="shape-5400b430-1262-11ec-a24a-8550932f84af" style="fill: rgb(255, 255, 255); fill-opacity: 1;"><g id="shape-5401c5a0-1262-11ec-a24a-8550932f84af"><path d="M439.98671638344535,175.94606728569943C438.88288863340836,176.3635622607083,437.6410747431398,175.89173851348232,437.09297167454656,174.84659700052418L431.8246765580823,167.5610793191754L431.0611555267103,166.54254226332574L424.9484061495484,174.85575925290067C424.43343203227346,175.856714726541,423.25528430770987,176.31960517548146,422.19667635248493,175.93690503332294L430.07315931211565,165.36977395913874L422.74641149507283,155.82423402492975C423.83234437842134,155.4328982242008,425.043839472238,155.8575591360335,425.64779141428494,156.84124403871692L431.10849383065556,164.21685720176748L436.5997370882808,156.8717848799717C437.1190165318269,155.88803523422177,438.29298486760104,155.44943856291474,439.33008829646565,155.8517207820591L436.48673597563743,159.62504171909808L432.63553589339904,164.6383208110846C432.41921666619623,164.83128287855783,432.2955189286629,165.10738424681767,432.2955189286629,165.3972607162682C432.2955189286629,165.68713718571843,432.41921666619623,165.96323855397839,432.63553589339904,166.15620062145166L439.9714459628183,175.94759432776226ZM403.34076096172953,165.23844834174287L403.9821186280817,162.06983606155018C405.7443251684879,155.80438247811412,412.9275310316327,153.19772167701115,417.86903914667005,157.0764085163794C420.76278385556884,159.3501741478043,421.48507475124666,162.56917881606728,421.34305983941135,166.1974307571457L405.0418858196256,166.1974307571457C404.77770754277094,172.6766702293658,409.4535103388914,176.58895199411444,415.43188001453177,174.5900539339833C417.40047914139154,173.88144239927544,418.8816583984528,172.23160833912556,419.37470262053534,170.19828096153333C419.6908003275232,169.18127094774633,420.2115216709187,169.00718815259347,421.1674500021961,169.30038022864022C420.8447090693546,171.81378573279886,419.3877412935383,174.0405997493716,417.21393810175346,175.34288567091585C413.5784505803565,177.3314635969619,409.07643724378363,176.7565418281386,406.05736879135,173.9181554263762C404.6021423980503,172.2802318120622,403.7226378327748,170.21125095057857,403.5530198084509,168.0268271483123C403.5530198084509,167.66797226356766,403.4308564434316,167.33202300976393,403.3483961720433,167.00981713452512C403.3409625773604,166.4198996095791,403.3373994025285,165.82993966240832,403.3377068776042,165.239975383807ZM405.06173736644155,164.80171431179826L419.8038014401661,164.80171431179826C419.7121789164014,160.1045329267995,416.7481902726165,156.77252714589343,412.79467837217385,156.74198630463866C408.39374314734755,156.68090462212882,405.24498241397055,159.93961238402318,405.051048072002,164.78033572291986Z" style="fill: rgb(194, 194, 194);"/></g></g><g id="shape-8c72f450-132e-11ec-8bc5-e98ba5337ee1"><g><path d="M3836 1084 c-33 -32 -13 -74 36 -74 38 0 55 33 33 66 -18 28 -46 31
-69 8z M80 735 l0 -355 220 0 220 0 0 35 0 35 -175 0 -175 0 0 130 0 130 150
0 150 0 0 35 0 35 -150 0 -150 0 0 120 0 120 175 0 175 0 0 35 0 35 -220 0
-220 0 0 -355z M596 898 c4 -7 43 -66 87 -132 l79 -118 -86 -129 c-47 -71 -86
-131 -86 -134 0 -3 19 -5 43 -5 l42 1 60 99 c33 55 63 100 67 100 3 0 34 -45
68 -100 l62 -100 44 0 44 0 -81 122 c-45 67 -84 129 -86 139 -3 10 28 66 76
138 45 66 81 123 81 126 0 3 -19 5 -43 5 l-42 0 -60 -100 c-33 -55 -62 -100
-65 -100 -3 0 -31 45 -64 100 l-58 100 -45 0 c-33 0 -42 -3 -37 -12z M1110
545 l0 -365 40 0 40 0 0 131 0 131 30 -26 c36 -30 82 -40 149 -34 62 6 100 34
137 100 27 50 29 60 29 163 0 95 -3 116 -24 158 -31 63 -79 99 -141 105 -67 6
-114 -4 -149 -33 -37 -32 -41 -31 -41 5 0 28 -3 30 -35 30 l-35 0 0 -365z
m270 287 c55 -30 75 -80 75 -192 0 -108 -15 -148 -68 -181 -48 -30 -127 -22
-167 16 l-30 29 0 141 c0 134 1 143 23 163 47 44 111 53 167 24z M1670 645 l0
-265 40 0 40 0 0 198 c0 193 1 199 23 220 27 26 69 42 108 42 27 0 29 3 29 35
0 35 0 35 -46 35 -39 0 -51 -5 -80 -34 -34 -34 -44 -31 -44 15 0 15 -7 19 -35
19 l-35 0 0 -265z M2104 896 c-137 -60 -188 -301 -91 -428 47 -60 105 -88 186
-88 74 0 132 22 170 63 l24 26 -23 19 c-23 19 -24 19 -44 0 -40 -38 -77 -50
-133 -46 -82 7 -132 54 -147 141 l-7 37 182 0 182 0 -5 69 c-10 142 -83 221
-202 221 -34 -1 -75 -7 -92 -14z m147 -62 c32 -16 68 -81 69 -121 0 -23 -2
-23 -135 -23 -149 0 -150 0 -124 67 30 81 116 116 190 77z M2588 890 c-73 -39
-103 -110 -73 -173 19 -42 85 -79 169 -98 87 -19 120 -45 124 -97 3 -38 0 -43
-30 -62 -40 -24 -116 -27 -159 -4 -17 8 -37 30 -45 50 -13 30 -18 34 -53 34
l-40 0 10 -32 c23 -83 95 -128 202 -128 121 0 197 55 197 143 0 82 -56 127
-203 163 -104 26 -135 78 -78 135 40 40 115 42 160 4 16 -14 33 -35 36 -45 5
-16 15 -20 47 -20 39 0 40 1 33 27 -11 44 -45 84 -89 104 -56 25 -158 25 -208
-1z M3108 890 c-73 -39 -103 -110 -73 -173 19 -42 85 -79 169 -98 87 -19 120
-45 124 -97 3 -38 0 -43 -30 -62 -40 -24 -116 -27 -159 -4 -17 8 -37 30 -45
50 -13 30 -18 34 -53 34 l-40 0 10 -32 c23 -83 95 -128 202 -128 121 0 197 55
197 143 0 82 -56 127 -203 163 -104 26 -135 78 -78 135 40 40 115 42 160 4 16
-14 33 -35 36 -45 5 -16 15 -20 47 -20 39 0 40 1 33 27 -11 44 -45 84 -89 104
-56 25 -158 25 -208 -1z M3830 595 c0 -302 -1 -316 -20 -335 -11 -11 -33 -20
-50 -20 -27 0 -30 -3 -30 -30 0 -29 2 -30 45 -30 64 0 99 21 119 70 14 34 16
88 16 350 l0 310 -40 0 -40 0 0 -315z M4148 890 c-73 -39 -103 -110 -73 -173
19 -42 85 -79 169 -98 87 -19 120 -45 124 -97 3 -38 0 -43 -30 -62 -40 -24
-116 -27 -159 -4 -17 8 -37 30 -45 50 -13 30 -18 34 -53 34 l-40 0 10 -32 c23
-83 95 -128 202 -128 121 0 197 55 197 143 0 82 -56 127 -203 163 -104 26
-135 78 -78 135 40 40 115 42 160 4 16 -14 33 -35 36 -45 5 -16 15 -20 47 -20
39 0 40 1 33 27 -11 44 -45 84 -89 104 -56 25 -158 25 -208 -1z M3562 458
c-16 -16 -15 -53 2 -67 20 -17 67 -10 79 11 18 27 -7 68 -41 68 -15 0 -33 -5
-40 -12z" transform="translate(278, 150) scale(0.25, 0.25) translate(0.000000,128.000000) scale(0.100000,-0.100000)" fill="#c2c2c2" stroke="none"/></g></g></g></g></g></g></svg>