<svg xmlns:xlink="http://www.w3.org/1999/xlink" width="300.0000100880029" xmlns="http://www.w3.org/2000/svg" id="screenshot" version="1.1" viewBox="-0.5000055201294344 -0.000010747036895963902 300.0000100880029 212.3245222456667" height="212.3245222456667" style="-webkit-print-color-adjust: exact;"><g id="shape-7db562c0-1330-11ec-8bc5-e98ba5337ee1"><g id="shape-40a6f670-132e-11ec-8bc5-e98ba5337ee1"><g id="shape-c4292040-1261-11ec-a24a-8550932f84af"><path d="M194.5,89.67531647489335L194.5,189" style="fill: none; stroke-width: 4; stroke: rgb(25, 25, 25); stroke-opacity: 1;"/></g><g id="shape-ba8838a0-1261-11ec-a24a-8550932f84af"><g id="shape-b113b830-1261-11ec-a24a-8550932f84af"><rect rx="5" ry="5" x="0" y="0" transform="matrix(1.0000000000000002,1.7453292519943278e-8,-1.7453292519943285e-8,0.9999999999999988,8.726646001377958e-7,-0.000002617993814624242)" width="300" height="100" style="fill: rgb(25, 25, 25); fill-opacity: 1;"/></g><g id="shape-b113b831-1261-11ec-a24a-8550932f84af"><g><path d="M4240 1350 l0 -750 80 0 80 0 0 43 c0 23 3 52 6 64 6 20 8 19 46 -19
22 -22 65 -52 97 -67 50 -23 68 -26 171 -26 109 0 118 2 168 30 105 57 185
172 218 312 25 101 22 305 -5 406 -37 141 -108 239 -212 294 -50 26 -62 28
-169 28 -105 0 -120 -2 -171 -28 -31 -15 -72 -43 -90 -62 -19 -19 -37 -35 -41
-35 -5 0 -8 126 -8 280 l0 280 -85 0 -85 0 0 -750z m524 169 c54 -15 119 -78
150 -148 42 -95 52 -295 20 -426 -23 -95 -100 -185 -176 -206 -59 -16 -164 -7
-213 19 -22 11 -54 35 -71 54 -66 71 -64 60 -64 319 l0 236 31 46 c30 46 76
82 134 104 38 15 139 16 189 2z M150 1310 l0 -713 248 6 c313 7 402 28 535
128 150 113 223 279 234 529 16 395 -141 651 -452 735 -44 12 -125 18 -312 22
l-253 6 0 -713z m573 531 c117 -46 195 -133 238 -263 22 -67 24 -90 24 -268 0
-206 -6 -242 -57 -344 -30 -59 -107 -135 -168 -166 -78 -39 -142 -50 -295 -50
l-135 0 0 561 0 561 168 -4 c144 -4 175 -8 225 -27z M2590 1790 l0 -130 -100
0 -100 0 0 -65 0 -64 98 -3 97 -3 5 -385 c5 -416 7 -428 63 -489 49 -53 167
-76 276 -55 l31 6 0 68 0 68 -44 -5 c-73 -9 -114 4 -136 40 -19 30 -20 53 -20
395 l0 362 95 0 95 0 0 65 0 65 -95 0 -95 0 0 130 0 130 -85 0 -85 0 0 -130z
M1717 1660 c-133 -34 -255 -147 -281 -262 l-6 -28 90 0 c87 0 90 1 90 23 0 53
71 118 152 137 106 26 219 -6 266 -73 23 -34 42 -114 42 -177 l0 -37 -152 -7
c-84 -4 -181 -13 -216 -21 -124 -29 -215 -93 -259 -183 -24 -48 -28 -69 -27
-137 0 -96 27 -159 94 -219 65 -59 120 -79 227 -84 116 -5 184 14 269 78 l61
47 12 -59 12 -58 89 0 c50 0 90 3 90 8 -1 4 -7 34 -15 67 -11 45 -15 133 -15
361 0 172 -5 326 -11 360 -21 115 -82 194 -189 242 -47 22 -71 26 -170 29 -63
1 -132 -2 -153 -7z m353 -654 c0 -114 0 -115 -33 -158 -22 -29 -55 -54 -101
-78 -61 -31 -77 -35 -145 -35 -134 1 -206 63 -206 180 0 145 103 200 383 204
l102 1 0 -114z M3437 1660 c-133 -34 -255 -147 -281 -262 l-6 -28 90 0 c87 0
90 1 90 23 0 53 71 118 152 137 106 26 219 -6 266 -73 23 -34 42 -114 42 -177
l0 -37 -152 -7 c-84 -4 -181 -13 -216 -21 -124 -29 -215 -93 -259 -183 -24
-48 -28 -69 -27 -137 0 -96 27 -159 94 -219 65 -59 120 -79 227 -84 116 -5
184 14 269 78 l61 47 12 -59 12 -58 89 0 c50 0 90 3 90 8 -1 4 -7 34 -15 67
-11 45 -15 133 -15 361 0 172 -5 326 -11 360 -21 115 -82 194 -189 242 -47 22
-71 26 -170 29 -63 1 -132 -2 -153 -7z m353 -654 c0 -114 0 -115 -33 -158 -22
-29 -55 -54 -101 -78 -61 -31 -77 -35 -145 -35 -134 1 -206 63 -206 180 0 145
103 200 383 204 l102 1 0 -114z M5637 1660 c-133 -34 -255 -147 -281 -262 l-6
-28 90 0 c87 0 90 1 90 23 0 53 71 118 152 137 106 26 219 -6 266 -73 23 -34
42 -114 42 -177 l0 -37 -152 -7 c-84 -4 -181 -13 -216 -21 -124 -29 -215 -93
-259 -183 -24 -48 -28 -69 -27 -137 0 -96 27 -159 94 -219 65 -59 120 -79 227
-84 116 -5 184 14 269 78 l61 47 12 -59 12 -58 89 0 c50 0 90 3 90 8 -1 4 -7
34 -15 67 -11 45 -15 133 -15 361 0 172 -5 326 -11 360 -21 115 -82 194 -189
242 -47 22 -71 26 -170 29 -63 1 -132 -2 -153 -7z m353 -654 c0 -114 0 -115
-33 -158 -22 -29 -55 -54 -101 -78 -61 -31 -77 -35 -145 -35 -134 1 -206 63
-206 180 0 145 103 200 383 204 l102 1 0 -114z M6665 1650 c-158 -53 -253
-193 -224 -330 27 -127 112 -185 368 -250 197 -51 245 -87 246 -186 0 -66 -23
-100 -91 -134 -68 -35 -205 -35 -277 -1 -58 29 -94 70 -109 127 l-12 44 -84 0
-85 0 6 -40 c17 -130 141 -248 297 -281 29 -6 100 -9 159 -7 133 6 199 30 275
99 67 61 91 117 90 209 -2 154 -96 231 -372 304 -203 55 -245 84 -245 171 0
95 79 158 202 159 119 1 207 -53 231 -144 l11 -40 85 0 86 0 -7 43 c-18 104
-88 190 -195 241 -58 27 -76 30 -180 33 -94 3 -126 -1 -175 -17z M7749 1647
c-119 -50 -195 -120 -249 -230 -51 -105 -63 -173 -58 -326 4 -113 9 -147 30
-202 50 -134 158 -240 285 -279 120 -37 287 -24 392 30 44 22 151 120 151 138
0 5 -21 26 -47 46 l-46 36 -49 -46 c-58 -54 -113 -80 -189 -89 -117 -14 -229
33 -291 123 -36 53 -68 147 -68 203 l0 39 355 0 355 0 0 83 c-1 224 -89 393
-243 463 -53 24 -77 29 -167 31 -92 3 -112 1 -161 -20z m259 -136 c76 -39 129
-125 139 -227 l6 -54 -272 0 -271 0 6 28 c18 78 26 102 56 152 34 57 111 114
167 123 46 9 131 -3 169 -22z M8745 1650 c-158 -53 -253 -193 -224 -330 27
-127 112 -185 368 -250 197 -51 245 -87 246 -186 0 -66 -23 -100 -91 -134 -68
-35 -205 -35 -277 -1 -58 29 -94 70 -109 127 l-12 44 -84 0 -85 0 6 -40 c17
-130 141 -248 297 -281 29 -6 100 -9 159 -7 133 6 199 30 275 99 67 61 91 117
90 209 -2 154 -96 231 -372 304 -203 55 -245 84 -245 171 0 95 79 158 202 159
119 1 207 -53 231 -144 l11 -40 85 0 86 0 -7 43 c-18 104 -88 190 -195 241
-58 27 -76 30 -180 33 -94 3 -126 -1 -175 -17z" transform="translate(31, 19) scale(0.2510593220338983, 0.25) translate(0.000000,248.000000) scale(0.100000,-0.100000)" fill="#ffffff" stroke="none"/></g></g></g></g><g id="shape-df1c0970-132f-11ec-8bc5-e98ba5337ee1"><g id="shape-4ab50250-132f-11ec-8bc5-e98ba5337ee1"><rect rx="5" ry="5" x="119" y="162" transform="matrix(1.0000000180242072,8.698226992842637e-8,0.0000036998137505350744,0.9999999800002589,-0.0006953618675424877,-0.000013134608792597646)" width="150" height="50" style="fill: rgb(25, 25, 25); fill-opacity: 1;"/></g><g id="shape-da54e470-132f-11ec-8bc5-e98ba5337ee1"><g id="shape-60e4dff0-1262-11ec-a24a-8550932f84af" style="fill: rgb(255, 255, 255); fill-opacity: 1;"><g id="shape-60e5ca50-1262-11ec-a24a-8550932f84af"><path d="M262.2162323318312,183.59088759019153C260.28605116452354,175.06999288008342,255.72324948104642,172.269397737012,255.23306897890598,171.19894125102894C254.8054972013374,170.59728667830802,254.42373668565187,169.74214312317167,254.11069306278932,169.00000068067845C254.05571954853076,169.75588650173654,254.02670574933836,170.0460244936578,253.31205006397477,170.80801848296665C252.20799865261097,171.6723242904793,246.5350373895194,176.43058735798786,246.0738706865709,186.10897995165544C245.64324482487746,195.1368526265943,252.5943402944854,200.5166218136394,253.53805228926058,201.20226369981106L253.64494523365283,201.27861580294825C253.84146123970913,202.7319811826584,254.00946814083454,204.1890592160563,254.14886911435815,205.64901018651994L254.88337634653772,205.64901018651983C255.0574591416903,204.07310277776867,255.31705629235648,202.50941170551948,255.66216779853676,200.96099105389771C256.2989443387005,200.50898660332564,256.58450120443376,200.25397057884743,256.96015355186864,199.9027509044165C260.5576566577456,196.5746893172253,262.57680640327317,191.87832123639396,262.517059618192,186.97786688535643C262.53233003881905,185.73485464628334,262.35977428572915,184.439922977077,262.2162323318312,183.59088759019153ZZM254.0679358850325,196.10499729437367C254.0679358850325,196.10499729437367,254.0679358850325,183.44429155216812,254.48787245228687,183.4458185942308C254.81313241165162,183.4458185942308,255.2361230630313,199.7775334552714,255.2361230630313,199.7775334552714C254.65432003712613,199.70881656244808,254.0679358850325,197.08993942484312,254.0679358850325,196.10499729437367ZZ"/></g></g><g id="shape-c2000f90-132e-11ec-8bc5-e98ba5337ee1"><g><path d="M70 725 l0 -355 41 0 42 0 -5 289 c-2 160 -2 288 1 286 4 -2 58 -132
121 -289 l115 -286 30 0 31 0 113 283 c63 155 118 286 122 291 5 5 6 -122 2
-282 l-6 -292 46 0 47 0 0 355 0 355 -58 0 -58 0 -115 -286 c-63 -158 -118
-285 -124 -284 -5 1 -61 130 -124 286 l-113 284 -54 0 -54 0 0 -355z M3190
725 l0 -358 128 6 c198 9 282 52 341 177 23 50 26 67 26 175 0 108 -3 125 -26
175 -32 69 -79 116 -146 147 -43 20 -73 25 -187 30 l-136 6 0 -358z m312 252
c68 -40 100 -106 106 -222 11 -216 -73 -315 -270 -315 l-68 0 0 286 0 287 94
-5 c78 -4 102 -10 138 -31z M3830 724 l0 -357 156 5 c146 5 159 7 211 34 44
22 62 39 80 73 45 87 19 198 -58 244 l-40 24 36 27 c45 34 65 74 65 126 0 57
-26 107 -70 136 -43 28 -138 43 -282 44 l-98 0 0 -356z m293 275 c66 -18 95
-94 62 -159 -25 -48 -61 -60 -175 -60 l-100 0 0 115 0 115 88 0 c48 0 104 -5
125 -11z m27 -307 c63 -31 87 -123 49 -193 -20 -39 -85 -59 -191 -59 l-98 0 0
135 0 135 103 0 c77 0 111 -4 137 -18z M1042 879 c-177 -88 -175 -409 2 -490
54 -24 148 -24 202 0 178 81 178 411 0 492 -57 26 -149 25 -204 -2z m178 -62
c49 -33 72 -78 78 -155 6 -86 -11 -144 -53 -190 -32 -36 -36 -37 -100 -37 -64
0 -68 1 -100 37 -19 20 -39 56 -46 80 -15 56 -6 156 17 205 39 79 135 107 204
60z M1490 635 l0 -265 40 0 40 0 0 185 c0 200 5 227 53 258 36 23 91 31 132
17 58 -19 65 -47 65 -270 l0 -190 41 0 40 0 -3 213 c-3 181 -6 217 -21 245
-27 49 -71 72 -140 72 -61 0 -100 -14 -131 -49 -27 -30 -36 -26 -36 14 0 34
-1 35 -40 35 l-40 0 0 -265z M2145 881 c-75 -46 -109 -122 -110 -246 0 -79 3
-97 29 -148 40 -84 90 -117 171 -117 51 0 69 5 108 30 l47 30 0 -43 c-1 -64
-32 -125 -74 -142 -66 -28 -144 -15 -198 33 -16 14 -20 13 -38 -3 -20 -18 -20
-18 6 -47 41 -42 101 -61 182 -56 84 4 140 37 174 101 22 40 23 53 26 335 l3
293 -38 -3 c-33 -3 -38 -7 -41 -30 -3 -25 -22 -41 -22 -20 0 5 -17 18 -39 30
-50 29 -143 30 -186 3z m169 -55 c66 -27 76 -54 76 -192 0 -117 -1 -124 -26
-153 -50 -60 -147 -66 -198 -12 -68 71 -73 246 -8 322 41 50 93 61 156 35z
M2722 879 c-177 -88 -175 -409 2 -490 54 -24 148 -24 202 0 80 36 134 135 134
246 0 111 -54 210 -134 246 -57 26 -149 25 -204 -2z m178 -62 c49 -33 72 -78
78 -155 6 -86 -11 -144 -53 -190 -32 -36 -36 -37 -100 -37 -64 0 -68 1 -100
37 -19 20 -39 56 -46 80 -15 56 -6 156 17 205 39 79 135 107 204 60z" transform="translate(126, 171) scale(0.25227272727272726, 0.25) translate(0.000000,128.000000) scale(0.100000,-0.100000)" fill="#ffffff" stroke="none"/></g></g></g></g></g></svg>