<svg xmlns:xlink="http://www.w3.org/1999/xlink" width="488.2587119466625" xmlns="http://www.w3.org/2000/svg" id="screenshot" version="1.1" viewBox="0 0 488.2587119466625 266.3347734764761" height="266.3347734764761" style="-webkit-print-color-adjust: exact;"><g id="shape-70291e70-1886-11ec-993a-293f9893854e"><g id="shape-23cc7950-1886-11ec-993a-293f9893854e"><rect rx="0" ry="0" x="-0.049326509443744726" y="0.3762678872446372" transform="matrix(1.000000001938854,5.148934621792615e-18,5.148934622540086e-18,1.0000000017890114,-4.729847375983809e-7,-2.3861164777372323e-7)" width="488" height="266" style="fill: rgb(177, 178, 181); fill-opacity: 0;"/></g><g id="shape-7db562c0-1330-11ec-8bc5-e98ba5337ee1"><g id="shape-40a6f670-132e-11ec-8bc5-e98ba5337ee1"><g id="shape-c4292040-1261-11ec-a24a-8550932f84af"><path d="M289.12935644945946,91.68045545532885L289.12935644945946,231.00513898043556" style="fill: none; stroke-width: 4; stroke: rgb(25, 25, 25); stroke-opacity: 1;"/></g><g id="shape-ba8838a0-1261-11ec-a24a-8550932f84af"><g id="shape-b113b830-1261-11ec-a24a-8550932f84af"><rect rx="5" ry="5" x="93.95067349055626" y="2.3762678872446372" transform="matrix(1,3.3087224502121107e-23,5.293955920339377e-23,1,0,0)" width="300" height="100" style="fill: rgb(25, 25, 25); fill-opacity: 1;"/></g><g id="shape-b113b831-1261-11ec-a24a-8550932f84af"><g><path d="M4250 1350 l0 -750 79 0 79 0 7 66 7 65 49 -46 c80 -75 124 -90 259
-90 107 0 119 2 169 28 101 54 180 161 217 297 25 91 25 329 0 419 -39 142
-119 251 -221 301 -44 22 -63 25 -165 25 -133 0 -178 -15 -253 -84 -24 -23
-47 -41 -51 -41 -3 0 -6 126 -6 280 l0 280 -85 0 -85 0 0 -750z m572 147 c55
-32 93 -86 120 -169 29 -86 31 -294 4 -383 -47 -159 -145 -228 -301 -212 -88
9 -154 53 -204 137 -20 33 -21 49 -21 258 0 245 2 255 64 320 58 63 113 83
217 78 61 -2 85 -8 121 -29z M160 1310 l0 -713 248 6 c205 4 260 9 325 26 172
45 302 149 375 301 60 126 75 215 70 419 -4 135 -9 179 -28 236 -55 173 -155
294 -300 363 -47 22 -110 46 -140 52 -30 7 -166 14 -302 17 l-248 6 0 -713z
m530 544 c81 -19 133 -49 191 -111 95 -101 124 -204 123 -433 0 -233 -33 -340
-133 -440 -93 -93 -180 -120 -388 -120 l-143 0 0 560 0 560 143 0 c92 0 165
-6 207 -16z M2600 1790 l0 -130 -95 0 -95 0 0 -65 0 -65 94 0 95 0 3 -387 3
-388 26 -50 c38 -74 92 -108 179 -113 39 -2 90 -1 115 2 l45 7 0 68 0 68 -55
-5 c-33 -3 -68 1 -86 8 -57 24 -59 41 -59 435 l0 355 100 0 100 0 0 65 0 65
-100 0 -100 0 0 130 0 130 -85 0 -85 0 0 -130z M1708 1651 c-71 -23 -147 -71
-189 -119 -36 -41 -68 -107 -69 -139 0 -22 3 -23 84 -23 l84 0 5 29 c28 136
284 190 397 82 44 -42 60 -89 60 -177 l0 -61 -146 -7 c-233 -11 -319 -35 -408
-117 -68 -62 -96 -128 -96 -228 0 -130 76 -232 208 -281 47 -18 74 -21 152
-18 109 4 178 29 248 93 l41 37 7 -29 c3 -15 9 -41 13 -58 l7 -30 92 -3 c51
-1 92 -1 92 0 0 2 -8 26 -17 53 -13 41 -17 113 -22 410 -6 351 -7 361 -30 413
-34 75 -111 143 -195 170 -86 29 -234 30 -318 3z m372 -651 l0 -120 -41 -45
c-100 -109 -275 -136 -378 -58 -41 32 -61 77 -61 143 0 139 107 195 378 199
l102 1 0 -120z M3430 1652 c-78 -26 -116 -48 -167 -95 -49 -45 -93 -122 -93
-162 0 -25 1 -25 84 -25 l84 0 6 33 c7 37 52 85 106 113 26 14 57 19 120 19
72 0 92 -4 130 -25 63 -36 92 -92 98 -190 l4 -77 -156 -7 c-86 -4 -183 -14
-214 -22 -186 -48 -284 -158 -285 -319 -1 -123 54 -208 176 -273 48 -25 61
-27 167 -27 105 0 120 2 170 27 31 15 74 43 97 62 l41 36 13 -58 14 -57 92 -3
91 -3 -16 48 c-12 39 -17 119 -22 408 -5 308 -9 367 -24 407 -26 69 -86 132
-164 170 -62 31 -74 33 -182 35 -90 2 -127 -1 -170 -15z m370 -642 c0 -120 -7
-146 -57 -192 -71 -66 -186 -99 -277 -79 -96 21 -147 82 -147 174 0 64 11 94
47 129 58 55 144 74 332 77 l102 1 0 -110z M5630 1652 c-78 -26 -116 -48 -167
-95 -49 -45 -93 -122 -93 -162 0 -25 1 -25 84 -25 l84 0 6 33 c7 37 52 85 106
113 26 14 57 19 120 19 72 0 92 -4 130 -25 63 -36 92 -92 98 -190 l4 -77 -156
-7 c-86 -4 -183 -14 -214 -22 -186 -48 -284 -158 -285 -319 -1 -123 54 -208
176 -273 48 -25 61 -27 167 -27 105 0 120 2 170 27 31 15 74 43 97 62 l41 36
13 -58 14 -57 92 -3 91 -3 -16 48 c-12 39 -17 119 -22 408 -5 308 -9 367 -24
407 -26 69 -86 132 -164 170 -62 31 -74 33 -182 35 -90 2 -127 -1 -170 -15z
m370 -642 c0 -120 -7 -146 -57 -192 -71 -66 -186 -99 -277 -79 -96 21 -147 82
-147 174 0 64 11 94 47 129 58 55 144 74 332 77 l102 1 0 -110z M6695 1656
c-99 -32 -184 -97 -221 -168 -10 -18 -19 -65 -22 -103 -4 -62 -1 -78 22 -122
44 -88 128 -136 327 -188 208 -54 258 -87 266 -182 6 -63 -23 -109 -92 -143
-42 -21 -64 -25 -135 -25 -73 0 -93 4 -143 28 -62 31 -100 76 -112 135 l-7 32
-85 0 -85 0 7 -37 c26 -139 140 -248 296 -283 83 -18 250 -9 320 19 206 80
277 312 136 448 -66 64 -144 98 -338 147 -167 42 -209 74 -209 160 0 103 75
160 209 160 57 -1 86 -6 117 -22 54 -27 101 -83 110 -127 l6 -35 85 0 86 0 -7
46 c-8 59 -50 137 -95 176 -19 17 -65 45 -101 62 -59 28 -75 31 -180 33 -75 2
-129 -2 -155 -11z M7759 1647 c-119 -50 -195 -120 -249 -230 -51 -105 -63
-173 -58 -326 4 -113 9 -147 30 -202 50 -134 158 -240 285 -279 120 -37 287
-24 392 30 44 22 151 120 151 138 0 5 -21 26 -47 46 l-46 36 -49 -46 c-58 -54
-113 -80 -189 -89 -117 -14 -229 33 -291 123 -36 53 -68 147 -68 203 l0 39
355 0 355 0 0 83 c-1 224 -89 393 -243 463 -53 24 -77 29 -167 31 -92 3 -112
1 -161 -20z m259 -136 c76 -39 129 -125 139 -227 l6 -54 -272 0 -271 0 6 28
c18 78 26 102 56 152 34 57 111 114 167 123 46 9 131 -3 169 -22z M8755 1650
c-158 -53 -253 -193 -224 -330 27 -127 112 -185 368 -250 197 -51 245 -87 246
-186 0 -66 -23 -100 -91 -134 -68 -35 -205 -35 -277 -1 -58 29 -94 70 -109
127 l-12 44 -84 0 -85 0 6 -40 c17 -130 141 -248 297 -281 29 -6 100 -9 159
-7 133 6 199 30 275 99 67 61 91 117 90 209 -2 154 -96 231 -372 304 -203 55
-245 84 -245 171 0 95 79 158 202 159 119 1 207 -53 231 -144 l11 -40 85 0 86
0 -7 43 c-18 104 -88 190 -195 241 -58 27 -76 30 -180 33 -94 3 -126 -1 -175
-17z" transform="translate(125.95067349055626, 21.376267887244637) scale(0.25, 0.25) translate(0.000000,248.000000) scale(0.100000,-0.100000)" fill="#ffffff" stroke="none"/></g></g></g></g><g id="shape-df1c0970-132f-11ec-8bc5-e98ba5337ee1"><g id="shape-4ab50250-132f-11ec-8bc5-e98ba5337ee1"><rect rx="5" ry="5" x="213.95067349055626" y="214.37626788724464" transform="matrix(1.000000018024205,8.698226992842612e-8,0.0000036998137505350756,0.9999999800002596,-0.0008908557136919626,-0.00002034612225543242)" width="150" height="50" style="fill: rgb(25, 25, 25); fill-opacity: 1;"/></g><g id="shape-da54e470-132f-11ec-8bc5-e98ba5337ee1"><g id="shape-60e4dff0-1262-11ec-a24a-8550932f84af" style="fill: rgb(255, 255, 255); fill-opacity: 1;"><g id="shape-60e5ca50-1262-11ec-a24a-8550932f84af"><path d="M356.84558878129064,235.5960265706271C354.915407613983,227.07513186051898,350.3526059305059,224.27453671744757,349.86242542836544,223.2040802314645C349.43485365079687,222.60242565874358,349.05309313511134,221.74728210360723,348.7400495122488,221.00513966111401C348.6850759979902,221.7610254821721,348.6560621987978,222.05116347409336,347.94140651343423,222.8131574634022C346.83735510207043,223.67746327091487,341.16439383897887,228.43572633842342,340.70322713603036,238.114118932091C340.2726012743369,247.14199160702987,347.22369674394486,252.52176079407496,348.16740873872004,253.20740268024662L348.2743016831123,253.2837547833838C348.4708176891686,254.73712016309395,348.638824590294,256.19419819649187,348.7782255638176,257.6541491669555L349.5127327959972,257.6541491669554C349.68681559114975,256.07824175820423,349.94641274181595,254.51455068595504,350.2915242479962,252.96613003433328C350.92830078815996,252.5141255837612,351.2138576538932,252.259109559283,351.5895100013281,251.90788988485207C355.1870131072051,248.57982829766087,357.20616285273263,243.88346021682952,357.14641606765144,238.983005865792C357.1616864882785,237.7399936267189,356.9891307351886,236.44506195751256,356.84558878129064,235.5960265706271ZZM348.697292334492,248.11013627480924C348.697292334492,248.11013627480924,348.697292334492,235.44943053260369,349.11722890174633,235.45095757466635C349.4424888611111,235.45095757466635,349.86547951249077,251.78267243570696,349.86547951249077,251.78267243570696C349.2836764865856,251.71395554288364,348.697292334492,249.09507840527868,348.697292334492,248.11013627480924ZZ"/></g></g><g id="shape-c2000f90-132e-11ec-8bc5-e98ba5337ee1"><g><path d="M80 725 l0 -355 40 0 41 0 -3 290 c-2 160 -1 290 2 290 3 0 57 -130
121 -288 114 -284 116 -287 146 -290 18 -2 33 2 36 10 67 170 222 547 228 558
6 9 7 -100 3 -277 l-7 -293 47 0 46 0 0 355 0 356 -57 -3 -56 -3 -116 -287
c-64 -158 -119 -288 -122 -288 -4 0 -59 129 -122 288 l-115 287 -56 3 -56 3 0
-356z M3200 725 l0 -358 128 6 c198 9 282 52 341 177 23 50 26 67 26 175 0
108 -3 125 -26 175 -32 69 -79 116 -146 147 -43 20 -73 25 -187 30 l-136 6 0
-358z m312 252 c68 -40 100 -106 106 -222 11 -216 -73 -315 -270 -315 l-68 0
0 286 0 287 94 -5 c78 -4 102 -10 138 -31z M3840 724 l0 -357 156 5 c146 5
159 7 211 34 44 22 62 39 80 73 45 87 19 198 -58 244 l-40 24 36 27 c45 34 65
74 65 126 0 57 -26 107 -70 136 -43 28 -138 43 -282 44 l-98 0 0 -356z m293
275 c66 -18 95 -94 62 -159 -25 -48 -61 -60 -175 -60 l-100 0 0 115 0 115 88
0 c48 0 104 -5 125 -11z m27 -307 c63 -31 87 -123 49 -193 -20 -39 -85 -59
-191 -59 l-98 0 0 135 0 135 103 0 c77 0 111 -4 137 -18z M1049 877 c-158 -83
-169 -374 -17 -475 33 -21 55 -27 113 -30 81 -4 129 13 176 65 53 57 64 90 64
198 0 108 -11 141 -64 198 -65 70 -185 90 -272 44z m197 -68 c95 -87 82 -314
-20 -363 -78 -37 -160 -8 -200 69 -16 31 -21 57 -20 120 1 94 25 154 77 186
45 28 127 22 163 -12z M1510 635 l0 -265 40 0 40 0 0 199 0 199 35 30 c55 49
125 54 176 13 24 -19 24 -22 27 -230 l3 -211 40 0 40 0 -3 213 c-3 235 -8 254
-67 294 -60 41 -178 27 -225 -26 -27 -30 -36 -26 -36 14 0 33 -2 35 -35 35
l-35 0 0 -265z M2161 883 c-41 -21 -87 -82 -102 -137 -17 -60 -14 -176 5 -234
22 -65 82 -129 131 -138 63 -11 131 1 170 30 l35 27 0 -48 c0 -101 -59 -157
-157 -150 -35 2 -65 12 -94 32 -41 26 -43 27 -56 9 -18 -25 -13 -34 36 -69 35
-24 54 -30 112 -33 118 -7 203 43 228 135 7 22 11 153 11 316 l0 277 -34 0
c-29 0 -34 -4 -40 -31 l-6 -30 -36 28 c-47 35 -149 44 -203 16z m148 -49 c18
-4 45 -20 62 -36 l29 -30 0 -133 0 -133 -30 -31 c-21 -20 -45 -32 -75 -37 -58
-8 -98 8 -133 54 -24 32 -27 45 -30 131 -3 84 0 102 20 141 15 29 35 51 58 62
38 20 52 21 99 12z M2729 877 c-158 -83 -169 -374 -17 -475 33 -21 55 -27 113
-30 81 -4 129 13 176 65 53 57 64 90 64 198 0 108 -11 141 -64 198 -65 70
-185 90 -272 44z m197 -68 c95 -87 82 -314 -20 -363 -78 -37 -160 -8 -200 69
-16 31 -21 57 -20 120 1 94 25 154 77 186 45 28 127 22 163 -12z" transform="translate(220.95067349055626, 223.37626788724464) scale(0.25, 0.25) translate(0.000000,128.000000) scale(0.100000,-0.100000)" fill="#ffffff" stroke="none"/></g></g></g></g></g></g></svg>