<svg xmlns:xlink="http://www.w3.org/1999/xlink" width="488.2587119466625" xmlns="http://www.w3.org/2000/svg" id="screenshot" version="1.1" viewBox="0.049326509443744726 -0.3762678872446372 488.2587119466625 266.3347734764761" height="266.3347734764761" style="-webkit-print-color-adjust: exact;"><g id="shape-70291e70-1886-11ec-993a-293f9893854e"><g id="shape-23cc7950-1886-11ec-993a-293f9893854e"><rect rx="0" ry="0" x="0" y="0" transform="matrix(1.0000000019388544,5.148934621792617e-18,5.148934622540086e-18,1.0000000017890114,-4.730804903374519e-7,-2.3793850800757355e-7)" width="488" height="266" style="fill: rgb(177, 178, 181); fill-opacity: 0;"/></g><g id="shape-7db562c0-1330-11ec-8bc5-e98ba5337ee1"><g id="shape-40a6f670-132e-11ec-8bc5-e98ba5337ee1"><g id="shape-c4292040-1261-11ec-a24a-8550932f84af"><path d="M287.1786829589032,91.30418756808422L287.1786829589032,230.62887109319092" style="fill: none; stroke-width: 4; stroke: rgb(25, 25, 25); stroke-opacity: 1;"/></g><g id="shape-ba8838a0-1261-11ec-a24a-8550932f84af"><g id="shape-b113b830-1261-11ec-a24a-8550932f84af"><rect rx="5" ry="5" x="92" y="2" transform="matrix(1,3.3087224502121107e-23,5.293955920339377e-23,1,0,0)" width="300" height="100" style="fill: rgb(25, 25, 25); fill-opacity: 1;"/></g><g id="shape-b113b831-1261-11ec-a24a-8550932f84af"><g><path d="M4250 1340 l0 -750 79 0 79 0 7 66 7 65 49 -46 c80 -75 124 -90 259
-90 107 0 119 2 169 28 101 54 180 161 217 297 25 91 25 329 0 419 -39 142
-119 251 -221 301 -44 22 -63 25 -165 25 -133 0 -178 -15 -253 -84 -24 -23
-47 -41 -51 -41 -3 0 -6 126 -6 280 l0 280 -85 0 -85 0 0 -750z m572 147 c55
-32 93 -86 120 -169 29 -86 31 -294 4 -383 -47 -159 -145 -228 -301 -212 -88
9 -154 53 -204 137 -20 33 -21 49 -21 258 0 245 2 255 64 320 58 63 113 83
217 78 61 -2 85 -8 121 -29z M160 1300 l0 -713 248 6 c205 4 260 9 325 26 172
45 302 149 375 301 60 126 75 215 70 419 -4 135 -9 179 -28 236 -55 173 -155
294 -300 363 -47 22 -110 46 -140 52 -30 7 -166 14 -302 17 l-248 6 0 -713z
m530 544 c81 -19 133 -49 191 -111 95 -101 124 -204 123 -433 0 -233 -33 -340
-133 -440 -93 -93 -180 -120 -388 -120 l-143 0 0 560 0 560 143 0 c92 0 165
-6 207 -16z M2600 1780 l0 -130 -95 0 -95 0 0 -65 0 -65 95 0 95 0 0 -358 c0
-382 5 -429 50 -495 42 -61 84 -82 172 -86 43 -2 94 0 113 3 l35 7 0 67 0 67
-70 0 c-63 0 -72 3 -97 28 l-28 27 -3 370 -3 370 101 0 100 0 0 65 0 65 -100
0 -100 0 0 130 0 130 -85 0 -85 0 0 -130z M1708 1641 c-71 -23 -147 -71 -189
-119 -36 -41 -68 -107 -69 -139 0 -22 3 -23 84 -23 l84 0 5 29 c28 136 284
190 397 82 44 -42 60 -89 60 -177 l0 -61 -146 -7 c-233 -11 -319 -35 -408
-117 -68 -62 -96 -128 -96 -228 0 -130 76 -232 208 -281 47 -18 74 -21 152
-18 109 4 178 29 248 93 l41 37 7 -29 c3 -15 9 -41 13 -58 l7 -30 92 -3 c51
-1 92 -1 92 0 0 2 -8 26 -17 53 -13 41 -17 113 -22 410 -6 351 -7 361 -30 413
-34 75 -111 143 -195 170 -86 29 -234 30 -318 3z m372 -651 l0 -120 -41 -45
c-100 -109 -275 -136 -378 -58 -41 32 -61 77 -61 143 0 139 107 195 378 199
l102 1 0 -120z M3428 1641 c-71 -23 -147 -71 -189 -119 -36 -41 -68 -107 -69
-139 0 -22 3 -23 84 -23 l84 0 5 29 c28 136 284 190 397 82 44 -42 60 -89 60
-177 l0 -61 -146 -7 c-233 -11 -319 -35 -408 -117 -68 -62 -96 -128 -96 -228
0 -130 76 -232 208 -281 47 -18 74 -21 152 -18 109 4 178 29 248 93 l41 37 7
-29 c3 -15 9 -41 13 -58 l7 -30 92 -3 c51 -1 92 -1 92 0 0 2 -8 26 -17 53 -13
41 -17 113 -22 410 -6 351 -7 361 -30 413 -34 75 -111 143 -195 170 -86 29
-234 30 -318 3z m372 -651 l0 -120 -41 -45 c-100 -109 -275 -136 -378 -58 -41
32 -61 77 -61 143 0 139 107 195 378 199 l102 1 0 -120z M5630 1642 c-78 -26
-116 -48 -167 -95 -49 -45 -93 -122 -93 -162 0 -25 1 -25 84 -25 l84 0 6 33
c7 37 52 85 106 113 26 14 57 19 120 19 72 0 92 -4 130 -25 63 -36 92 -92 98
-190 l4 -77 -156 -7 c-86 -4 -183 -14 -214 -22 -186 -48 -284 -158 -285 -319
-1 -123 54 -208 176 -273 48 -25 61 -27 167 -27 105 0 120 2 170 27 31 15 74
43 97 62 l41 36 13 -58 14 -57 92 -3 91 -3 -16 48 c-12 39 -17 119 -22 408 -5
308 -9 367 -24 407 -26 69 -86 132 -164 170 -62 31 -74 33 -182 35 -90 2 -127
-1 -170 -15z m370 -642 c0 -120 -7 -146 -57 -192 -71 -66 -186 -99 -277 -79
-96 21 -147 82 -147 174 0 64 11 94 47 129 58 55 144 74 332 77 l102 1 0 -110z
M6695 1646 c-99 -32 -184 -97 -221 -168 -10 -18 -19 -65 -22 -103 -4 -62 -1
-78 22 -122 44 -88 128 -136 327 -188 208 -54 258 -87 266 -182 6 -63 -23
-109 -92 -143 -42 -21 -64 -25 -135 -25 -73 0 -93 4 -143 28 -62 31 -100 76
-112 135 l-7 32 -85 0 -85 0 7 -37 c26 -139 140 -248 296 -283 83 -18 250 -9
320 19 206 80 277 312 136 448 -66 64 -144 98 -338 147 -167 42 -209 74 -209
160 0 103 75 160 209 160 57 -1 86 -6 117 -22 54 -27 101 -83 110 -127 l6 -35
85 0 86 0 -7 46 c-8 59 -50 137 -95 176 -19 17 -65 45 -101 62 -59 28 -75 31
-180 33 -75 2 -129 -2 -155 -11z M7773 1642 c-117 -42 -202 -120 -263 -241
-41 -83 -60 -173 -60 -296 0 -236 90 -398 269 -484 76 -36 76 -36 212 -36
l135 0 76 38 c53 26 91 54 127 93 l51 56 -51 40 -50 40 -50 -47 c-74 -69 -126
-89 -229 -89 -101 1 -142 16 -210 80 -57 54 -98 138 -106 223 l-7 61 357 0
356 0 0 93 c0 218 -84 379 -235 452 -52 25 -74 29 -165 32 -83 3 -116 0 -157
-15z m241 -136 c76 -32 134 -123 143 -227 l6 -59 -268 0 -268 0 7 46 c16 122
103 227 211 255 39 10 127 2 169 -15z M8755 1640 c-158 -53 -253 -193 -224
-330 27 -127 112 -185 368 -250 197 -51 245 -87 246 -186 0 -66 -23 -100 -91
-134 -68 -35 -205 -35 -277 -1 -58 29 -94 70 -109 127 l-12 44 -84 0 -85 0 6
-40 c17 -130 141 -248 297 -281 29 -6 100 -9 159 -7 133 6 199 30 275 99 67
61 91 117 90 209 -2 154 -96 231 -372 304 -203 55 -245 84 -245 171 0 95 79
158 202 159 119 1 207 -53 231 -144 l11 -40 85 0 86 0 -7 43 c-18 104 -88 190
-195 241 -58 27 -76 30 -180 33 -94 3 -126 -1 -175 -17z" transform="translate(124, 21) scale(0.25, 0.25) translate(0.000000,248.000000) scale(0.100000,-0.100000)" fill="#c2c2c2" stroke="none"/></g></g></g></g><g id="shape-df1c0970-132f-11ec-8bc5-e98ba5337ee1"><g id="shape-4ab50250-132f-11ec-8bc5-e98ba5337ee1"><rect rx="5" ry="5" x="212" y="214" transform="matrix(1.000000018024205,8.698226992842612e-8,0.0000036998137505350756,0.9999999800002596,-0.0008894284331972813,-0.000020183973504117603)" width="150" height="50" style="fill: rgb(25, 25, 25); fill-opacity: 1;"/></g><g id="shape-da54e470-132f-11ec-8bc5-e98ba5337ee1"><g id="shape-60e4dff0-1262-11ec-a24a-8550932f84af" style="fill: rgb(255, 255, 255); fill-opacity: 1;"><g id="shape-60e5ca50-1262-11ec-a24a-8550932f84af"><path d="M354.8949152907344,235.21975868338245C352.96473412342675,226.69886397327434,348.40193243994963,223.89826883020294,347.9117519378092,222.82781234421986C347.4841801602406,222.22615777149895,347.1024196445551,221.3710142163626,346.78937602169253,220.62887177386938C346.73440250743397,221.38475759492746,346.70538870824157,221.67489558684872,345.990733022878,222.43688957615757C344.8866816115142,223.30119538367023,339.2137203484226,228.05945845117878,338.7525536454741,237.73785104484637C338.32192778378067,246.76572371978523,345.2730232533886,252.14549290683033,346.2167352481638,252.83113479300198L346.32362819255604,252.90748689613918C346.52014419861234,254.3608522758493,346.68815109973775,255.81793030924723,346.82755207326136,257.27788127971087L347.5620593054409,257.27788127971075C347.7361421005935,255.7019738709596,347.9957392512597,254.1382827987104,348.34085075743997,252.58986214708864C348.9776272976037,252.13785769651656,349.263184163337,251.88284167203835,349.63883651077185,251.53162199760743C353.2363396166488,248.20356041041623,355.2554893621764,243.50719232958488,355.1957425770952,238.60673797854736C355.21101299772226,237.36372573947426,355.03845724463235,236.06879407026793,354.8949152907344,235.21975868338245ZZM346.7466188439357,247.7338683875646C346.7466188439357,247.7338683875646,346.7466188439357,235.07316264535905,347.1665554111901,235.0746896874217C347.49181537055483,235.0746896874217,347.9148060219345,251.40640454846232,347.9148060219345,251.40640454846232C347.33300299602934,251.337687655639,346.7466188439357,248.71881051803405,346.7466188439357,247.7338683875646ZZ" style="fill: rgb(194, 194, 194);"/></g></g><g id="shape-c2000f90-132e-11ec-8bc5-e98ba5337ee1"><g><path d="M80 715 l0 -355 40 0 41 0 -3 290 c-2 160 -1 290 2 290 3 0 57 -130
121 -288 114 -284 116 -287 146 -290 18 -2 33 2 36 10 67 170 222 547 228 558
6 9 7 -100 3 -277 l-7 -293 47 0 46 0 0 355 0 356 -57 -3 -56 -3 -116 -287
c-64 -158 -119 -288 -122 -288 -4 0 -59 129 -122 288 l-115 287 -56 3 -56 3 0
-356z M3200 716 l0 -356 83 0 c187 1 289 35 353 119 46 60 64 126 64 236 0
164 -49 259 -163 315 -60 29 -74 32 -201 37 l-136 6 0 -357z m267 272 c65 -16
117 -71 139 -144 25 -86 17 -235 -17 -300 -39 -77 -94 -106 -214 -112 l-95 -5
0 287 0 286 71 0 c38 0 91 -5 116 -12z M3840 717 l0 -357 108 0 c216 1 300 28
343 112 45 88 9 215 -69 247 l-30 13 49 47 c48 46 49 48 49 108 0 76 -26 119
-92 151 -41 21 -67 24 -203 29 l-155 6 0 -356z m292 273 c51 -15 78 -52 78
-107 0 -38 -5 -50 -34 -79 l-34 -34 -111 0 -111 0 0 115 0 115 88 0 c48 0 104
-5 124 -10z m46 -310 c54 -35 67 -141 25 -199 -28 -37 -74 -50 -185 -50 l-98
-1 0 136 0 136 118 -4 c80 -2 124 -8 140 -18z M1049 867 c-158 -83 -169 -374
-17 -475 33 -21 55 -27 113 -30 81 -4 129 13 176 65 53 57 64 90 64 198 0 108
-11 141 -64 198 -65 70 -185 90 -272 44z m197 -68 c95 -87 82 -314 -20 -363
-78 -37 -160 -8 -200 69 -16 31 -21 57 -20 120 1 94 25 154 77 186 45 28 127
22 163 -12z M1510 625 l0 -265 40 0 40 0 0 199 0 199 35 30 c55 49 125 54 176
13 24 -19 24 -22 27 -230 l3 -211 40 0 40 0 -3 213 c-3 235 -8 254 -67 294
-60 41 -178 27 -225 -26 -27 -30 -36 -26 -36 14 0 33 -2 35 -35 35 l-35 0 0
-265z M2161 873 c-41 -21 -87 -82 -102 -137 -17 -60 -14 -176 5 -234 22 -65
82 -129 131 -138 63 -11 131 1 170 30 l35 27 0 -48 c0 -101 -59 -157 -157
-150 -35 2 -65 12 -94 32 -41 26 -43 27 -56 9 -18 -25 -13 -34 36 -69 35 -24
54 -30 112 -33 118 -7 203 43 228 135 7 22 11 153 11 316 l0 277 -34 0 c-29 0
-34 -4 -40 -31 l-6 -30 -36 28 c-47 35 -149 44 -203 16z m148 -49 c18 -4 45
-20 62 -36 l29 -30 0 -133 0 -133 -30 -31 c-21 -20 -45 -32 -75 -37 -58 -8
-98 8 -133 54 -24 32 -27 45 -30 131 -3 84 0 102 20 141 15 29 35 51 58 62 38
20 52 21 99 12z M2729 867 c-158 -83 -169 -374 -17 -475 33 -21 55 -27 113
-30 81 -4 129 13 176 65 53 57 64 90 64 198 0 108 -11 141 -64 198 -65 70
-185 90 -272 44z m197 -68 c95 -87 82 -314 -20 -363 -78 -37 -160 -8 -200 69
-16 31 -21 57 -20 120 1 94 25 154 77 186 45 28 127 22 163 -12z" transform="translate(219, 223) scale(0.25, 0.25) translate(0.000000,128.000000) scale(0.100000,-0.100000)" fill="#c2c2c2" stroke="none"/></g></g></g></g></g></g></svg>