<svg xmlns:xlink="http://www.w3.org/1999/xlink" width="488.2587119466625" xmlns="http://www.w3.org/2000/svg" id="screenshot" version="1.1" viewBox="0 0 488.2587119466625 266.33477347647613" height="266.33477347647613" style="-webkit-print-color-adjust: exact;"><g id="shape-70bc84d0-1886-11ec-993a-293f9893854e"><g id="shape-03aaeb20-1886-11ec-993a-293f9893854e"><rect rx="0" ry="0" x="0" y="-0.2474802093070423" transform="matrix(1.000000001938854,5.148934621792615e-18,5.1489346225400866e-18,1.0000000017890116,-4.730803766506142e-7,-2.3749581146148557e-7)" width="488" height="266" style="fill: rgb(177, 178, 181); fill-opacity: 0;"/></g><g id="shape-74770d80-1330-11ec-8bc5-e98ba5337ee1"><g id="shape-38c487b0-132e-11ec-8bc5-e98ba5337ee1"><g id="shape-50511681-125e-11ec-a24a-8550932f84af"><path d="M154.41306341999575,82.21883790421157L154.41306341999575,165.7391106186055M336.413063419996,82.21883790421157L336.413063419996,223.77862216589628" style="fill: none; stroke-width: 4; stroke: rgb(25, 25, 25); stroke-opacity: 1;"/></g><g id="shape-0c6811b0-1260-11ec-a24a-8550932f84af"><g id="shape-b5443f50-125d-11ec-a24a-8550932f84af"><rect rx="5" ry="5" x="96" y="2.043640568554025" transform="matrix(1.0000000000000004,-1.7453292519943308e-8,1.74532925199433e-8,1,-9.083329928216699e-7,0.0000042935099600072135)" width="300" height="100" style="fill: rgb(25, 25, 25); fill-opacity: 1;"/></g><g id="shape-e38426f0-125d-11ec-a24a-8550932f84af"><g><path d="M3569 2011 c-38 -39 -40 -96 -4 -135 20 -21 33 -26 72 -26 51 1 73
12 91 47 36 66 -12 143 -88 143 -33 0 -48 -6 -71 -29z M170 1310 l0 -713 243
6 c269 6 340 18 458 78 85 42 194 153 237 239 58 118 75 204 75 390 0 135 -4
179 -21 241 -62 232 -218 391 -433 444 -45 11 -136 18 -311 22 l-248 6 0 -713z
m501 550 c115 -22 223 -100 272 -196 46 -92 59 -151 64 -310 8 -233 -26 -365
-121 -471 -89 -99 -191 -133 -398 -133 l-138 0 0 560 0 560 134 0 c73 0 158
-5 187 -10z M1743 1656 c-142 -46 -260 -175 -307 -336 -23 -75 -31 -229 -17
-318 27 -171 116 -299 257 -369 71 -34 83 -37 188 -41 124 -5 196 9 272 54 51
30 150 133 138 143 -5 4 -28 22 -51 40 l-42 32 -42 -42 c-64 -64 -137 -93
-234 -93 -103 0 -168 27 -230 96 -49 55 -79 125 -90 211 l-7 57 362 0 363 0
-7 98 c-16 236 -87 372 -234 444 -60 30 -75 33 -172 35 -68 2 -120 -2 -147
-11z m247 -149 c72 -36 116 -112 135 -234 l7 -43 -272 0 -273 0 7 43 c15 93
82 198 148 233 74 39 172 39 248 1z M2735 1656 c-92 -29 -179 -98 -218 -171
-28 -51 -30 -174 -5 -221 47 -87 142 -141 335 -190 212 -54 254 -84 261 -183
4 -54 2 -60 -27 -94 -18 -20 -53 -44 -79 -54 -63 -24 -181 -24 -244 0 -53 20
-114 82 -124 124 -3 16 -7 34 -10 41 -2 8 -29 12 -89 12 l-86 0 6 -37 c16 -95
92 -195 182 -241 82 -42 149 -55 272 -50 104 3 123 7 181 34 128 61 180 129
188 250 4 65 1 80 -22 128 -47 95 -130 143 -349 201 -206 54 -247 83 -247 173
0 43 29 93 70 124 65 48 221 44 291 -8 40 -29 79 -89 79 -121 0 -22 4 -23 85
-23 l85 0 0 28 c0 114 -110 235 -249 276 -66 19 -228 20 -286 2z M4260 1654
c-131 -48 -227 -167 -266 -331 -22 -91 -22 -285 0 -377 36 -150 116 -264 227
-323 50 -26 62 -28 169 -28 106 0 119 2 170 28 30 16 70 42 88 60 l32 31 0
-91 c0 -148 -37 -220 -137 -270 -50 -24 -69 -28 -143 -27 -100 0 -166 25 -242
93 l-46 41 -41 -49 -41 -49 22 -27 c32 -42 133 -103 206 -125 87 -27 227 -27
314 0 154 47 253 167 278 336 5 39 10 298 10 592 l0 522 -80 0 -80 0 0 -37 c0
-21 -3 -48 -6 -61 -6 -22 -7 -22 -45 13 -21 19 -62 47 -91 62 -45 23 -67 27
-153 30 -74 2 -112 -1 -145 -13z m305 -155 c28 -14 64 -44 82 -68 l33 -43 0
-258 0 -258 -33 -43 c-95 -125 -312 -133 -412 -16 -65 76 -79 131 -80 307 0
123 4 166 18 210 27 81 76 142 139 174 46 24 63 27 128 24 57 -2 88 -9 125
-29z M5499 1655 c-64 -23 -101 -46 -151 -92 l-48 -46 0 72 0 71 -85 0 -85 0 0
-530 0 -530 85 0 85 0 0 378 0 379 30 44 c32 49 96 99 149 117 48 17 145 15
188 -3 50 -21 72 -42 94 -90 17 -37 19 -73 19 -432 l0 -393 90 0 90 0 0 338
c0 185 -5 377 -10 427 -25 211 -127 306 -328 304 -48 0 -103 -6 -123 -14z
M3550 1130 l0 -530 85 0 85 0 0 530 0 530 -85 0 -85 0 0 -530z" transform="translate(170, 21.043640568554025) scale(0.25, 0.25) translate(0.000000,248.000000) scale(0.100000,-0.100000)" fill="#ffffff" stroke="none"/></g></g></g></g><g id="shape-d6354a10-132f-11ec-8bc5-e98ba5337ee1"><g id="shape-49e83c70-132f-11ec-8bc5-e98ba5337ee1"><rect rx="5" ry="5" x="263" y="215.04364056855403" transform="matrix(1.000000018024204,8.698226992842622e-8,0.0000036998137505350756,0.9999999800002592,-0.0008942089430092892,-0.000024599196649432997)" width="150" height="50" style="fill: rgb(25, 25, 25); fill-opacity: 1;"/></g><g id="shape-d19e83e0-132f-11ec-8bc5-e98ba5337ee1"><g id="shape-4f987810-1262-11ec-a24a-8550932f84af" style="fill: rgb(255, 255, 255); fill-opacity: 1;"><g id="shape-4f9c96c0-1262-11ec-a24a-8550932f84af"><path d="M384.53534286252216,235.55726872772456L377.52927387865566,235.55726872772456L377.52927387865566,221.84290396222613L384.53534286252216,221.84290396222613C388.31629900987537,221.84290396222613,391.3917617242405,224.91836667659138,391.3917617242405,228.69932282394402C391.3917617242405,232.48027897129654,388.31629900987537,235.55726872772456,384.53534286252216,235.55726872772456ZZM379.7755527529507,233.31098985342905L384.53534286252216,233.31098985342905C387.07786789699,233.31098985342905,389.14548284994453,231.24184785841166,389.14548284994453,228.70084986600668C389.14548284994453,226.1598518736017,387.07634085492737,224.09070987858442,384.53534286252216,224.09070987858442L379.7755527529507,224.09070987858442L379.7755527529507,233.31098985342905ZZM379.7755527529507,235.55726872772456L372.7710108111469,235.55726872772456C368.9900546637946,235.55726872772456,365.91459194942945,232.48180601335943,365.91459194942945,228.70084986600668C365.91459194942945,224.91989371865404,368.9900546637946,221.84290396222613,372.7710108111469,221.84290396222613L379.7770797950143,221.84290396222613L379.7770797950143,235.55726872772456ZM372.7710108111469,224.08918283652164C370.228485776679,224.08918283652164,368.1608708237245,226.15832483153903,368.1608708237245,228.69932282394402C368.1608708237245,231.240320816349,370.228485776679,233.31098985342905,372.7710108111469,233.31098985342905L377.5308009207183,233.31098985342905L377.5308009207183,224.08918283652164L372.7710108111469,224.08918283652164ZZM379.7755527529507,247.02382757686482L372.7710108111469,247.02382757686482C368.9900546637946,247.02382757686482,365.91459194942945,243.94836486249946,365.91459194942945,240.16740871514693C365.91459194942945,236.38645256779418,368.9900546637946,233.31098985342905,372.7710108111469,233.31098985342905L379.7770797950143,233.31098985342905L379.7770797950143,247.02382757686482ZM372.7710108111469,235.55726872772456C370.228485776679,235.55726872772456,368.1608708237245,237.62641072274195,368.1608708237245,240.16740871514693C368.1608708237245,242.70840670755192,370.2300128187426,244.77754870256908,372.7710108111469,244.77754870256908L377.5308009207183,244.77754870256908L377.5308009207183,235.55726872772456L372.7710108111469,235.55726872772456ZZM372.8076598206535,258.49191346806754C369.0068521264848,258.49191346806754,365.9130649073668,255.41645075370238,365.9130649073668,251.63549460634962C365.9130649073668,247.8545384589971,368.9885276217319,244.77907574463197,372.7694837690842,244.77907574463197L379.7755527529507,244.77907574463197L379.7755527529507,251.56066954527532C379.7755527529507,255.382855828322,376.649697650515,258.49191346806754,372.8076598206535,258.49191346806754ZZM372.7710108111469,247.02382757686482C370.2262958988613,247.02719249355616,368.1642357404162,249.08925265200114,368.1608708237245,251.63396756428696C368.1608708237245,254.17649259875483,370.2452832393692,256.24410755170936,372.80918686271616,256.24410755170936C375.41279357969324,256.24410755170936,377.532327962781,254.14289767337445,377.532327962781,251.55914250321243L377.532327962781,247.02382757686482L372.7710108111469,247.02382757686482ZZM384.53534286252216,247.02382757686482L384.3856927403731,247.02382757686482C380.6047365930208,247.02382757686482,377.52927387865566,243.94836486249946,377.52927387865566,240.16740871514693C377.52927387865566,236.38645256779418,380.6047365930208,233.31098985342905,384.3856927403731,233.31098985342905L384.53534286252216,233.31098985342905C388.31629900987537,233.31098985342905,391.3917617242405,236.38645256779418,391.3917617242405,240.16740871514693C391.3917617242405,243.94836486249946,388.31629900987537,247.02382757686482,384.53534286252216,247.02382757686482ZZM384.38721978243575,235.55726872772456C381.8446947479688,235.55726872772456,379.7770797950143,237.62641072274195,379.7770797950143,240.16740871514693C379.7770797950143,242.70840670755192,381.84622179003145,244.77754870256908,384.38721978243575,244.77754870256908L384.5368699045848,244.77754870256908C387.0793949390527,244.77754870256908,389.1470098920072,242.70840670755192,389.1470098920072,240.16740871514693C389.1470098920072,237.62641072274195,387.07786789699,235.55726872772456,384.5368699045848,235.55726872772456L384.38721978243575,235.55726872772456ZZ"/></g></g><g id="shape-c6f26340-132e-11ec-8bc5-e98ba5337ee1"><g><path d="M648 1079 c-18 -10 -23 -35 -12 -63 7 -19 55 -21 72 -4 18 18 14 56
-7 68 -24 12 -31 12 -53 -1z M80 725 l0 -355 45 0 45 0 0 160 0 160 145 0 145
0 0 35 0 35 -145 0 -145 0 0 125 0 125 170 0 170 0 0 35 0 35 -215 0 -215 0 0
-355z M630 635 l0 -265 40 0 40 0 0 265 0 265 -40 0 -40 0 0 -265z M961 883
c-41 -21 -87 -82 -102 -137 -17 -60 -14 -176 5 -234 22 -65 82 -129 131 -138
63 -11 131 1 170 30 l35 27 0 -48 c0 -101 -59 -157 -157 -150 -35 2 -65 12
-94 32 -41 26 -43 27 -56 9 -18 -25 -13 -34 36 -69 35 -24 54 -30 112 -33 118
-7 203 43 228 135 7 22 11 153 11 316 l0 277 -34 0 c-29 0 -34 -4 -40 -31 l-6
-30 -36 28 c-47 35 -149 44 -203 16z m148 -49 c18 -4 45 -20 62 -36 l29 -30 0
-133 0 -133 -30 -31 c-21 -20 -45 -32 -75 -37 -58 -8 -98 8 -133 54 -24 32
-27 45 -30 131 -3 84 0 102 20 141 15 29 35 51 58 62 38 20 52 21 99 12z
M1430 635 l0 -265 40 0 40 0 0 203 0 203 30 29 c27 26 38 29 90 30 52 0 63 -4
87 -28 l28 -27 3 -205 3 -205 40 0 39 0 0 189 c0 179 1 190 23 222 46 68 156
77 201 16 19 -26 21 -44 24 -228 l4 -199 40 0 40 0 -4 208 c-3 223 -7 240 -63
292 -21 20 -39 25 -94 28 -74 4 -113 -9 -162 -55 l-26 -24 -17 25 c-27 43 -71
59 -146 54 -54 -3 -74 -9 -103 -31 -20 -15 -38 -27 -41 -27 -3 0 -6 14 -6 30
0 28 -3 30 -35 30 l-35 0 0 -265z M2410 885 c-42 -19 -77 -51 -96 -87 -19 -37
-19 -38 26 -38 34 0 42 4 50 25 19 49 118 72 179 40 30 -15 51 -59 51 -105 0
-27 0 -27 -92 -35 -51 -4 -109 -13 -128 -21 -128 -54 -147 -206 -34 -271 65
-38 184 -27 223 20 19 24 28 21 35 -13 5 -28 9 -30 50 -30 l45 0 -10 32 c-5
18 -9 107 -9 198 0 187 -11 228 -71 271 -43 31 -164 38 -219 14z m210 -316 c0
-53 -3 -64 -28 -89 -61 -60 -176 -60 -207 0 -21 40 -19 72 6 104 26 33 65 44
157 45 l72 1 0 -61z" transform="translate(284, 224.04364056855403) scale(0.25, 0.25) translate(0.000000,128.000000) scale(0.100000,-0.100000)" fill="#ffffff" stroke="none"/></g></g></g></g><g id="shape-b4562d60-132f-11ec-8bc5-e98ba5337ee1"><g id="shape-477826d0-132f-11ec-8bc5-e98ba5337ee1"><rect rx="5" ry="5" x="74" y="154.04364056855403" transform="matrix(1.0000000157689772,8.698226973226152e-8,0.0000036998137505350646,0.9999999800002564,-0.0006648723147861801,-0.000009901424903091538)" width="162" height="50" style="fill: rgb(25, 25, 25); fill-opacity: 1;"/></g><g id="shape-a198d060-132f-11ec-8bc5-e98ba5337ee1"><g id="shape-4c1767a0-1262-11ec-a24a-8550932f84af" style="fill: rgb(255, 255, 255); fill-opacity: 1;"><g id="shape-4c19ffb0-1262-11ec-a24a-8550932f84af"><path d="M203.04868051968378,183.54869645369095C203.4105894885579,183.77294615799482,208.87892711526183,184.8835161222303,210.21508892016573,185.1047148101662C210.6777826651787,185.2023473344943,210.34946862169727,185.6783058905484,209.71116503947633,186.00018811915461C208.27116437431596,186.38309067544682,201.28647397927784,183.54869645366009,203.04868051968378,183.54869645369095ZZM211.67188704764067,163.314355788528L217.0241694776514,168.74516495392018C217.53267448455426,169.26383773937906,217.52503927425823,170.26762213004358,217.24100945059308,170.55594317842102L214.5839562613819,168.43243577441498L214.06170787597875,171.57650815914755L211.8398616746672,170.40644337546152L208.2849077526398,172.64894041837337L207.10755832218138,167.91986502160395L205.19722870174746,171.22106475013973L202.27599723571916,171.22106475008852C201.08490442677953,171.22106475006765,200.94594359904318,169.71081163949052,202.02708937944658,168.6307518392198C203.9160404110246,166.59419840226607,206.08444014008364,164.51798175231207,207.2633166125006,163.31435578845068C208.4483012531682,162.10462779181924,210.51133507993472,162.1397144802829,211.67188704764067,163.314355788528ZZM206.28600969232753,162.3426070698113L192.75641701666382,176.17286434277523C188.1859801229723,181.82792321229093,195.86852874062265,181.1704291814584,199.1608314279258,182.7981464229131C200.3427619845104,184.0048234032009,194.63315171192858,184.8957201875206,195.81508226851315,186.10239716780845C196.99548578303506,187.30907414809636,202.95858503806744,188.42727165330305,204.1420426367149,189.63242312539845C205.3224461512366,190.83910010568619,201.7232080093729,192.11900147913022,202.9051385659575,193.32415295122578C204.0855420804794,194.53235543970615,206.8189473727698,193.38822429537933,207.330506463838,196.17380225489254C207.69394247480523,198.1630649379184,212.253690074137,197.0280868427785,214.4831714857146,195.39884409322818C215.66510204225642,194.1921671129817,212.22314923283466,194.30505471916635,213.40507978937694,193.09837773891988C216.3415816759798,190.09770312432468,219.0780410524494,192.00916488957475,220.08283472968196,189.00086273398315C220.57912340004714,187.51501775449722,215.75825160795284,186.7110749369655,216.94170920655733,185.5043979567191C220.3409048381891,183.52123730652917,232.08843942685144,182.2306573758805,226.51320885567793,176.6625524731593L212.49190863531658,162.3426070699201C210.777040398827,160.69810923837545,207.91383653118282,160.67980314001525,206.2875367343902,162.3426070698113ZM221.82671676533482,189.00086273401374C221.82671676534665,189.68734142063843,226.88733416128616,190.13736633751458,226.88733416126342,188.83915886569744C226.16657030761235,186.75531467473039,222.42531725389335,186.89566142837478,221.82671676533482,189.00086273401374ZZM199.03103285276552,192.64682731368796C200.22823382997444,193.6826473764162,202.08053585205948,192.38901642920914,202.63485212081014,190.94436017092167C201.47430015309806,189.40359689647684,197.12681140049563,191.0008039739475,199.03103285276552,192.64682731368796ZZM221.1914672672583,190.41043230387217C219.6476277418492,191.79559374263468,221.36555006246,193.1990612797645,222.88801099899956,192.30511347898633C223.22701433692237,191.96187413567995,222.8788487465963,190.7551971554067,221.19299430932097,190.41043230387217Z"/></g></g><g id="shape-caea7870-132e-11ec-8bc5-e98ba5337ee1"><g><path d="M910 745 l0 -375 40 0 40 0 0 91 c0 82 2 93 26 125 15 19 30 34 34
34 4 0 50 -56 101 -125 l93 -125 44 0 c51 0 58 -15 -71 160 -55 74 -100 140
-101 146 -1 7 43 60 97 118 l98 106 -48 0 -48 -1 -110 -119 -110 -119 -3 229
-2 230 -40 0 -40 0 0 -375z M90 725 l0 -355 45 0 45 0 0 355 0 355 -45 0 -45
0 0 -355z M350 635 l0 -265 40 0 40 0 0 196 0 196 33 33 c58 58 149 58 191 2
19 -26 21 -44 24 -228 l4 -199 40 0 40 0 -4 208 c-4 231 -12 266 -72 303 -62
38 -173 21 -233 -34 l-23 -20 0 36 c0 36 -1 37 -40 37 l-40 0 0 -265z M1525
886 c-17 -7 -45 -30 -63 -50 -26 -29 -32 -45 -32 -81 0 -77 56 -119 209 -155
94 -22 126 -79 77 -137 -22 -26 -30 -28 -96 -28 -68 0 -73 2 -101 33 -16 18
-29 39 -29 47 0 11 -11 15 -40 15 -45 0 -50 -12 -26 -58 35 -68 104 -102 203
-102 107 0 179 52 190 136 10 76 -47 126 -188 165 -96 26 -119 42 -119 78 0
43 9 60 41 76 62 33 161 4 175 -50 5 -22 12 -25 46 -25 40 0 40 0 34 32 -8 39
-49 85 -93 104 -41 18 -148 17 -188 0z M2051 879 c-85 -43 -126 -133 -120
-266 5 -99 36 -164 98 -208 39 -27 50 -30 125 -30 74 0 87 3 123 28 37 25 83
90 83 116 0 6 -16 11 -35 11 -28 0 -37 -5 -44 -22 -5 -13 -21 -34 -36 -48 -23
-21 -36 -25 -90 -25 -73 0 -96 15 -126 80 -26 56 -26 185 1 242 49 109 205
111 247 3 14 -36 20 -40 50 -40 39 0 42 14 14 77 -30 64 -87 97 -175 101 -58
2 -79 -1 -115 -19z M2560 878 c-44 -24 -90 -77 -90 -104 0 -10 13 -14 40 -14
27 0 40 4 40 13 0 32 49 61 110 65 55 4 61 2 90 -26 24 -25 30 -39 30 -74 l0
-45 -98 -9 c-114 -12 -165 -34 -200 -85 -20 -28 -23 -44 -20 -91 7 -91 62
-138 163 -138 55 0 102 16 137 48 19 16 17 18 33 -33 3 -10 18 -15 46 -15 35
0 40 2 34 18 -5 9 -11 106 -14 214 -5 178 -8 199 -27 224 -40 55 -70 69 -152
72 -66 3 -83 0 -122 -20z m220 -311 c0 -56 -3 -66 -27 -89 -81 -75 -213 -49
-213 42 0 21 3 46 7 55 11 31 82 55 161 55 l72 0 0 -63z M3030 535 l0 -365 40
0 40 0 0 132 c0 124 1 130 18 116 53 -47 162 -64 220 -34 75 39 116 126 116
246 1 126 -34 206 -108 251 -50 31 -141 26 -198 -10 l-46 -29 -6 29 c-5 25
-10 29 -41 29 l-35 0 0 -365z m288 278 c45 -34 66 -87 66 -172 0 -95 -15 -141
-60 -181 -28 -24 -44 -30 -80 -30 -51 0 -96 20 -118 52 -24 34 -23 274 2 305
43 55 135 67 190 26z M3698 880 c-81 -43 -128 -136 -128 -251 0 -115 44 -194
132 -240 57 -29 157 -26 217 6 56 31 78 60 60 81 -16 20 -25 18 -66 -13 -50
-39 -135 -44 -182 -11 -48 32 -72 68 -78 116 l-6 42 183 0 183 0 -7 58 c-14
116 -55 190 -122 218 -48 20 -142 17 -186 -6z m182 -75 c16 -15 32 -42 35 -59
4 -17 9 -39 11 -48 5 -17 -6 -18 -136 -18 l-140 0 6 28 c22 93 70 136 147 129
35 -3 56 -12 77 -32z" transform="translate(81, 163.04364056855403) scale(0.25, 0.25) translate(0.000000,128.000000) scale(0.100000,-0.100000)" fill="#ffffff" stroke="none"/></g></g></g></g></g></g></svg>