<svg xmlns:xlink="http://www.w3.org/1999/xlink" width="337.0464562180264" xmlns="http://www.w3.org/2000/svg" id="screenshot" version="1.1" viewBox="0 0 337.0464562180264 230.0000508478915" height="230.0000508478915" style="-webkit-print-color-adjust: exact;"><g id="shape-74770d80-1330-11ec-8bc5-e98ba5337ee1"><g id="shape-38c487b0-132e-11ec-8bc5-e98ba5337ee1"><g id="shape-50511681-125e-11ec-a24a-8550932f84af"><path d="M78.80693511934533,80.00003871783034L78.80693511934533,139.00003871783034M260.8069351193453,80.00003871783034L260.8069351193453,180.00003871783036" style="fill: none; stroke-width: 4; stroke: rgb(25, 25, 25); stroke-opacity: 1;"/></g><g id="shape-0c6811b0-1260-11ec-a24a-8550932f84af"><g id="shape-b5443f50-125d-11ec-a24a-8550932f84af"><rect rx="5" ry="5" x="20.806935119345326" y="0.00003871783036402121" transform="matrix(1.0000000000000002,0,0,1,-2.842170943040401e-14,0)" width="300" height="100" style="fill: rgb(25, 25, 25); fill-opacity: 1;"/></g><g id="shape-e38426f0-125d-11ec-a24a-8550932f84af"><g><path d="M3573 2025 c-27 -19 -46 -75 -37 -109 14 -58 109 -88 161 -51 49 34
50 109 2 154 -27 25 -94 28 -126 6z M160 1310 l0 -713 248 6 c278 7 332 16
452 75 142 70 247 205 297 382 26 93 26 406 -1 500 -51 184 -164 325 -316 394
-109 50 -159 57 -427 63 l-253 6 0 -713z m512 549 c149 -32 264 -141 307 -294
22 -76 32 -251 21 -366 -18 -187 -75 -301 -190 -378 -81 -54 -162 -71 -334
-71 l-136 0 0 560 0 560 140 0 c76 0 163 -5 192 -11z M1719 1647 c-119 -50
-195 -120 -249 -230 -51 -105 -63 -173 -58 -326 4 -113 9 -147 30 -202 50
-134 158 -240 285 -279 120 -37 287 -24 392 30 44 22 151 120 151 138 0 5 -21
26 -47 46 l-46 36 -49 -46 c-58 -54 -113 -80 -189 -89 -117 -14 -229 33 -291
123 -36 53 -68 147 -68 203 l0 39 355 0 355 0 0 83 c-1 224 -89 393 -243 463
-53 24 -77 29 -167 31 -92 3 -112 1 -161 -20z m259 -136 c76 -39 129 -125 139
-227 l6 -54 -272 0 -271 0 6 28 c18 78 26 102 56 152 34 57 111 114 167 123
46 9 131 -3 169 -22z M2715 1650 c-158 -53 -253 -193 -224 -330 27 -127 112
-185 368 -250 197 -51 245 -87 246 -186 0 -66 -23 -100 -91 -134 -68 -35 -205
-35 -277 -1 -58 29 -94 70 -109 127 l-12 44 -84 0 -85 0 6 -40 c17 -130 141
-248 297 -281 29 -6 100 -9 159 -7 133 6 199 30 275 99 67 61 91 117 90 209
-2 154 -96 231 -372 304 -203 55 -245 84 -245 171 0 95 79 158 202 159 119 1
207 -53 231 -144 l11 -40 85 0 86 0 -7 43 c-18 104 -88 190 -195 241 -58 27
-76 30 -180 33 -94 3 -126 -1 -175 -17z M4238 1647 c-182 -77 -276 -271 -265
-547 8 -198 58 -325 169 -424 74 -67 141 -89 258 -84 108 5 162 24 237 85 l46
38 -5 -100 c-6 -110 -20 -153 -67 -208 -51 -58 -111 -81 -211 -81 -72 -1 -94
4 -145 27 -33 15 -79 46 -102 69 l-41 41 -34 -38 c-54 -61 -54 -63 -13 -105
45 -46 128 -92 209 -115 45 -13 85 -16 166 -13 93 4 115 8 172 35 118 56 190
141 223 268 13 50 15 148 15 612 l0 553 -74 0 c-83 0 -86 -2 -86 -76 0 -24 -3
-44 -6 -44 -4 0 -27 18 -51 41 -69 64 -121 82 -238 86 -88 3 -107 1 -157 -20z
m318 -145 c23 -12 60 -42 83 -68 l41 -47 0 -249 c0 -273 -1 -277 -62 -334 -49
-47 -95 -66 -168 -72 -88 -6 -143 11 -196 60 -84 78 -122 204 -111 378 9 142
37 221 100 284 29 29 68 57 87 64 54 18 177 9 226 -16z M5491 1654 c-60 -21
-87 -39 -143 -93 l-48 -45 0 34 c0 19 -3 52 -6 73 l-7 37 -78 0 -79 0 0 -530
0 -530 85 0 85 0 0 378 0 378 28 45 c54 85 139 129 246 129 66 0 128 -23 159
-58 43 -48 46 -78 47 -484 l0 -388 86 0 85 0 -3 417 c-3 389 -5 421 -23 468
-29 73 -108 149 -175 169 -68 20 -201 20 -259 0z M3550 1130 l0 -530 85 0 85
0 0 530 0 530 -85 0 -85 0 0 -530z" transform="translate(94.80693511934533, 19.000038717830364) scale(0.25, 0.25) translate(0.000000,248.000000) scale(0.100000,-0.100000)" fill="#ffffff" stroke="none"/></g></g></g></g><g id="shape-d6354a10-132f-11ec-8bc5-e98ba5337ee1"><g id="shape-49e83c70-132f-11ec-8bc5-e98ba5337ee1"><rect rx="5" ry="5" x="186.80693511934533" y="180.00003871783036" transform="matrix(1.000000018024204,8.698226992842618e-8,0.0000036998137505350748,0.999999980000259,-0.0007631808236965298,-0.000018672613805392757)" width="150" height="50" style="fill: rgb(25, 25, 25); fill-opacity: 1;"/></g><g id="shape-d19e83e0-132f-11ec-8bc5-e98ba5337ee1"><g id="shape-4f987810-1262-11ec-a24a-8550932f84af" style="fill: rgb(255, 255, 255); fill-opacity: 1;"><g id="shape-4f9c96c0-1262-11ec-a24a-8550932f84af"><path d="M308.9292145618713,200.38990479543855L301.92314557800455,200.38990479543855L301.92314557800455,186.67554002994012L308.9292145618713,186.67554002994012C312.71017070922403,186.67554002994012,315.78563342358916,189.75100274430537,315.78563342358916,193.531958891658C315.78563342358916,197.31291503901053,312.71017070922403,200.38990479543855,308.9292145618713,200.38990479543855ZZM304.16942445230006,198.14362592114304L308.9292145618713,198.14362592114304C311.47173959633915,198.14362592114304,313.53935454929365,196.07448392612565,313.53935454929365,193.53348593372067C313.53935454929365,190.9924879413157,311.47021255427626,188.9233459462984,308.9292145618713,188.9233459462984L304.16942445230006,188.9233459462984L304.16942445230006,198.14362592114304ZZM304.16942445230006,200.38990479543855L297.1648825104962,200.38990479543855C293.3839263631435,200.38990479543855,290.30846364877834,197.31444208107342,290.30846364877834,193.53348593372067C290.30846364877834,189.75252978636803,293.3839263631435,186.67554002994012,297.1648825104962,186.67554002994012L304.17095149436295,186.67554002994012L304.17095149436295,200.38990479543855ZM297.1648825104962,188.92181890423564C294.62235747602836,188.92181890423564,292.55474252307386,190.99096089925303,292.55474252307386,193.531958891658C292.55474252307386,196.072956884063,294.62235747602836,198.14362592114304,297.1648825104962,198.14362592114304L301.92467262006744,198.14362592114304L301.92467262006744,188.92181890423564L297.1648825104962,188.92181890423564ZZM304.16942445230006,211.8564636445788L297.1648825104962,211.8564636445788C293.3839263631435,211.8564636445788,290.30846364877834,208.78100093021345,290.30846364877834,205.00004478286093C290.30846364877834,201.21908863550817,293.3839263631435,198.14362592114304,297.1648825104962,198.14362592114304L304.17095149436295,198.14362592114304L304.17095149436295,211.8564636445788ZM297.1648825104962,200.38990479543855C294.62235747602836,200.38990479543855,292.55474252307386,202.45904679045594,292.55474252307386,205.00004478286093C292.55474252307386,207.5410427752659,294.62388451809124,209.61018477028307,297.1648825104962,209.61018477028307L301.92467262006744,209.61018477028307L301.92467262006744,200.38990479543855L297.1648825104962,200.38990479543855ZZM297.20153152000216,223.3245495357815C293.40072382583367,223.3245495357815,290.3069366067157,220.24908682141637,290.3069366067157,216.46813067406362C290.3069366067157,212.6871745267111,293.3823993210808,209.61171181234596,297.16335546843356,209.61171181234596L304.16942445230006,209.61171181234596L304.16942445230006,216.3933056129893C304.16942445230006,220.21549189603599,301.04356934986436,223.3245495357815,297.20153152000216,223.3245495357815ZZM297.1648825104962,211.8564636445788C294.6201675982104,211.85982856127015,292.55810743976554,213.92188871971513,292.55474252307386,216.46660363200095C292.55474252307386,219.00912866646883,294.63915493871855,221.07674361942333,297.2030585620648,221.07674361942333C299.80666527904236,221.07674361942333,301.9261996621301,218.97553374108844,301.9261996621301,216.39177857092642L301.9261996621301,211.8564636445788L297.1648825104962,211.8564636445788ZZM308.9292145618713,211.8564636445788L308.77956443972244,211.8564636445788C304.9986082923697,211.8564636445788,301.92314557800455,208.78100093021345,301.92314557800455,205.00004478286093C301.92314557800455,201.21908863550817,304.9986082923697,198.14362592114304,308.77956443972244,198.14362592114304L308.9292145618713,198.14362592114304C312.71017070922403,198.14362592114304,315.78563342358916,201.21908863550817,315.78563342358916,205.00004478286093C315.78563342358916,208.78100093021345,312.71017070922403,211.8564636445788,308.9292145618713,211.8564636445788ZZM308.7810914817851,200.38990479543855C306.23856644731745,200.38990479543855,304.17095149436295,202.45904679045594,304.17095149436295,205.00004478286093C304.17095149436295,207.5410427752659,306.24009348938034,209.61018477028307,308.7810914817851,209.61018477028307L308.93074160393417,209.61018477028307C311.4732666384018,209.61018477028307,313.54088159135654,207.5410427752659,313.54088159135654,205.00004478286093C313.54088159135654,202.45904679045594,311.47173959633915,200.38990479543855,308.93074160393417,200.38990479543855L308.7810914817851,200.38990479543855ZZ"/></g></g><g id="shape-c6f26340-132e-11ec-8bc5-e98ba5337ee1"><g><path d="M635 1056 c-22 -33 -5 -66 33 -66 49 0 69 42 36 74 -23 23 -51 20
-69 -8z M80 715 l0 -355 40 0 40 0 0 160 0 160 150 0 150 0 0 35 0 35 -150 0
-150 0 0 125 0 125 175 0 175 0 0 35 0 35 -215 0 -215 0 0 -355z M630 625 l0
-265 40 0 40 0 0 265 0 265 -40 0 -40 0 0 -265z M955 871 c-75 -46 -109 -122
-110 -246 0 -79 3 -97 29 -148 40 -84 90 -117 171 -117 51 0 69 5 108 30 l47
30 0 -43 c-1 -64 -32 -125 -74 -142 -66 -28 -144 -15 -198 33 -16 14 -20 13
-38 -3 -20 -18 -20 -18 6 -47 41 -42 101 -61 182 -56 84 4 140 37 174 101 22
40 23 53 26 335 l3 293 -38 -3 c-33 -3 -38 -7 -41 -30 -3 -25 -22 -41 -22 -20
0 5 -17 18 -39 30 -50 29 -143 30 -186 3z m169 -55 c66 -27 76 -54 76 -192 0
-117 -1 -124 -26 -153 -50 -60 -147 -66 -198 -12 -68 71 -73 246 -8 322 41 50
93 61 156 35z M1420 625 l0 -265 40 0 40 0 0 190 c0 214 5 236 64 264 69 33
139 15 168 -44 15 -30 18 -64 18 -222 l0 -188 40 0 40 0 0 191 c0 214 5 235
69 265 48 23 118 13 149 -21 21 -25 22 -33 22 -231 l0 -204 40 0 40 0 0 208
c0 177 -3 212 -18 242 -26 53 -74 80 -143 80 -70 0 -96 -9 -142 -50 l-35 -31
-16 22 c-28 41 -68 59 -129 59 -62 0 -113 -17 -136 -43 -20 -25 -31 -21 -31
13 0 28 -2 30 -40 30 l-40 0 0 -265z M2390 864 c-47 -26 -72 -54 -84 -91 -7
-21 -4 -23 33 -23 31 0 41 4 46 21 10 32 64 59 117 59 64 0 104 -36 113 -101
l7 -46 -96 -8 c-160 -12 -236 -67 -236 -171 0 -50 31 -99 80 -126 53 -29 155
-22 203 15 20 15 38 27 40 27 3 0 7 -13 11 -30 5 -27 9 -30 44 -30 l38 0 -3
88 c-1 48 -4 141 -6 208 -3 105 -6 125 -26 157 -33 53 -85 77 -168 77 -54 0
-77 -6 -113 -26z m230 -303 c0 -53 -3 -63 -31 -90 -58 -58 -166 -63 -204 -8
-23 33 -19 89 8 115 34 32 65 41 150 41 l77 1 0 -59z" transform="translate(208.80693511934533, 189.00003871783036) scale(0.25, 0.25) translate(0.000000,128.000000) scale(0.100000,-0.100000)" fill="#ffffff" stroke="none"/></g></g></g></g><g id="shape-b4562d60-132f-11ec-8bc5-e98ba5337ee1"><g id="shape-477826d0-132f-11ec-8bc5-e98ba5337ee1"><rect rx="5" ry="5" x="-0.1930648806546742" y="136.00003871783036" transform="matrix(1.0000000157689757,8.698226973226132e-8,0.0000036998137505350663,0.9999999800002568,-0.0005969443996747259,-0.000003808811186445382)" width="162" height="50" style="fill: rgb(25, 25, 25); fill-opacity: 1;"/></g><g id="shape-a198d060-132f-11ec-8bc5-e98ba5337ee1"><g id="shape-4c1767a0-1262-11ec-a24a-8550932f84af" style="fill: rgb(255, 255, 255); fill-opacity: 1;"><g id="shape-4c19ffb0-1262-11ec-a24a-8550932f84af"><path d="M129.4425522190329,165.38133252140494C129.804461187907,165.60558222570882,135.27279881461072,166.7161521899443,136.60896061951507,166.9373508778802C137.07165436452806,167.0349834022083,136.7433403210464,167.51094195826238,136.10503673882522,167.8328241868686C134.66503607366508,168.21572674316081,127.68034567862696,165.38133252137408,129.4425522190329,165.38133252140494ZZM138.06575874698956,145.14699185624198L143.41804117700053,150.57780102163417C143.92654618390338,151.09647380709305,143.91891097360713,152.10025819775757,143.63488114994198,152.388579246135L140.97782796073125,150.26507184212898L140.4555795753281,153.40914422686154L138.23373337401608,152.2390794431755L134.6787794519887,154.48157648608736L133.5014300215305,149.75250108931795L131.59110040109658,153.05370081785372L128.66986893506828,153.0537008178025C127.47877612612865,153.05370081778165,127.3398152983923,151.5434477072045,128.4209610787957,150.4633879069338C130.30991211037372,148.42683446998007,132.47831183943276,146.35061782002606,133.6571883118495,145.14699185616468C134.8421729525171,143.93726385953323,136.90520677928407,143.97235054799688,138.06575874698956,145.14699185624198ZZM132.67988139167664,144.17524313752529L119.15028871601294,158.00550041048922C114.57985182232142,163.66055928000492,122.26240043997177,163.00306524917238,125.55470312727493,164.6307824906271C126.73663368385951,165.8374594709149,121.0270234112777,166.7283562552346,122.20895396786227,167.93503323552244C123.38935748238418,169.14171021581035,129.35245673741656,170.25990772101704,130.53591433606402,171.46505919311244C131.7163178505857,172.67173617340018,128.11707970872203,173.9516375468442,129.2990102653066,175.15678901893978C130.47941377982852,176.36499150742014,133.21281907211892,175.22086036309332,133.72437816318688,178.00643832260653C134.08781417415457,179.99570100563238,138.64756177348636,178.86072291049248,140.87704318506348,177.23148016094217C142.05897374160554,176.0248031806957,138.617020932184,176.13769078688034,139.7989514887263,174.93101380663387C142.73545337532914,171.93033919203867,145.47191275179875,173.84180095728874,146.47670642903108,170.83349880169715C146.97299509939648,169.3476538222112,142.15212330730174,168.5437110046795,143.33558090590645,167.33703402443308C146.73477653753844,165.35387337424316,158.48231112620078,164.0632934435945,152.90708055502705,158.4951885408733L138.88578033466592,144.17524313763408C137.17091209817613,142.53074530608944,134.30770823053194,142.51243920772924,132.6814084337393,144.17524313752529ZM148.22058846468394,170.83349880172773C148.220588464696,171.51997748835242,153.2812058606355,171.97000240522857,153.28120586061277,170.67179493341143C152.56044200696147,168.58795074244438,148.81918895324247,168.72829749608877,148.22058846468394,170.83349880172773ZZM125.42490455211464,174.47946338140196C126.62210552932356,175.5152834441302,128.4744075514086,174.22165249692313,129.02872382015926,172.77699623863566C127.86817185244718,171.23623296419083,123.52068309984475,172.8334400416615,125.42490455211464,174.47946338140196ZZM147.58533896660765,172.24306837158616C146.0414994411983,173.62822981034867,147.7594217618091,175.03169734747848,149.28188269834868,174.13774954670032C149.6208860362717,173.79451020339394,149.2727204459452,172.5878332231207,147.5868660086703,172.24306837158616Z"/></g></g><g id="shape-caea7870-132e-11ec-8bc5-e98ba5337ee1"><g><path d="M910 735 l0 -375 40 0 40 0 0 98 c0 96 1 99 30 127 16 16 31 27 33
24 2 -2 45 -59 96 -126 l92 -123 44 0 45 0 -115 155 -114 154 100 108 100 108
-43 3 c-41 3 -45 1 -103 -60 -33 -35 -84 -89 -113 -121 l-52 -59 0 231 0 231
-40 0 -40 0 0 -375z M90 715 l0 -355 40 0 40 0 0 355 0 355 -40 0 -40 0 0
-355z M350 625 l0 -265 40 0 40 0 0 199 0 199 35 30 c55 49 125 54 176 13 24
-19 24 -22 27 -230 l3 -211 40 0 40 0 -3 213 c-3 235 -8 254 -67 294 -60 41
-178 27 -225 -26 -27 -30 -36 -26 -36 14 0 33 -2 35 -35 35 l-35 0 0 -265z
M1508 870 c-73 -39 -103 -110 -73 -173 19 -42 85 -79 169 -98 87 -19 120 -45
124 -97 3 -38 0 -43 -30 -62 -40 -24 -116 -27 -159 -4 -17 8 -37 30 -45 50
-13 30 -18 34 -53 34 l-40 0 10 -32 c23 -83 95 -128 202 -128 121 0 197 55
197 143 0 82 -56 127 -203 163 -104 26 -135 78 -78 135 40 40 115 42 160 4 16
-14 33 -35 36 -45 5 -16 15 -20 47 -20 39 0 40 1 33 27 -11 44 -45 84 -89 104
-56 25 -158 25 -208 -1z M2049 870 c-43 -23 -83 -68 -106 -119 -20 -45 -23
-190 -4 -244 30 -89 113 -147 208 -147 96 1 164 43 198 123 l15 37 -38 0 c-33
0 -39 -4 -49 -30 -24 -63 -133 -91 -199 -51 -50 30 -69 82 -68 186 0 73 4 98
21 131 36 67 116 92 187 59 33 -16 66 -61 66 -89 0 -12 10 -16 40 -16 39 0 40
1 34 28 -10 44 -36 83 -77 116 -35 28 -47 31 -115 34 -61 2 -85 -2 -113 -18z
M2570 875 c-42 -19 -77 -51 -96 -87 -19 -37 -19 -38 26 -38 34 0 42 4 50 25
19 49 118 72 179 40 30 -15 51 -59 51 -105 0 -27 0 -27 -92 -35 -51 -4 -109
-13 -128 -21 -128 -54 -147 -206 -34 -271 65 -38 184 -27 223 20 19 24 28 21
35 -13 5 -28 9 -30 50 -30 l45 0 -10 32 c-5 18 -9 107 -9 198 0 187 -11 228
-71 271 -43 31 -164 38 -219 14z m210 -316 c0 -53 -3 -64 -28 -89 -61 -60
-176 -60 -207 0 -21 40 -19 72 6 104 26 33 65 44 157 45 l72 1 0 -61z M3030
525 l0 -365 40 0 40 0 0 131 0 131 30 -26 c36 -30 82 -40 149 -34 62 6 100 34
137 100 27 50 29 60 29 163 0 95 -3 116 -24 158 -31 63 -79 99 -141 105 -67 6
-114 -4 -149 -33 -37 -32 -41 -31 -41 5 0 28 -3 30 -35 30 l-35 0 0 -365z
m270 287 c55 -30 75 -80 75 -192 0 -108 -15 -148 -68 -181 -48 -30 -127 -22
-167 16 l-30 29 0 141 c0 134 1 143 23 163 47 44 111 53 167 24z M3704 876
c-137 -60 -188 -301 -91 -428 47 -60 105 -88 186 -88 74 0 132 22 170 63 l24
26 -23 19 c-23 19 -24 19 -44 0 -40 -38 -77 -50 -133 -46 -82 7 -132 54 -147
141 l-7 37 182 0 182 0 -5 69 c-10 142 -83 221 -202 221 -34 -1 -75 -7 -92
-14z m147 -62 c32 -16 68 -81 69 -121 0 -23 -2 -23 -135 -23 -149 0 -150 0
-124 67 30 81 116 116 190 77z" transform="translate(7.806935119345326, 145.00003871783036) scale(0.25, 0.25) translate(0.000000,128.000000) scale(0.100000,-0.100000)" fill="#ffffff" stroke="none"/></g></g></g></g></g></svg>