<svg xmlns:xlink="http://www.w3.org/1999/xlink" width="488.25871194666274" xmlns="http://www.w3.org/2000/svg" id="screenshot" version="1.1" viewBox="0 0 488.25871194666274 266.33477347647613" height="266.33477347647613" style="-webkit-print-color-adjust: exact;"><g id="shape-719112e0-1886-11ec-993a-293f9893854e"><g id="shape-c1f6b290-1885-11ec-993a-293f9893854e"><rect rx="0" ry="0" x="-1.2437567420420237e-8" y="-7.714788807788864e-10" transform="matrix(1.0000000019388544,5.148934621792617e-18,5.148934622540089e-18,1.000000001789012,-4.730804619157425e-7,-2.3793859327270184e-7)" width="488" height="266" style="fill: rgb(177, 178, 181); fill-opacity: 0;"/></g><g id="shape-7a6bdd10-1330-11ec-8bc5-e98ba5337ee1"><g id="shape-3c5bb830-132e-11ec-8bc5-e98ba5337ee1"><g id="shape-427e5a20-1260-11ec-a24a-8550932f84af"><path d="M186.1000082980256,97.66738812806813L186.1000082980256,143.66738812806813M265.37916024148876,97.66738812806813L265.37916024148876,223.66738812806813M341.6477114782376,70.66738812806813L392.82792349237207,70.66738812806813L392.82792349237207,169.66738812806813M80.82792349237207,97.66738812806813L80.82792349237207,189.66738812806813" style="fill: none; stroke-width: 4; stroke: rgb(25, 25, 25); stroke-opacity: 1;"/></g><g id="shape-12d1c320-1260-11ec-a24a-8550932f84af"><g id="shape-12d1c321-1260-11ec-a24a-8550932f84af"><rect rx="5" ry="5" x="56.26182370513902" y="3.4978614107126873" transform="matrix(0.9999999999999997,1.7453292519943285e-8,-1.7453292519943298e-8,0.9999999999999999,9.337138919818244e-7,-0.0000035999479379711374)" width="300" height="100" style="fill: rgb(25, 25, 25); fill-opacity: 1;"/></g><g id="shape-12d1ea30-1260-11ec-a24a-8550932f84af"><g><path d="M7650 1824 l0 -276 -35 31 c-20 17 -59 43 -88 59 -48 25 -61 27 -167
27 -102 0 -121 -3 -165 -25 -74 -36 -146 -113 -188 -201 -47 -99 -61 -171 -61
-314 0 -241 88 -419 245 -502 50 -26 62 -28 169 -28 106 0 119 2 168 28 29 15
70 43 91 62 l38 35 7 -60 7 -60 74 0 75 0 0 750 0 750 -85 0 -85 0 0 -276z
m-115 -325 c28 -14 64 -44 82 -68 l33 -43 0 -257 0 -258 -35 -45 c-46 -61
-109 -91 -201 -96 -166 -9 -267 95 -294 300 -9 64 -9 110 -1 177 20 163 70
252 165 298 70 33 179 30 251 -8z M180 1310 l0 -710 90 0 90 0 0 315 0 315
295 0 295 0 0 75 0 75 -295 0 -295 0 0 245 0 245 345 0 345 0 0 75 0 75 -435
0 -435 0 0 -710z M4250 1790 l0 -130 -95 0 -95 0 0 -65 0 -65 95 0 95 0 0
-358 c0 -382 5 -429 50 -495 42 -61 84 -82 172 -86 43 -2 94 0 113 3 l35 7 0
67 0 67 -70 0 c-63 0 -72 3 -97 28 l-28 27 -3 370 -3 370 101 0 100 0 0 65 0
65 -100 0 -100 0 0 130 0 130 -85 0 -85 0 0 -130z M1535 1647 c-29 -14 -69
-45 -93 -72 l-42 -48 0 67 0 66 -85 0 -85 0 0 -530 0 -530 85 0 85 0 0 384 0
384 33 44 c53 69 105 92 210 93 l88 0 -3 80 -3 80 -70 3 c-56 2 -80 -2 -120
-21z M2179 1647 c-235 -81 -362 -353 -304 -652 37 -195 153 -337 318 -386 55
-17 87 -20 170 -17 89 3 111 8 170 35 128 61 227 186 262 334 19 84 19 258 0
334 -41 157 -127 270 -253 332 -72 36 -81 38 -186 41 -95 2 -121 -1 -177 -21z
m287 -142 c61 -30 114 -93 146 -174 20 -49 23 -74 22 -201 0 -127 -3 -152 -23
-203 -32 -82 -78 -137 -141 -172 -46 -24 -67 -29 -125 -29 -90 -1 -138 17
-196 71 -110 103 -148 324 -88 518 58 190 235 272 405 190z M3407 1646 c-58
-24 -144 -87 -154 -112 -13 -34 -23 -8 -23 56 l0 70 -80 0 -80 0 0 -530 0
-530 85 0 85 0 0 380 c0 425 -3 407 72 476 63 58 120 78 212 72 93 -6 136 -31
168 -96 23 -46 23 -52 26 -439 l3 -393 85 0 85 0 -3 408 c-4 373 -6 411 -24
459 -30 80 -74 134 -135 168 -49 26 -65 30 -159 33 -93 2 -112 0 -163 -22z
M5113 1656 c-142 -46 -260 -175 -307 -336 -23 -75 -31 -229 -17 -318 27 -171
116 -299 257 -369 71 -34 83 -37 188 -41 124 -5 196 9 272 54 51 30 150 133
138 143 -5 4 -28 22 -51 40 l-42 32 -42 -42 c-64 -64 -137 -93 -234 -93 -103
0 -168 27 -230 96 -49 55 -79 125 -90 211 l-7 57 362 0 363 0 -7 98 c-16 236
-87 372 -234 444 -60 30 -75 33 -172 35 -68 2 -120 -2 -147 -11z m247 -149
c72 -36 116 -112 135 -234 l7 -43 -272 0 -273 0 7 43 c15 93 82 198 148 233
74 39 172 39 248 1z M6207 1646 c-58 -24 -144 -87 -154 -112 -13 -34 -23 -8
-23 56 l0 70 -80 0 -80 0 0 -530 0 -530 85 0 85 0 0 380 c0 425 -3 407 72 476
63 58 120 78 212 72 93 -6 136 -31 168 -96 23 -46 23 -52 26 -439 l3 -393 85
0 85 0 -3 408 c-4 373 -6 411 -24 459 -30 80 -74 134 -135 168 -49 26 -65 30
-159 33 -93 2 -112 0 -163 -22z" transform="translate(106.26182370513902, 22.497861410712687) scale(0.25, 0.25) translate(0.000000,248.000000) scale(0.100000,-0.100000)" fill="#ffffff" stroke="none"/></g></g></g></g><g id="shape-ceb8c910-132f-11ec-8bc5-e98ba5337ee1"><g id="shape-48ff14f0-132f-11ec-8bc5-e98ba5337ee1"><rect rx="5" ry="5" x="185.26182370513902" y="212.4978614107127" transform="matrix(1.0000000180242017,8.698226992842604e-8,0.0000036998137505350756,0.9999999800002592,-0.0008833888649633082,-0.000017888268558863274)" width="150" height="50" style="fill: rgb(25, 25, 25); fill-opacity: 1;"/></g><g id="shape-c7ae6ad0-132f-11ec-8bc5-e98ba5337ee1"><g id="shape-444091a0-1262-11ec-a24a-8550932f84af" style="fill: rgb(255, 255, 255); fill-opacity: 1;"><g id="shape-4444d760-1262-11ec-a24a-8550932f84af"><path d="M295.06285066632654,219.34289012085645C305.182558416127,219.34289012085645,313.3873554192471,227.5476871239769,313.3873554192471,237.66739487377714C313.3873554192471,247.7871026235776,305.182558416127,255.99189962669794,295.06285066632654,255.99189962669794C284.9431429165261,255.99189962669794,276.73834591340574,247.7871026235776,276.73834591340574,237.66739487377714C276.73834591340574,227.5476871239769,284.9431429165261,219.34289012085645,295.06285066632654,219.34289012085645ZZM291.42085534668354,243.77250904062527C291.6880877076635,244.75745117109483,291.6590739084713,245.67825753492895,291.3842063371776,246.50896841706123L291.28494860309934,246.78383598835518C291.2482995935934,246.87698555418257,291.2055424158366,246.9670810358844,291.16583932220533,247.05259539139803C290.95205343342127,247.49543758959368,290.6680236097509,247.90773894653427,290.31833097738263,248.28949946222025C289.2524556175879,249.44852438784238,287.7651166484759,249.8883125019127,287.12681306624904,249.5187683227287C286.4396441380145,249.11868330228987,286.781701560069,247.48016716896637,288.0186056308912,246.17454620532072C289.3486592675406,244.77272159172236,291.25593480390717,243.87023973264087,291.25593480390717,243.87023973264087L291.25593480390717,243.86565860645243L291.42085534668354,243.77250904062527ZZM306.5553692305332,227.18730519716934C305.72771243252623,223.93012447733764,300.3296187407284,222.85966799135446,295.2216630408518,224.67532100395618C292.18437637805505,225.7549397423159,288.8936007328432,227.45148347402397,286.5282125776537,229.6641674229391C283.71387405601763,232.2922068129206,283.26645073163377,234.58276990703558,283.45122282122566,235.54022528037564C284.10326978201715,238.91651528110134,288.7302072321297,241.12461810382825,290.63290164230784,242.76313423715175L290.63290164230784,242.7722964895284C290.0724772052811,243.04716406082213,285.966261098564,245.10714380346286,285.00422459903575,247.2388945230528C283.97347120668405,249.48364635528566,285.1645640156237,251.08856756322876,285.94335546762295,251.2931911996364C288.34844671644373,251.95898153899253,290.82225485808794,250.74345605704872,292.1507814526749,248.77509883817248C293.43349678537925,246.8494987970533,293.32049567273634,244.37569065540885,292.7677064460231,243.16169221552792C293.52511930914375,242.9555415370574,294.4169118737859,242.86391901329313,295.5621934208434,243.00287984100265C298.7705087946674,243.3693699360611,299.4118664610196,245.38506545888214,299.2729056333101,246.20966817276377C299.135471847663,247.0327438445825,298.4742626344953,247.51376209434653,298.2436792830208,247.6511958799934C298.01462297360945,247.79015670770315,297.945906080786,247.83444092752262,297.9672846696644,247.92759049335C297.9901903006055,248.06502427899687,298.10624549737395,248.06502427899687,298.2879635028405,248.0421186480558C298.53992544319317,247.99630738617344,299.9616016036073,247.3549497198215,300.0303184964307,245.79583977376006C300.09903538925414,243.82595551282117,298.2192466100171,241.62854198453357,294.87655153467176,241.67282620435327C293.5022136782027,241.697258877357,292.63027266037625,241.8117870320628,292.0133476670278,242.06374897241545C291.96753640514567,241.9950320795918,291.92019810120064,241.94922081770966,291.85300825043987,241.9034095558273C289.79150146573625,239.68156335453574,285.966261098564,238.12398045053743,286.1266005151522,235.16915405912897C286.1724117770343,234.0925894048949,286.56180750303406,231.2538182102549,293.4564024163203,227.8179735690822C299.1140932587846,224.99905392125783,303.628029596254,225.77937241531987,304.4068210482533,227.49729473590634C305.52614288024415,229.9466702045466,302.0002027573696,234.5064178038984,296.113455605494,235.16915405912897C293.86870377326113,235.42111599948163,292.70051659526234,234.55222906578075,292.40121635096466,234.23002319054177C292.08206455985123,233.88643872642461,292.0362532979691,233.86353309548332,291.9217251432633,233.9337770303694C291.7384800957341,234.02539955413414,291.85300825043987,234.32317275636916,291.9217251432633,234.5064178038984C292.1049701907925,234.96453042272157,292.81504474996814,235.76622750566167,294.053475862853,236.1785288626025C295.1285134750244,236.52211332671965,297.76418807531945,236.72673696312728,300.9251651451982,235.49135993436795C304.47401089901405,234.11854911996176,307.2455922428933,230.29178171072664,306.44389515995294,227.08499337896552L306.5553692305332,227.18730519716934ZZ"/></g></g><g id="shape-d2e4dc00-132e-11ec-8bc5-e98ba5337ee1"><g><path d="M184 1056 c-114 -53 -148 -176 -72 -262 37 -42 93 -71 208 -109 108
-36 150 -73 150 -135 0 -88 -96 -137 -214 -111 -60 13 -99 46 -116 96 -11 32
-15 35 -52 35 -40 0 -40 0 -34 -32 12 -58 51 -104 117 -137 54 -27 72 -31 143
-31 152 1 238 66 238 180 0 110 -62 162 -266 226 -34 11 -74 32 -93 50 -28 26
-33 38 -33 76 0 55 29 91 86 107 104 29 205 -15 220 -96 6 -31 9 -33 45 -33
33 0 39 3 39 20 0 61 -77 150 -147 169 -68 19 -162 13 -219 -13z M765 738
c-71 -187 -131 -347 -133 -355 -3 -9 8 -13 36 -13 39 0 41 2 58 48 10 26 25
67 35 92 l17 45 153 3 154 2 35 -95 34 -95 42 0 42 0 -47 122 c-26 68 -87 228
-136 356 l-89 232 -35 0 -36 0 -130 -342z m234 57 l59 -160 -121 -3 c-66 -1
-122 0 -124 2 -3 3 16 65 42 138 60 167 76 206 81 193 3 -5 31 -82 63 -170z
M1424 1056 c-114 -53 -148 -176 -72 -262 37 -42 93 -71 208 -109 108 -36 150
-73 150 -135 0 -88 -96 -137 -214 -111 -60 13 -99 46 -116 96 -11 32 -15 35
-52 35 -40 0 -40 0 -34 -32 12 -58 51 -104 117 -137 54 -27 72 -31 143 -31
152 1 238 66 238 180 0 110 -62 162 -266 226 -34 11 -74 32 -93 50 -28 26 -33
38 -33 76 0 55 29 91 86 107 104 29 205 -15 220 -96 6 -31 9 -33 45 -33 33 0
39 3 39 20 0 61 -77 150 -147 169 -68 19 -162 13 -219 -13z M2024 1056 c-114
-53 -148 -176 -72 -262 37 -42 93 -71 208 -109 108 -36 150 -73 150 -135 0
-88 -96 -137 -214 -111 -60 13 -99 46 -116 96 -11 32 -15 35 -52 35 -40 0 -40
0 -34 -32 12 -58 51 -104 117 -137 54 -27 72 -31 143 -31 152 1 238 66 238
180 0 110 -62 162 -266 226 -34 11 -74 32 -93 50 -28 26 -33 38 -33 76 0 55
29 91 86 107 104 29 205 -15 220 -96 6 -31 9 -33 45 -33 33 0 39 3 39 20 0 61
-77 150 -147 169 -68 19 -162 13 -219 -13z" transform="translate(207.26182370513902, 221.4978614107127) scale(0.25, 0.25) translate(0.000000,128.000000) scale(0.100000,-0.100000)" fill="#ffffff" stroke="none"/></g></g></g></g><g id="shape-c04e7280-132f-11ec-8bc5-e98ba5337ee1"><g id="shape-47dc18c0-132f-11ec-8bc5-e98ba5337ee1"><rect rx="5" ry="5" x="109.26182370513902" y="117.49786141071269" transform="matrix(1.0000000180242021,8.698226992842606e-8,0.000003699813750535075,0.9999999800002591,-0.0005305367194239352,-0.000013177591398516597)" width="150" height="50" style="fill: rgb(25, 25, 25); fill-opacity: 1;"/></g><g id="shape-b8229eb0-132f-11ec-8bc5-e98ba5337ee1"><g id="shape-44e78000-1262-11ec-a24a-8550932f84af" style="fill: rgb(255, 255, 255); fill-opacity: 1;"><g id="shape-44e7f530-1262-11ec-a24a-8550932f84af"><path d="M198.170458628196,124.01819940498171L230.23834194580718,124.01819940498171L227.3216916059671,156.94580740391746L214.16927831955832,160.6672089108231L201.09016305216142,156.9442803618548L198.170458628196,124.01819940498171ZZM224.26760748048036,130.75703602786837L204.1411930935226,130.75245490167993L204.4664530528869,134.75635919019328L219.92775393816373,134.7594132743186L219.5383582121642,138.9068595167298L209.398798915548,138.9068595167298L209.76528901060647,142.8359387441684L219.20546304248614,142.8359387441684L218.64656564752204,148.2157079312135L214.20287324493893,149.44344974965907L209.68893690746927,148.20654567883707L209.40185299967357,144.98448692644843L205.4162732159134,144.98448692644843L205.85911541410883,150.87123407832416L214.2044002870016,153.47178671117615L222.4091972901217,151.13541235517891L224.26760748048036,130.75856306993103Z"/></g></g><g id="shape-ba9ce2f0-132e-11ec-8bc5-e98ba5337ee1"><g><path d="M252 1067 c-19 -6 -55 -30 -82 -54 -64 -57 -91 -126 -98 -250 -14
-252 84 -392 276 -393 133 0 217 61 250 183 l10 37 -42 0 c-41 0 -42 -1 -53
-43 -33 -121 -195 -158 -290 -65 -48 46 -66 113 -67 239 0 130 16 190 63 239
93 98 261 66 293 -56 12 -43 13 -44 55 -44 l42 0 -14 46 c-35 117 -115 175
-239 173 -39 -1 -86 -6 -104 -12z M821 1054 c-68 -34 -103 -85 -104 -152 -1
-94 64 -158 215 -207 157 -52 178 -70 178 -150 0 -35 -6 -52 -24 -70 -25 -25
-83 -45 -131 -45 -84 0 -175 59 -175 114 0 24 -3 26 -45 26 -50 0 -52 -4 -29
-58 19 -47 58 -88 109 -115 50 -26 184 -35 241 -17 93 30 152 112 140 194 -13
85 -73 137 -209 182 -152 50 -187 77 -187 145 0 76 81 128 179 115 76 -10 131
-59 131 -116 0 -17 7 -20 45 -20 44 0 45 1 39 28 -13 58 -58 115 -113 144 -45
24 -65 28 -130 28 -63 0 -87 -5 -130 -26z M1421 1054 c-68 -34 -103 -85 -104
-152 -1 -94 64 -158 215 -207 157 -52 178 -70 178 -150 0 -35 -6 -52 -24 -70
-25 -25 -83 -45 -131 -45 -84 0 -175 59 -175 114 0 24 -3 26 -45 26 -50 0 -52
-4 -29 -58 19 -47 58 -88 109 -115 50 -26 184 -35 241 -17 93 30 152 112 140
194 -13 85 -73 137 -209 182 -152 50 -187 77 -187 145 0 76 81 128 179 115 76
-10 131 -59 131 -116 0 -17 7 -20 45 -20 44 0 45 1 39 28 -13 58 -58 115 -113
144 -45 24 -65 28 -130 28 -63 0 -87 -5 -130 -26z" transform="translate(139.26182370513902, 126.49786141071269) scale(0.25, 0.25) translate(0.000000,128.000000) scale(0.100000,-0.100000)" fill="#ffffff" stroke="none"/></g></g></g></g><g id="shape-98a7d7d0-132f-11ec-8bc5-e98ba5337ee1"><g id="shape-48748830-132f-11ec-8bc5-e98ba5337ee1"><rect rx="5" ry="5" x="294.261823705139" y="151.4978614107127" transform="matrix(1.0000000199118069,8.698227009261419e-8,0.0000036998137505350663,0.9999999800002567,-0.0006607402090708092,-0.00003024198286993851)" width="188" height="50" style="fill: rgb(25, 25, 25); fill-opacity: 1;"/></g><g id="shape-8f5621a0-132f-11ec-8bc5-e98ba5337ee1"><g id="shape-43aa6c20-1262-11ec-a24a-8550932f84af" style="fill: rgb(255, 255, 255); fill-opacity: 1;"><g id="shape-43ac67f0-1262-11ec-a24a-8550932f84af"><path d="M434.8926804202672,158.01837582567322L471.5416899261088,158.01837582567322L471.5416899261088,194.6673853315146L434.8926804202672,194.6673853315146L434.8926804202672,158.01837582567322ZZM468.5395252307551,185.92659656437132C468.27229286977513,184.25448550566756,467.18351187903886,182.84960680794353,463.9538179163367,181.53940471810978C462.82991495815736,181.01257520646328,461.5807945508334,180.64608511140472,461.20972332958695,179.79857676658213C461.0707625018774,179.29465288587681,461.0493839129988,179.0197853145831,461.13947939470086,178.72201211234818C461.36853570411245,177.73554293981584,462.5367228821108,177.4392967796437,463.45294811975714,177.71416435093744C464.0484945242272,177.89740939846666,464.59822966681463,178.35552201728973,464.94334117299445,179.08850220740663C466.52230266587117,178.05622177299205,466.52230266587117,178.05622177299205,467.6232999931092,177.37057988682028C467.2109986361686,176.729222220468,467.00637499976096,176.4528276071115,466.72845334434146,176.17948707788042C465.76641684481297,175.10292242364625,464.4852285541713,174.55318728105857,462.4008161385266,174.6005255850037L461.3242514842925,174.7364323285879C460.2919710498784,174.98839426894057,459.30855596147126,175.53812941152813,458.7130095570012,176.27110960164492C456.97218160547413,178.2425209046467,457.4745784441168,181.67836554581942,459.5818964907023,183.09851466417064C461.666308906347,184.65609756816895,464.7142848635833,184.99815499022344,465.1036805895826,186.4656424125198C465.47017068464106,188.25228162592958,463.7751539949961,188.82492239945833,462.10151589422935,188.61877172098804C460.863084781344,188.3439041496943,460.17744289517236,187.72392507222042,459.4215570741146,186.57864352516282L456.62707009929386,188.18356473310627C456.9477489324702,188.91654492322306,457.31423902752863,189.23569671433637,457.8639741701161,189.87705438068878C460.5210273592895,192.55854024286606,467.16366033222334,192.42110645721897,468.3562801832261,188.3439041496943C468.40056440304556,188.20647036404733,468.72277027828454,187.26733949546013,468.469281295869,185.8242847461675L468.5395252307551,185.92659656437132ZZM454.82210638113133,174.86317681979557L451.3893158240842,174.86317681979557C451.3893158240842,177.82258433739224,451.37557244551977,180.76366735023606,451.37557244551977,183.72765599402095C451.37557244551977,185.60897181532079,451.4717760954725,187.33605638828357,451.16484064086103,187.86746702611828C450.6609167601557,188.9195990073485,449.3629310068238,188.78521930582707,448.7734927706049,188.60044721623518C448.1687841137584,188.3011469719375,447.861848659147,187.88884561499668,447.5060478585276,187.29482625258964C447.4098442085749,187.13448683600149,447.33807323162614,186.99552600829185,447.3121135165595,186.99552600829185L444.52526175205253,188.7134483288781C444.9910095811895,189.67548482840647,445.67054329911,190.50314162641342,446.5470654431249,191.0299711380597C447.85268640677054,191.80876259005908,449.6072577368625,192.06072453041162,451.4442893383432,191.64842317347092C452.63996327347127,191.30331166729098,453.67071666582274,190.59323710811526,454.2097625139711,189.49376682294002C454.98855396597014,188.07361770458868,454.823633423194,186.33278975306126,454.81599821288023,184.38428408100054C454.8343227176331,181.24773968412575,454.81599821288023,178.10966824518806,454.81599821288023,174.9486911753092L454.82210638113133,174.86317681979557ZZ"/></g></g><g id="shape-bcd60a10-132e-11ec-8bc5-e98ba5337ee1"><g><path d="M3698 1079 c-18 -10 -23 -35 -12 -63 7 -19 55 -21 72 -4 18 18 14 56
-7 68 -24 12 -31 12 -53 -1z M390 813 c0 -239 -2 -272 -19 -309 -52 -114 -251
-86 -251 36 0 17 -6 20 -45 20 l-45 0 7 -32 c8 -45 26 -78 60 -110 39 -37 73
-48 154 -48 104 0 169 39 204 122 12 31 15 87 15 313 l0 275 -40 0 -40 0 0
-267z M2365 1069 c-43 -12 -105 -67 -121 -105 -32 -76 -4 -162 67 -209 21 -13
86 -41 145 -62 63 -21 121 -48 138 -64 27 -24 31 -34 31 -79 0 -45 -4 -55 -32
-80 -39 -35 -106 -47 -176 -31 -67 15 -104 44 -118 92 -11 37 -15 39 -51 39
-45 0 -50 -18 -18 -80 40 -78 126 -120 249 -120 63 0 87 5 129 26 68 34 95 72
100 143 6 108 -46 162 -218 222 -155 53 -191 90 -170 170 13 47 52 75 118 85
89 13 171 -33 187 -106 6 -27 10 -30 46 -30 46 0 49 12 20 76 -22 49 -78 97
-130 113 -44 13 -152 13 -196 0z M4510 965 l0 -65 -50 0 c-49 0 -50 -1 -50
-29 0 -28 2 -30 48 -33 l47 -3 5 -200 c6 -253 12 -265 124 -265 l56 0 0 33 c0
32 -1 33 -33 29 -63 -7 -67 5 -67 219 l0 189 45 0 c43 0 45 1 45 30 0 29 -2
30 -45 30 l-45 0 0 65 0 65 -40 0 -40 0 0 -65z M740 885 c-42 -19 -77 -51 -96
-87 -19 -37 -19 -38 26 -38 34 0 42 4 50 25 19 49 118 72 179 40 30 -15 51
-59 51 -105 0 -27 0 -27 -92 -35 -51 -4 -109 -13 -128 -21 -128 -54 -147 -206
-34 -271 65 -38 184 -27 223 20 19 24 28 21 35 -13 5 -28 9 -30 50 -30 l45 0
-10 32 c-5 18 -9 107 -9 198 0 187 -11 228 -71 271 -43 31 -164 38 -219 14z
m210 -316 c0 -53 -3 -64 -28 -89 -61 -60 -176 -60 -207 0 -21 40 -19 72 6 104
26 33 65 44 157 45 l72 1 0 -61z M1150 893 c0 -4 42 -123 93 -265 l92 -259 30
3 c29 3 31 6 117 248 49 135 91 253 94 263 4 14 -1 17 -34 17 l-40 0 -61 -189
c-34 -104 -61 -194 -61 -199 0 -6 -4 -13 -9 -17 -5 -3 -40 87 -78 200 l-68
205 -37 0 c-21 0 -38 -3 -38 -7z M1780 885 c-42 -19 -77 -51 -96 -87 -19 -37
-19 -38 26 -38 34 0 42 4 50 25 19 49 118 72 179 40 30 -15 51 -59 51 -105 0
-27 0 -27 -92 -35 -51 -4 -109 -13 -128 -21 -128 -54 -147 -206 -34 -271 65
-38 184 -27 223 20 19 24 28 21 35 -13 5 -28 9 -30 50 -30 l45 0 -10 32 c-5
18 -9 107 -9 198 0 187 -11 228 -71 271 -43 31 -164 38 -219 14z m210 -316 c0
-53 -3 -64 -28 -89 -61 -60 -176 -60 -207 0 -21 40 -19 72 6 104 26 33 65 44
157 45 l72 1 0 -61z M2939 880 c-43 -23 -83 -68 -106 -119 -20 -45 -23 -190
-4 -244 30 -89 113 -147 208 -147 96 1 164 43 198 123 l15 37 -38 0 c-33 0
-39 -4 -49 -30 -24 -63 -133 -91 -199 -51 -50 30 -69 82 -68 186 0 73 4 98 21
131 36 67 116 92 187 59 33 -16 66 -61 66 -89 0 -12 10 -16 40 -16 39 0 40 1
34 28 -10 44 -36 83 -77 116 -35 28 -47 31 -115 34 -61 2 -85 -2 -113 -18z
M3360 635 l0 -265 40 0 40 0 0 198 c0 193 1 199 23 220 27 26 69 42 108 42 27
0 29 3 29 35 0 35 0 35 -46 35 -39 0 -51 -5 -80 -34 -34 -34 -44 -31 -44 15 0
15 -7 19 -35 19 l-35 0 0 -265z M3680 635 l0 -265 40 0 40 0 0 265 0 265 -40
0 -40 0 0 -265z M3920 535 l0 -365 40 0 40 0 0 131 0 131 30 -26 c36 -30 82
-40 149 -34 62 6 100 34 137 100 27 50 29 60 29 163 0 95 -3 116 -24 158 -31
63 -79 99 -141 105 -67 6 -114 -4 -149 -33 -37 -32 -41 -31 -41 5 0 28 -3 30
-35 30 l-35 0 0 -365z m270 287 c55 -30 75 -80 75 -192 0 -108 -15 -148 -68
-181 -48 -30 -127 -22 -167 16 l-30 29 0 141 c0 134 1 143 23 163 47 44 111
53 167 24z" transform="translate(305.261823705139, 160.4978614107127) scale(0.25, 0.25) translate(0.000000,128.000000) scale(0.100000,-0.100000)" fill="#ffffff" stroke="none"/></g></g></g></g><g id="shape-60c9c7b0-132f-11ec-8bc5-e98ba5337ee1"><g id="shape-4a463af0-132f-11ec-8bc5-e98ba5337ee1"><rect rx="5" ry="5" x="5.261823705139022" y="179.4978614107127" transform="matrix(1.0000000180242035,8.698226992842614e-8,0.0000036998137505350765,0.9999999800002595,-0.000758050655051079,-0.000002891451458708616)" width="150" height="50" style="fill: rgb(25, 25, 25); fill-opacity: 1;"/></g><g id="shape-5b90a700-132f-11ec-8bc5-e98ba5337ee1"><g id="shape-45891730-1262-11ec-a24a-8550932f84af" style="fill: rgb(255, 255, 255); fill-opacity: 1;"><g id="shape-4589b370-1262-11ec-a24a-8550932f84af"><path d="M103.42045894636863,186.34288269446898L135.48834226398003,186.3428826944691L132.57169192414017,219.27049069340484L119.4192786377314,222.99189220031036L106.34169041239716,219.26896365134218L103.42045894636863,186.34288269446898ZZM114.15709168951776,201.2315428062173L113.80281793096106,197.08104247968066L129.16333404009697,197.08562360586865L129.5145537145279,193.08171931735563L109.39424749582099,193.0771381911673L110.46012285561596,205.30874511374174L124.39590872021222,205.30874511374185L123.89809300775755,210.54039122070077L119.45440060517444,211.76813303914645L114.94199130976767,210.53122896832446L114.65490740197197,207.3091702159358L110.6708546602747,207.3091702159358L111.17477854097979,213.67846265963823L119.45440060517444,215.89267365061636L127.66835986067122,213.68915195407777L128.80447915535206,201.23306984827974L114.15709168951753,201.23306984827974Z"/></g></g><g id="shape-b872aff0-132e-11ec-8bc5-e98ba5337ee1"><g><path d="M100 725 l0 -355 40 0 40 0 0 170 0 170 185 0 185 0 0 -170 0 -170
40 0 40 0 0 355 0 355 -40 0 -40 0 0 -150 0 -150 -185 0 -185 0 0 150 0 150
-40 0 -40 0 0 -355z M760 1045 l0 -35 115 0 115 0 0 -320 0 -320 40 0 40 0 0
320 0 320 115 0 115 0 0 35 0 35 -270 0 -270 0 0 -35z M1420 725 l0 -355 41 0
42 0 -5 289 c-2 160 -2 288 1 286 4 -2 58 -132 121 -289 l115 -286 30 0 31 0
113 283 c63 155 118 286 122 291 5 5 6 -122 2 -282 l-6 -292 46 0 47 0 0 355
0 355 -58 0 -58 0 -115 -286 c-63 -158 -118 -285 -124 -284 -5 1 -61 130 -124
286 l-113 284 -54 0 -54 0 0 -355z M2290 725 l0 -355 210 0 210 0 0 35 0 35
-165 0 -165 0 0 320 0 320 -45 0 -45 0 0 -355z" transform="translate(26.261823705139022, 188.4978614107127) scale(0.25, 0.25) translate(0.000000,128.000000) scale(0.100000,-0.100000)" fill="#ffffff" stroke="none"/></g></g></g></g></g></g></svg>