<svg xmlns:xlink="http://www.w3.org/1999/xlink" width="476.7823633847472" xmlns="http://www.w3.org/2000/svg" id="screenshot" version="1.1" viewBox="0 0 476.7823633847472 259.00002328271506" height="259.00002328271506" style="-webkit-print-color-adjust: exact;"><g id="shape-7a6bdd10-1330-11ec-8bc5-e98ba5337ee1"><g id="shape-3c5bb830-132e-11ec-8bc5-e98ba5337ee1"><g id="shape-427e5a20-1260-11ec-a24a-8550932f84af"><path d="M180.3618360185335,94.0000104719756L180.3618360185335,140.0000104719756M259.64098796199664,94.0000104719756L259.64098796199664,220.0000104719756M335.9095391987455,67.0000104719756L387.08975121287995,67.0000104719756L387.08975121287995,166.0000104719756M75.08975121287995,94.0000104719756L75.08975121287995,186.0000104719756" style="fill: none; stroke-width: 4; stroke: rgb(25, 25, 25); stroke-opacity: 1;"/></g><g id="shape-12d1c320-1260-11ec-a24a-8550932f84af"><g id="shape-12d1c321-1260-11ec-a24a-8550932f84af"><rect rx="5" ry="5" x="50.50016981188014" y="0.000010471975599557481" transform="matrix(1,1.7453292519943295e-8,-1.7453292519943298e-8,0.9999999999999999,8.726647990897618e-7,-0.0000034993881072864497)" width="300" height="100" style="fill: rgb(25, 25, 25); fill-opacity: 1;"/></g><g id="shape-12d1ea30-1260-11ec-a24a-8550932f84af"><g><path d="M7670 1824 l0 -276 -35 31 c-20 17 -59 43 -88 59 -48 25 -61 27 -167
27 -102 0 -121 -3 -165 -25 -74 -36 -146 -113 -188 -201 -47 -99 -61 -171 -61
-314 0 -241 88 -419 245 -502 50 -26 62 -28 169 -28 106 0 119 2 168 28 29 15
70 43 91 62 l38 35 7 -60 7 -60 74 0 75 0 0 750 0 750 -85 0 -85 0 0 -276z
m-115 -325 c28 -14 64 -44 82 -68 l33 -43 0 -257 0 -258 -35 -45 c-46 -61
-109 -91 -201 -96 -166 -9 -267 95 -294 300 -9 64 -9 110 -1 177 20 163 70
252 165 298 70 33 179 30 251 -8z M190 1310 l0 -710 90 0 90 0 0 315 0 315
300 0 300 0 0 75 0 75 -300 0 -300 0 0 245 0 245 345 0 345 0 0 75 0 75 -435
0 -435 0 0 -710z M4270 1790 l0 -130 -95 0 -95 0 0 -65 0 -65 94 0 95 0 3
-387 3 -388 26 -50 c38 -74 92 -108 179 -113 39 -2 90 -1 115 2 l45 7 0 68 0
68 -55 -5 c-33 -3 -68 1 -86 8 -57 24 -59 41 -59 435 l0 355 100 0 100 0 0 65
0 65 -100 0 -100 0 0 130 0 130 -85 0 -85 0 0 -130z M1550 1649 c-25 -11 -66
-43 -92 -71 l-48 -50 0 66 0 66 -85 0 -85 0 0 -530 0 -530 85 0 85 0 0 377 0
376 24 42 c47 79 139 120 255 113 l62 -3 -3 80 -3 80 -75 2 c-58 2 -85 -2
-120 -18z M2205 1652 c-157 -54 -263 -177 -310 -357 -19 -76 -19 -250 0 -334
35 -148 134 -273 262 -334 59 -27 82 -32 167 -35 243 -10 409 110 480 347 36
122 29 307 -15 428 -51 135 -161 244 -286 283 -84 26 -226 27 -298 2z m272
-144 c121 -57 196 -235 179 -423 -13 -141 -48 -226 -118 -292 -56 -51 -104
-68 -193 -67 -60 0 -79 4 -125 30 -64 36 -109 91 -141 171 -20 50 -23 76 -24
193 0 153 14 214 66 294 76 113 228 154 356 94z M3449 1655 c-64 -23 -101 -46
-151 -92 l-48 -46 0 72 0 71 -85 0 -85 0 0 -530 0 -530 85 0 85 0 0 378 0 379
30 44 c32 49 96 99 149 117 48 17 145 15 188 -3 50 -21 72 -42 94 -90 17 -37
19 -73 19 -432 l0 -393 90 0 90 0 0 338 c0 185 -5 377 -10 427 -25 211 -127
306 -328 304 -48 0 -103 -6 -123 -14z M5133 1656 c-142 -46 -260 -175 -307
-336 -23 -75 -31 -229 -17 -318 27 -171 116 -299 257 -369 71 -34 83 -37 188
-41 124 -5 196 9 272 54 51 30 150 133 138 143 -5 4 -28 22 -51 40 l-42 32
-42 -42 c-64 -64 -137 -93 -234 -93 -103 0 -168 27 -230 96 -49 55 -79 125
-90 211 l-7 57 362 0 363 0 -7 98 c-16 236 -87 372 -234 444 -60 30 -75 33
-172 35 -68 2 -120 -2 -147 -11z m247 -149 c72 -36 116 -112 135 -234 l7 -43
-272 0 -273 0 7 43 c15 93 82 198 148 233 74 39 172 39 248 1z M6227 1646
c-58 -24 -144 -87 -154 -112 -13 -34 -23 -8 -23 56 l0 70 -80 0 -80 0 0 -530
0 -530 85 0 85 0 0 380 c0 425 -3 407 72 476 63 58 120 78 212 72 93 -6 136
-31 168 -96 23 -46 23 -52 26 -439 l3 -393 85 0 85 0 -3 408 c-4 373 -6 411
-24 459 -30 80 -74 134 -135 168 -49 26 -65 30 -159 33 -93 2 -112 0 -163 -22z" transform="translate(100.50016981188014, 19.0000104719756) scale(0.25, 0.25) translate(0.000000,248.000000) scale(0.100000,-0.100000)" fill="#ffffff" stroke="none"/></g></g></g></g><g id="shape-ceb8c910-132f-11ec-8bc5-e98ba5337ee1"><g id="shape-48ff14f0-132f-11ec-8bc5-e98ba5337ee1"><rect rx="5" ry="5" x="179.50016981188014" y="209.0000104719756" transform="matrix(1.0000000180242017,8.698226992842604e-8,0.000003699813750535075,0.9999999800002591,-0.0008703436187431635,-0.000017457062909898013)" width="150" height="50" style="fill: rgb(25, 25, 25); fill-opacity: 1;"/></g><g id="shape-c7ae6ad0-132f-11ec-8bc5-e98ba5337ee1"><g id="shape-444091a0-1262-11ec-a24a-8550932f84af" style="fill: rgb(255, 255, 255); fill-opacity: 1;"><g id="shape-4444d760-1262-11ec-a24a-8550932f84af"><path d="M289.3246783868344,215.67551246476393C299.4443861366349,215.67551246476393,307.649183139755,223.8803094678844,307.649183139755,234.00001721768461C307.649183139755,244.11972496748507,299.4443861366349,252.32452197060542,289.3246783868344,252.32452197060542C279.20497063703397,252.32452197060542,271.0001736339136,244.11972496748507,271.0001736339136,234.00001721768461C271.0001736339136,223.8803094678844,279.20497063703397,215.67551246476393,289.3246783868344,215.67551246476393ZZM285.6826830671914,240.10513138453274C285.9499154281714,241.0900735150023,285.9209016289792,242.01087987883642,285.6460340576855,242.8415907609687L285.5467763236072,243.11645833226265C285.5101273141013,243.20960789809004,285.46737013634447,243.29970337979188,285.4276670427132,243.3852177353055C285.21388115392915,243.82805993350115,284.92985133025877,244.24036129044174,284.5801586978905,244.62212180612772C283.51428333809577,245.78114673174986,282.0269443689838,246.22093484582018,281.3886407867569,245.85139066663618C280.7014718585224,245.45130564619734,281.0435292805769,243.81278951287385,282.2804333513991,242.5071685492282C283.6104869880485,241.10534393562983,285.51776252441505,240.20286207654834,285.51776252441505,240.20286207654834L285.51776252441505,240.1982809503599L285.6826830671914,240.10513138453274ZZM300.81719695104107,223.5199275410768C299.9895401530341,220.26274682124512,294.5914464612363,219.19229033526193,289.4834907613597,221.00794334786366C286.44620409856293,222.0875620862234,283.1554284533511,223.78410581793145,280.79004029816156,225.99678976684658C277.9757017765255,228.62482915682807,277.52827845214165,230.91539225094306,277.71305054173354,231.8728476242831C278.36509750252503,235.2491376250088,282.9920349526376,237.45724044773573,284.8947293628157,239.09575658105922L284.8947293628157,239.10491883343587C284.33430492578896,239.3797864047296,280.2280888190719,241.43976614737034,279.26605231954363,243.57151686696028C278.23529892719193,245.81626869919313,279.42639173613156,247.42118990713624,280.20518318813083,247.62581354354387C282.6102744369516,248.2916038829,285.0840825785958,247.0760784009562,286.4126091731828,245.10772118207996C287.69532450588713,243.18212114096076,287.5823233932442,240.70831299931632,287.029534166531,239.4943145594354C287.7869470296516,239.28816388096487,288.6787395942938,239.1965413572006,289.8240211413513,239.33550218491013C293.0323365151753,239.70199227996858,293.6736941815275,241.7176878027896,293.53473335381796,242.54229051667124C293.39729956817087,243.36536618849,292.73609035500317,243.846384438254,292.5055070035287,243.98381822390087C292.27645069411733,244.12277905161062,292.2077338012939,244.1670632714301,292.2291123901723,244.26021283725748C292.2520180211134,244.39764662290435,292.36807321788183,244.39764662290435,292.5497912233484,244.37474099196328C292.80175316370105,244.32892973008092,294.22342932411516,243.68757206372896,294.2921462169386,242.12846211766754C294.360863109762,240.15857785672864,292.48107433052496,237.96116432844104,289.13837925517964,238.00544854826074C287.76404139871056,238.02988122126447,286.89210038088413,238.14440937597027,286.2751753875357,238.39637131632293C286.22936412565355,238.32765442349927,286.1820258217085,238.28184316161713,286.11483597094775,238.23603189973477C284.0533291862441,236.0141856984432,280.2280888190719,234.4566027944449,280.38842823566006,231.50177640303644C280.4342394975422,230.42521174880238,280.82363522354194,227.58644055416238,287.7182301368282,224.15059591298967C293.37592097929246,221.3316762651653,297.8898573167619,222.11199475922734,298.66864876876116,223.8299170798138C299.78797060075203,226.27929254845407,296.2620304778775,230.83904014780586,290.37528332600186,231.50177640303644C288.130531493769,231.7537383433891,286.9623443157702,230.88485140968822,286.66304407147254,230.56264553444925C286.3438922803591,230.2190610703321,286.298081018477,230.1961554393908,286.1835528637712,230.2663993742769C286.00030781624196,230.3580218980416,286.11483597094775,230.65579510027663,286.1835528637712,230.83904014780586C286.3667979113004,231.29715276662904,287.076872470476,232.09884984956915,288.3153035833609,232.51115120650996C289.3903411955323,232.85473567062712,292.02601579582733,233.05935930703475,295.1869928657061,231.82398227827542C298.7358386195219,230.45117146386923,301.50741996340116,226.6244040546341,300.7057228804608,223.417615722873L300.81719695104107,223.5199275410768ZZ"/></g></g><g id="shape-d2e4dc00-132e-11ec-8bc5-e98ba5337ee1"><g><path d="M225 1059 c-43 -12 -105 -67 -121 -105 -32 -76 -4 -162 67 -209 21
-13 86 -41 145 -62 63 -21 121 -48 138 -64 27 -24 31 -34 31 -79 0 -45 -4 -55
-32 -80 -39 -35 -106 -47 -176 -31 -67 15 -104 44 -118 92 -11 37 -15 39 -51
39 -45 0 -50 -18 -18 -80 40 -78 126 -120 249 -120 63 0 87 5 129 26 68 34 95
72 100 143 6 108 -46 162 -218 222 -155 53 -191 90 -170 170 13 47 52 75 118
85 89 13 171 -33 187 -106 6 -27 10 -30 46 -30 46 0 49 12 20 76 -22 49 -78
97 -130 113 -44 13 -152 13 -196 0z M785 728 c-71 -187 -131 -347 -133 -355
-3 -9 8 -13 36 -13 39 0 41 2 58 48 10 26 25 67 35 92 l17 45 153 3 154 2 35
-95 34 -95 42 0 42 0 -47 122 c-26 68 -87 228 -136 356 l-89 232 -35 0 -36 0
-130 -342z m234 57 l59 -160 -121 -3 c-66 -1 -122 0 -124 2 -3 3 16 65 42 138
60 167 76 206 81 193 3 -5 31 -82 63 -170z M1444 1046 c-114 -53 -148 -176
-72 -262 37 -42 93 -71 208 -109 108 -36 150 -73 150 -135 0 -88 -96 -137
-214 -111 -60 13 -99 46 -116 96 -11 32 -15 35 -52 35 -40 0 -40 0 -34 -32 12
-58 51 -104 117 -137 54 -27 72 -31 143 -31 152 1 238 66 238 180 0 110 -62
162 -266 226 -34 11 -74 32 -93 50 -28 26 -33 38 -33 76 0 55 29 91 86 107
104 29 205 -15 220 -96 6 -31 9 -33 45 -33 33 0 39 3 39 20 0 61 -77 150 -147
169 -68 19 -162 13 -219 -13z M2044 1046 c-114 -53 -148 -176 -72 -262 37 -42
93 -71 208 -109 108 -36 150 -73 150 -135 0 -88 -96 -137 -214 -111 -60 13
-99 46 -116 96 -11 32 -15 35 -52 35 -40 0 -40 0 -34 -32 12 -58 51 -104 117
-137 54 -27 72 -31 143 -31 152 1 238 66 238 180 0 110 -62 162 -266 226 -34
11 -74 32 -93 50 -28 26 -33 38 -33 76 0 55 29 91 86 107 104 29 205 -15 220
-96 6 -31 9 -33 45 -33 33 0 39 3 39 20 0 61 -77 150 -147 169 -68 19 -162 13
-219 -13z" transform="translate(201.50016981188014, 218.0000104719756) scale(0.25, 0.25) translate(0.000000,128.000000) scale(0.100000,-0.100000)" fill="#ffffff" stroke="none"/></g></g></g></g><g id="shape-c04e7280-132f-11ec-8bc5-e98ba5337ee1"><g id="shape-47dc18c0-132f-11ec-8bc5-e98ba5337ee1"><rect rx="5" ry="5" x="103.50016981188014" y="114.0000104719756" transform="matrix(1.0000000180242024,8.698226992842605e-8,0.0000036998137505350748,0.999999980000259,-0.0005174914732606339,-0.000012746385749551337)" width="150" height="50" style="fill: rgb(25, 25, 25); fill-opacity: 1;"/></g><g id="shape-b8229eb0-132f-11ec-8bc5-e98ba5337ee1"><g id="shape-44e78000-1262-11ec-a24a-8550932f84af" style="fill: rgb(255, 255, 255); fill-opacity: 1;"><g id="shape-44e7f530-1262-11ec-a24a-8550932f84af"><path d="M192.43228634870388,120.35082174888919L224.50016966631506,120.35082174888919L221.58351932647497,153.27842974782493L208.4311060400662,156.99983125473057L195.3519907726693,153.27690270576227L192.43228634870388,120.35082174888919ZZM218.52943520098825,127.08965837177584L198.40302081403047,127.0850772455874L198.72828077339477,131.08898153410075L214.1895816586716,131.09203561822608L213.8001859326721,135.23948186063728L203.6606266360559,135.23948186063728L204.02711673111435,139.16856108807588L213.46729076299403,139.16856108807588L212.90839336802992,144.54833027512097L208.4647009654468,145.77607209356654L203.95076462797715,144.53916802274455L203.66368072018145,141.3171092703559L199.6781009364213,141.3171092703559L200.1209431346167,147.20385642223164L208.46622800750947,149.80440905508362L216.6710250106296,147.4680346990864L218.52943520098825,127.0911854138385Z"/></g></g><g id="shape-ba9ce2f0-132e-11ec-8bc5-e98ba5337ee1"><g><path d="M239 1042 c-65 -34 -113 -94 -135 -169 -24 -81 -16 -291 12 -354 50
-109 128 -159 246 -159 118 1 191 42 234 135 34 72 32 85 -15 85 -37 0 -39 -1
-57 -52 -22 -62 -63 -94 -131 -104 -86 -13 -155 24 -195 104 -21 42 -23 60
-23 187 0 127 2 144 24 188 52 107 192 139 285 66 13 -10 32 -42 41 -69 16
-49 18 -50 56 -50 47 0 49 12 15 85 -43 93 -114 135 -230 135 -61 0 -83 -5
-127 -28z M865 1059 c-43 -12 -105 -67 -121 -105 -32 -76 -4 -162 67 -209 21
-13 86 -41 145 -62 63 -21 121 -48 138 -64 27 -24 31 -34 31 -79 0 -45 -4 -55
-32 -80 -39 -35 -106 -47 -176 -31 -67 15 -104 44 -118 92 -11 37 -15 39 -51
39 -45 0 -50 -18 -18 -80 40 -78 126 -120 249 -120 63 0 87 5 129 26 68 34 95
72 100 143 6 108 -46 162 -218 222 -155 53 -191 90 -170 170 13 47 52 75 118
85 89 13 171 -33 187 -106 6 -27 10 -30 46 -30 46 0 49 12 20 76 -22 49 -78
97 -130 113 -44 13 -152 13 -196 0z M1465 1059 c-43 -12 -105 -67 -121 -105
-32 -76 -4 -162 67 -209 21 -13 86 -41 145 -62 63 -21 121 -48 138 -64 27 -24
31 -34 31 -79 0 -45 -4 -55 -32 -80 -39 -35 -106 -47 -176 -31 -67 15 -104 44
-118 92 -11 37 -15 39 -51 39 -45 0 -50 -18 -18 -80 40 -78 126 -120 249 -120
63 0 87 5 129 26 68 34 95 72 100 143 6 108 -46 162 -218 222 -155 53 -191 90
-170 170 13 47 52 75 118 85 89 13 171 -33 187 -106 6 -27 10 -30 46 -30 46 0
49 12 20 76 -22 49 -78 97 -130 113 -44 13 -152 13 -196 0z" transform="translate(133.50016981188014, 123.0000104719756) scale(0.25, 0.25) translate(0.000000,128.000000) scale(0.100000,-0.100000)" fill="#ffffff" stroke="none"/></g></g></g></g><g id="shape-98a7d7d0-132f-11ec-8bc5-e98ba5337ee1"><g id="shape-48748830-132f-11ec-8bc5-e98ba5337ee1"><rect rx="5" ry="5" x="288.50016981188014" y="148.0000104719756" transform="matrix(1.0000000199118069,8.698227009261418e-8,0.0000036998137505350667,0.9999999800002568,-0.000647684087084599,-0.00002981077727781667)" width="188" height="50" style="fill: rgb(25, 25, 25); fill-opacity: 1;"/></g><g id="shape-8f5621a0-132f-11ec-8bc5-e98ba5337ee1"><g id="shape-43aa6c20-1262-11ec-a24a-8550932f84af" style="fill: rgb(255, 255, 255); fill-opacity: 1;"><g id="shape-43ac67f0-1262-11ec-a24a-8550932f84af"><path d="M429.1545081407753,154.3509981695807L465.8035176466167,154.3509981695807L465.8035176466167,191.00000767542207L429.1545081407753,191.00000767542207L429.1545081407753,154.3509981695807ZZM462.80135295126297,182.2592189082788C462.534120590283,180.58710784957503,461.44533959954674,179.182229151851,458.21564563684456,177.87202706201725C457.09174267866524,177.34519755037076,455.84262227134127,176.9787074553122,455.47155105009483,176.1311991104896C455.3325902223853,175.6272752297843,455.3112116335067,175.35240765849056,455.40130711520874,175.05463445625566C455.6303634246203,174.06816528372332,456.79855060261866,173.77191912355119,457.714775840265,174.0467866948449C458.31032224473506,174.23003174237414,458.8600573873225,174.6881443611972,459.20516889350233,175.4211245513141C460.78413038637905,174.38884411689952,460.78413038637905,174.38884411689952,461.88512771361707,173.70320223072775C461.4728263566765,173.06184456437546,461.26820272026885,172.78544995101896,460.99028106484934,172.5121094217879C460.02824456532085,171.43554476755372,458.74705627467915,170.88580962496604,456.66264385903446,170.93314792891118L455.5860792048004,171.06905467249538C454.55379877038627,171.32101661284804,453.57038368197914,171.8707517554356,452.9748372775091,172.6037319455524C451.234009325982,174.57514324855418,451.73640616462467,178.0109878897269,453.8437242112102,179.4311370080781C455.9281366268549,180.98871991207642,458.9761125840912,181.33077733413091,459.3655083100905,182.79826475642727C459.73199840514894,184.58490396983706,458.036981715504,185.1575447433658,456.36334361473723,184.9513940648955C455.1249125018519,184.67652649360178,454.43927061568024,184.0565474161279,453.6833847946225,182.9112658690703L450.88889781980174,184.51618707701374C451.20957665297806,185.24916726713053,451.5760667480365,185.56831905824384,452.12580189062396,186.20967672459625C454.7828550797974,188.89116258677353,461.4254880527312,188.75372880112644,462.61810790373397,184.67652649360178C462.66239212355345,184.5390927079548,462.9845979987924,183.5999618393676,462.7311090163769,182.15690709007498L462.80135295126297,182.2592189082788ZZM449.0839341016392,171.19579916370304L445.65114354459206,171.19579916370304C445.65114354459206,174.15520668129972,445.63740016602765,177.09628969414354,445.63740016602765,180.06027833792842C445.63740016602765,181.94159415922826,445.73360381598036,183.66867873219104,445.4266683613689,184.20008937002575C444.9227444806636,185.25222135125597,443.6247587273317,185.11784164973454,443.03532049111277,184.93306956014266C442.4306118342663,184.63376931584497,442.12367637965485,184.22146795890416,441.7678755790355,183.62744859649712C441.6716719290828,183.46710917990896,441.599900952134,183.32814835219932,441.5739412370674,183.32814835219932L438.7870894725604,185.04607067278556C439.25283730169735,186.00810717231394,439.93237101961813,186.8357639703209,440.8088931636328,187.36259348196717C442.1145141272784,188.14138493396655,443.8690854573704,188.3933468743191,445.7061170588511,187.9810455173784C446.90179099397915,187.63593401119846,447.9325443863306,186.92585945202273,448.471590234479,185.8263891668475C449.250381686478,184.40624004849616,449.0854611437019,182.66541209696874,449.0778259333881,180.71690642490802C449.09615043814097,177.58036202803322,449.0778259333881,174.44229058909553,449.0778259333881,171.28131351921667L449.0839341016392,171.19579916370304ZZ"/></g></g><g id="shape-bcd60a10-132e-11ec-8bc5-e98ba5337ee1"><g><path d="M3717 1062 c-32 -35 -14 -72 35 -72 40 0 59 41 33 70 -23 25 -47 26
-68 2z M408 786 c-3 -271 -4 -286 -24 -313 -62 -84 -221 -56 -240 43 -6 32 -9
34 -45 34 -35 0 -39 -3 -39 -25 0 -65 54 -132 126 -155 19 -7 68 -10 108 -8
90 4 143 35 175 100 20 42 21 59 21 326 l0 282 -40 0 -39 0 -3 -284z M2361
1044 c-68 -34 -103 -85 -104 -152 -1 -94 64 -158 215 -207 157 -52 178 -70
178 -150 0 -35 -6 -52 -24 -70 -25 -25 -83 -45 -131 -45 -84 0 -175 59 -175
114 0 24 -3 26 -45 26 -50 0 -52 -4 -29 -58 19 -47 58 -88 109 -115 50 -26
184 -35 241 -17 93 30 152 112 140 194 -13 85 -73 137 -209 182 -152 50 -187
77 -187 145 0 76 81 128 179 115 76 -10 131 -59 131 -116 0 -17 7 -20 45 -20
44 0 45 1 39 28 -13 58 -58 115 -113 144 -45 24 -65 28 -130 28 -63 0 -87 -5
-130 -26z M4530 955 l0 -65 -45 0 c-43 0 -45 -1 -45 -30 0 -29 2 -30 45 -30
l45 0 0 -177 c0 -98 5 -195 10 -215 15 -54 51 -78 116 -78 53 0 54 0 54 30 0
26 -4 30 -28 30 -16 0 -37 6 -48 14 -18 13 -19 28 -19 203 l0 188 48 3 c45 3
47 5 47 33 0 28 -1 29 -50 29 l-50 0 0 65 0 65 -40 0 -40 0 0 -65z M754 871
c-43 -20 -94 -76 -94 -104 0 -13 9 -17 39 -17 32 0 40 4 45 23 14 56 140 79
192 34 20 -18 28 -35 31 -74 l5 -50 -83 -7 c-113 -10 -153 -21 -194 -57 -82
-72 -61 -195 42 -248 12 -6 48 -11 80 -11 48 0 68 5 106 30 l48 30 6 -30 c5
-28 9 -30 50 -30 39 0 44 2 37 18 -4 9 -10 106 -13 214 -7 215 -9 223 -75 272
-40 30 -165 34 -222 7z m216 -315 c0 -59 -2 -66 -30 -90 -90 -75 -215 -44
-215 54 0 71 46 98 173 99 l72 1 0 -64z M1175 871 c3 -11 46 -129 94 -263 86
-237 89 -243 117 -246 l29 -3 90 252 c50 139 91 258 93 266 3 9 -8 13 -35 13
l-39 0 -64 -201 c-35 -110 -67 -202 -71 -205 -5 -3 -38 88 -74 201 l-66 205
-40 0 c-35 0 -40 -2 -34 -19z M1794 871 c-43 -20 -94 -76 -94 -104 0 -13 9
-17 39 -17 32 0 40 4 45 23 14 56 140 79 192 34 20 -18 28 -35 31 -74 l5 -50
-83 -7 c-113 -10 -153 -21 -194 -57 -82 -72 -61 -195 42 -248 12 -6 48 -11 80
-11 48 0 68 5 106 30 l48 30 6 -30 c5 -28 9 -30 50 -30 39 0 44 2 37 18 -4 9
-10 106 -13 214 -7 215 -9 223 -75 272 -40 30 -165 34 -222 7z m216 -315 c0
-59 -2 -66 -30 -90 -90 -75 -215 -44 -215 54 0 71 46 98 173 99 l72 1 0 -64z
M2961 869 c-85 -43 -126 -133 -120 -266 5 -99 36 -164 98 -208 39 -27 50 -30
125 -30 74 0 87 3 123 28 37 25 83 90 83 116 0 6 -16 11 -35 11 -28 0 -37 -5
-44 -22 -5 -13 -21 -34 -36 -48 -23 -21 -36 -25 -90 -25 -73 0 -96 15 -126 80
-26 56 -26 185 1 242 49 109 205 111 247 3 14 -36 20 -40 50 -40 39 0 42 14
14 77 -30 64 -87 97 -175 101 -58 2 -79 -1 -115 -19z M3380 625 l0 -265 40 0
40 0 0 193 c0 162 3 196 16 216 21 29 72 51 119 51 33 0 35 2 35 35 0 35 -1
35 -42 35 -44 0 -87 -21 -113 -56 -13 -18 -14 -16 -15 19 0 37 -1 37 -40 37
l-40 0 0 -265z M3710 625 l0 -265 40 0 40 0 0 265 0 265 -40 0 -40 0 0 -265z
M3940 525 l0 -365 40 0 40 0 0 132 c0 124 1 130 18 116 53 -47 162 -64 220
-34 75 39 116 126 116 246 1 126 -34 206 -108 251 -50 31 -141 26 -198 -10
l-46 -29 -6 29 c-5 25 -10 29 -41 29 l-35 0 0 -365z m288 278 c45 -34 66 -87
66 -172 0 -95 -15 -141 -60 -181 -28 -24 -44 -30 -80 -30 -51 0 -96 20 -118
52 -24 34 -23 274 2 305 43 55 135 67 190 26z" transform="translate(299.50016981188014, 157.0000104719756) scale(0.25, 0.25) translate(0.000000,128.000000) scale(0.100000,-0.100000)" fill="#ffffff" stroke="none"/></g></g></g></g><g id="shape-60c9c7b0-132f-11ec-8bc5-e98ba5337ee1"><g id="shape-4a463af0-132f-11ec-8bc5-e98ba5337ee1"><rect rx="5" ry="5" x="-0.4998301881198586" y="176.0000104719756" transform="matrix(1.0000000180242035,8.698226992842614e-8,0.000003699813750535075,0.9999999800002591,-0.0007450054088167235,-0.0000024602457528999366)" width="150" height="50" style="fill: rgb(25, 25, 25); fill-opacity: 1;"/></g><g id="shape-5b90a700-132f-11ec-8bc5-e98ba5337ee1"><g id="shape-45891730-1262-11ec-a24a-8550932f84af" style="fill: rgb(255, 255, 255); fill-opacity: 1;"><g id="shape-4589b370-1262-11ec-a24a-8550932f84af"><path d="M97.68228666687651,182.67550503837646L129.7501699844879,182.67550503837657L126.83351964464805,215.6031130373123L113.68110635823928,219.32451454421783L100.60351813290504,215.60158599524965L97.68228666687651,182.67550503837646ZZM108.41891941002564,197.56416515012478L108.06464565146894,193.41366482358814L123.42516176060485,193.41824594977612L123.77638143503577,189.4143416612631L103.65607521632887,189.40976053507478L104.72195057612385,201.6413674576492L118.6577364407201,201.64136745764932L118.15992072826543,206.87301356460824L113.71622832568232,208.10075538305392L109.20381903027555,206.86385131223193L108.91673512247985,203.64179255984328L104.93268238078258,203.64179255984328L105.43660626148767,210.0110850035457L113.71622832568232,212.22529599452383L121.9301875811791,210.02177429798525L123.06630687585994,197.5656921921872L108.41891941002541,197.5656921921872Z"/></g></g><g id="shape-b872aff0-132e-11ec-8bc5-e98ba5337ee1"><g><path d="M110 715 l0 -355 40 0 40 0 0 170 0 170 185 0 185 0 0 -170 0 -170
40 0 40 0 0 355 0 355 -40 0 -40 0 0 -150 0 -150 -185 0 -185 0 0 150 0 150
-40 0 -40 0 0 -355z M770 1035 l0 -35 115 0 115 0 0 -320 0 -320 40 0 40 0 0
320 0 320 115 0 115 0 0 35 0 35 -270 0 -270 0 0 -35z M1430 715 l0 -355 41 0
42 0 -5 289 c-2 160 -2 288 1 286 4 -2 58 -132 121 -289 l115 -286 30 0 31 0
113 283 c63 155 118 286 122 291 5 5 6 -122 2 -282 l-6 -292 46 0 47 0 0 355
0 355 -58 0 -58 0 -115 -286 c-63 -158 -118 -285 -124 -284 -5 1 -61 130 -124
286 l-113 284 -54 0 -54 0 0 -355z M2310 715 l0 -355 205 0 205 0 0 35 0 35
-165 0 -165 0 0 320 0 320 -40 0 -40 0 0 -355z" transform="translate(20.50016981188014, 185.0000104719756) scale(0.25, 0.25) translate(0.000000,128.000000) scale(0.100000,-0.100000)" fill="#ffffff" stroke="none"/></g></g></g></g></g></svg>